ISO-10303-21;
HEADER;
/* Generated by software containing ST-Developer
 * from STEP Tools, Inc. (www.steptools.com) 
 */
/* OPTION: using custom renumber hook */

FILE_DESCRIPTION(
/* description */ ('STEP AP242 Edition 2',
'CAx-IF Rec.Pracs.---Representation and Presentation of Product Manufa
cturing Information (PMI)---4.0---2014-10-13',
'CAx-IF Rec.Pracs.---3D Tessellated Geometry---0.4---2014-09-14','2;1',
'CAx-IF Rec.Pracs.---User Defined Attributes---1.5---2016-08-15'),
/* implementation_level */ '2;1');

FILE_NAME(
/* name */ 'Part Studio 3',
/* time_stamp */ '2026-05-30T05:13:28Z',
/* author */ (''),
/* organization */ (''),
/* preprocessor_version */ 'ST-DEVELOPER v20',
/* originating_system */ 'ONSHAPE BY PTC INC, 1.215',
/* authorisation */ '  ');

FILE_SCHEMA (('AP242_MANAGED_MODEL_BASED_3D_ENGINEERING_MIM_LF { 1 0 10303 442 3 1 4 }'));
ENDSEC;

DATA;
#10=SHAPE_REPRESENTATION_RELATIONSHIP('','',#632,#11);
#11=ADVANCED_BREP_SHAPE_REPRESENTATION('',(#630),#1062);
#12=ELLIPSE('',#695,0.0180982067034513,0.0152187171394532);
#13=ELLIPSE('',#697,0.0180982067034513,0.0152187171394531);
#14=CONICAL_SURFACE('',#682,0.0235,0.785398163397448);
#15=CONICAL_SURFACE('',#685,0.0235,0.785398163397448);
#16=CONICAL_SURFACE('',#690,0.023,0.785398163397448);
#17=CONICAL_SURFACE('',#691,0.023,0.785398163397448);
#18=CONICAL_SURFACE('',#694,0.0235,0.785398163397455);
#19=CONICAL_SURFACE('',#698,0.0235,0.785398163397459);
#20=PLANE('',#643);
#21=PLANE('',#653);
#22=PLANE('',#654);
#23=PLANE('',#657);
#24=PLANE('',#660);
#25=PLANE('',#661);
#26=PLANE('',#662);
#27=PLANE('',#665);
#28=PLANE('',#668);
#29=PLANE('',#669);
#30=PLANE('',#670);
#31=PLANE('',#673);
#32=PLANE('',#680);
#33=PLANE('',#681);
#34=PLANE('',#684);
#35=PLANE('',#687);
#36=PLANE('',#688);
#37=PLANE('',#689);
#38=PLANE('',#692);
#39=PLANE('',#693);
#40=PLANE('',#696);
#41=LINE('',#898,#96);
#42=LINE('',#903,#97);
#43=LINE('',#907,#98);
#44=LINE('',#909,#99);
#45=LINE('',#911,#100);
#46=LINE('',#913,#101);
#47=LINE('',#917,#102);
#48=LINE('',#921,#103);
#49=LINE('',#923,#104);
#50=LINE('',#925,#105);
#51=LINE('',#929,#106);
#52=LINE('',#933,#107);
#53=LINE('',#935,#108);
#54=LINE('',#943,#109);
#55=LINE('',#947,#110);
#56=LINE('',#948,#111);
#57=LINE('',#950,#112);
#58=LINE('',#955,#113);
#59=LINE('',#957,#114);
#60=LINE('',#959,#115);
#61=LINE('',#961,#116);
#62=LINE('',#963,#117);
#63=LINE('',#965,#118);
#64=LINE('',#967,#119);
#65=LINE('',#969,#120);
#66=LINE('',#971,#121);
#67=LINE('',#978,#122);
#68=LINE('',#982,#123);
#69=LINE('',#984,#124);
#70=LINE('',#986,#125);
#71=LINE('',#987,#126);
#72=LINE('',#989,#127);
#73=LINE('',#992,#128);
#74=LINE('',#993,#129);
#75=LINE('',#995,#130);
#76=LINE('',#997,#131);
#77=LINE('',#998,#132);
#78=LINE('',#1006,#133);
#79=LINE('',#1008,#134);
#80=LINE('',#1009,#135);
#81=LINE('',#1011,#136);
#82=LINE('',#1014,#137);
#83=LINE('',#1015,#138);
#84=LINE('',#1017,#139);
#85=LINE('',#1019,#140);
#86=LINE('',#1020,#141);
#87=LINE('',#1033,#142);
#88=LINE('',#1035,#143);
#89=LINE('',#1038,#144);
#90=LINE('',#1040,#145);
#91=LINE('',#1044,#146);
#92=LINE('',#1046,#147);
#93=LINE('',#1048,#148);
#94=LINE('',#1050,#149);
#95=LINE('',#1051,#150);
#96=VECTOR('',#715,1.);
#97=VECTOR('',#718,1.);
#98=VECTOR('',#723,1.);
#99=VECTOR('',#724,1.);
#100=VECTOR('',#725,1.);
#101=VECTOR('',#726,1.);
#102=VECTOR('',#729,1.);
#103=VECTOR('',#732,1.);
#104=VECTOR('',#733,1.);
#105=VECTOR('',#734,1.);
#106=VECTOR('',#737,1.);
#107=VECTOR('',#740,1.);
#108=VECTOR('',#741,1.);
#109=VECTOR('',#750,1.);
#110=VECTOR('',#755,1.);
#111=VECTOR('',#756,1.);
#112=VECTOR('',#759,1.);
#113=VECTOR('',#762,1.);
#114=VECTOR('',#763,1.);
#115=VECTOR('',#764,1.);
#116=VECTOR('',#765,1.);
#117=VECTOR('',#766,1.);
#118=VECTOR('',#767,1.);
#119=VECTOR('',#768,1.);
#120=VECTOR('',#769,1.);
#121=VECTOR('',#770,1.);
#122=VECTOR('',#777,1.);
#123=VECTOR('',#780,1.);
#124=VECTOR('',#783,1.);
#125=VECTOR('',#784,1.);
#126=VECTOR('',#785,1.);
#127=VECTOR('',#788,1.);
#128=VECTOR('',#789,1.);
#129=VECTOR('',#790,1.);
#130=VECTOR('',#793,1.);
#131=VECTOR('',#794,1.);
#132=VECTOR('',#795,1.);
#133=VECTOR('',#808,1.);
#134=VECTOR('',#809,1.);
#135=VECTOR('',#810,1.);
#136=VECTOR('',#813,1.);
#137=VECTOR('',#814,1.);
#138=VECTOR('',#815,1.);
#139=VECTOR('',#818,1.);
#140=VECTOR('',#819,1.);
#141=VECTOR('',#820,1.);
#142=VECTOR('',#843,1.);
#143=VECTOR('',#846,1.);
#144=VECTOR('',#851,1.);
#145=VECTOR('',#854,1.);
#146=VECTOR('',#861,1.);
#147=VECTOR('',#862,1.);
#148=VECTOR('',#863,1.);
#149=VECTOR('',#866,1.);
#150=VECTOR('',#867,1.);
#151=ORIENTED_EDGE('',*,*,#317,.T.);
#152=ORIENTED_EDGE('',*,*,#318,.T.);
#153=ORIENTED_EDGE('',*,*,#319,.T.);
#154=ORIENTED_EDGE('',*,*,#320,.T.);
#155=ORIENTED_EDGE('',*,*,#321,.T.);
#156=ORIENTED_EDGE('',*,*,#322,.T.);
#157=ORIENTED_EDGE('',*,*,#323,.F.);
#158=ORIENTED_EDGE('',*,*,#324,.T.);
#159=ORIENTED_EDGE('',*,*,#323,.T.);
#160=ORIENTED_EDGE('',*,*,#325,.T.);
#161=ORIENTED_EDGE('',*,*,#326,.F.);
#162=ORIENTED_EDGE('',*,*,#327,.T.);
#163=ORIENTED_EDGE('',*,*,#328,.F.);
#164=ORIENTED_EDGE('',*,*,#329,.T.);
#165=ORIENTED_EDGE('',*,*,#330,.T.);
#166=ORIENTED_EDGE('',*,*,#331,.T.);
#167=ORIENTED_EDGE('',*,*,#332,.T.);
#168=ORIENTED_EDGE('',*,*,#333,.T.);
#169=ORIENTED_EDGE('',*,*,#334,.F.);
#170=ORIENTED_EDGE('',*,*,#335,.T.);
#171=ORIENTED_EDGE('',*,*,#336,.F.);
#172=ORIENTED_EDGE('',*,*,#337,.T.);
#173=ORIENTED_EDGE('',*,*,#338,.T.);
#174=ORIENTED_EDGE('',*,*,#339,.T.);
#175=ORIENTED_EDGE('',*,*,#340,.T.);
#176=ORIENTED_EDGE('',*,*,#341,.F.);
#177=ORIENTED_EDGE('',*,*,#326,.T.);
#178=ORIENTED_EDGE('',*,*,#342,.T.);
#179=ORIENTED_EDGE('',*,*,#343,.F.);
#180=ORIENTED_EDGE('',*,*,#344,.T.);
#181=ORIENTED_EDGE('',*,*,#343,.T.);
#182=ORIENTED_EDGE('',*,*,#345,.T.);
#183=ORIENTED_EDGE('',*,*,#321,.F.);
#184=ORIENTED_EDGE('',*,*,#346,.T.);
#185=ORIENTED_EDGE('',*,*,#347,.T.);
#186=ORIENTED_EDGE('',*,*,#348,.T.);
#187=ORIENTED_EDGE('',*,*,#349,.T.);
#188=ORIENTED_EDGE('',*,*,#350,.F.);
#189=ORIENTED_EDGE('',*,*,#351,.F.);
#190=ORIENTED_EDGE('',*,*,#352,.T.);
#191=ORIENTED_EDGE('',*,*,#353,.T.);
#192=ORIENTED_EDGE('',*,*,#354,.F.);
#193=ORIENTED_EDGE('',*,*,#355,.F.);
#194=ORIENTED_EDGE('',*,*,#356,.T.);
#195=ORIENTED_EDGE('',*,*,#357,.T.);
#196=ORIENTED_EDGE('',*,*,#358,.T.);
#197=ORIENTED_EDGE('',*,*,#359,.T.);
#198=ORIENTED_EDGE('',*,*,#360,.T.);
#199=ORIENTED_EDGE('',*,*,#361,.T.);
#200=ORIENTED_EDGE('',*,*,#362,.T.);
#201=ORIENTED_EDGE('',*,*,#363,.F.);
#202=ORIENTED_EDGE('',*,*,#364,.T.);
#203=ORIENTED_EDGE('',*,*,#334,.T.);
#204=ORIENTED_EDGE('',*,*,#365,.T.);
#205=ORIENTED_EDGE('',*,*,#352,.F.);
#206=ORIENTED_EDGE('',*,*,#366,.F.);
#207=ORIENTED_EDGE('',*,*,#367,.T.);
#208=ORIENTED_EDGE('',*,*,#336,.T.);
#209=ORIENTED_EDGE('',*,*,#368,.T.);
#210=ORIENTED_EDGE('',*,*,#338,.F.);
#211=ORIENTED_EDGE('',*,*,#369,.T.);
#212=ORIENTED_EDGE('',*,*,#370,.T.);
#213=ORIENTED_EDGE('',*,*,#350,.T.);
#214=ORIENTED_EDGE('',*,*,#371,.T.);
#215=ORIENTED_EDGE('',*,*,#372,.T.);
#216=ORIENTED_EDGE('',*,*,#340,.F.);
#217=ORIENTED_EDGE('',*,*,#370,.F.);
#218=ORIENTED_EDGE('',*,*,#373,.T.);
#219=ORIENTED_EDGE('',*,*,#366,.T.);
#220=ORIENTED_EDGE('',*,*,#374,.T.);
#221=ORIENTED_EDGE('',*,*,#363,.T.);
#222=ORIENTED_EDGE('',*,*,#351,.T.);
#223=ORIENTED_EDGE('',*,*,#372,.F.);
#224=ORIENTED_EDGE('',*,*,#375,.F.);
#225=ORIENTED_EDGE('',*,*,#376,.T.);
#226=ORIENTED_EDGE('',*,*,#328,.T.);
#227=ORIENTED_EDGE('',*,*,#377,.T.);
#228=ORIENTED_EDGE('',*,*,#356,.F.);
#229=ORIENTED_EDGE('',*,*,#378,.T.);
#230=ORIENTED_EDGE('',*,*,#379,.T.);
#231=ORIENTED_EDGE('',*,*,#330,.F.);
#232=ORIENTED_EDGE('',*,*,#380,.T.);
#233=ORIENTED_EDGE('',*,*,#332,.F.);
#234=ORIENTED_EDGE('',*,*,#381,.T.);
#235=ORIENTED_EDGE('',*,*,#382,.T.);
#236=ORIENTED_EDGE('',*,*,#354,.T.);
#237=ORIENTED_EDGE('',*,*,#383,.T.);
#238=ORIENTED_EDGE('',*,*,#384,.F.);
#239=ORIENTED_EDGE('',*,*,#341,.T.);
#240=ORIENTED_EDGE('',*,*,#382,.F.);
#241=ORIENTED_EDGE('',*,*,#385,.T.);
#242=ORIENTED_EDGE('',*,*,#378,.F.);
#243=ORIENTED_EDGE('',*,*,#386,.T.);
#244=ORIENTED_EDGE('',*,*,#375,.T.);
#245=ORIENTED_EDGE('',*,*,#355,.T.);
#246=ORIENTED_EDGE('',*,*,#384,.T.);
#247=ORIENTED_EDGE('',*,*,#373,.F.);
#248=ORIENTED_EDGE('',*,*,#369,.F.);
#249=ORIENTED_EDGE('',*,*,#337,.F.);
#250=ORIENTED_EDGE('',*,*,#367,.F.);
#251=ORIENTED_EDGE('',*,*,#374,.F.);
#252=ORIENTED_EDGE('',*,*,#368,.F.);
#253=ORIENTED_EDGE('',*,*,#335,.F.);
#254=ORIENTED_EDGE('',*,*,#364,.F.);
#255=ORIENTED_EDGE('',*,*,#385,.F.);
#256=ORIENTED_EDGE('',*,*,#381,.F.);
#257=ORIENTED_EDGE('',*,*,#331,.F.);
#258=ORIENTED_EDGE('',*,*,#379,.F.);
#259=ORIENTED_EDGE('',*,*,#386,.F.);
#260=ORIENTED_EDGE('',*,*,#380,.F.);
#261=ORIENTED_EDGE('',*,*,#329,.F.);
#262=ORIENTED_EDGE('',*,*,#376,.F.);
#263=ORIENTED_EDGE('',*,*,#383,.F.);
#264=ORIENTED_EDGE('',*,*,#353,.F.);
#265=ORIENTED_EDGE('',*,*,#365,.F.);
#266=ORIENTED_EDGE('',*,*,#333,.F.);
#267=ORIENTED_EDGE('',*,*,#377,.F.);
#268=ORIENTED_EDGE('',*,*,#327,.F.);
#269=ORIENTED_EDGE('',*,*,#387,.F.);
#270=ORIENTED_EDGE('',*,*,#357,.F.);
#271=ORIENTED_EDGE('',*,*,#387,.T.);
#272=ORIENTED_EDGE('',*,*,#344,.F.);
#273=ORIENTED_EDGE('',*,*,#388,.F.);
#274=ORIENTED_EDGE('',*,*,#389,.F.);
#275=ORIENTED_EDGE('',*,*,#388,.T.);
#276=ORIENTED_EDGE('',*,*,#346,.F.);
#277=ORIENTED_EDGE('',*,*,#390,.F.);
#278=ORIENTED_EDGE('',*,*,#347,.F.);
#279=ORIENTED_EDGE('',*,*,#390,.T.);
#280=ORIENTED_EDGE('',*,*,#324,.F.);
#281=ORIENTED_EDGE('',*,*,#391,.F.);
#282=ORIENTED_EDGE('',*,*,#392,.F.);
#283=ORIENTED_EDGE('',*,*,#371,.F.);
#284=ORIENTED_EDGE('',*,*,#349,.F.);
#285=ORIENTED_EDGE('',*,*,#391,.T.);
#286=ORIENTED_EDGE('',*,*,#339,.F.);
#287=ORIENTED_EDGE('',*,*,#393,.T.);
#288=ORIENTED_EDGE('',*,*,#394,.T.);
#289=ORIENTED_EDGE('',*,*,#395,.T.);
#290=ORIENTED_EDGE('',*,*,#345,.F.);
#291=ORIENTED_EDGE('',*,*,#325,.F.);
#292=ORIENTED_EDGE('',*,*,#396,.T.);
#293=ORIENTED_EDGE('',*,*,#360,.F.);
#294=ORIENTED_EDGE('',*,*,#397,.T.);
#295=ORIENTED_EDGE('',*,*,#348,.F.);
#296=ORIENTED_EDGE('',*,*,#392,.T.);
#297=ORIENTED_EDGE('',*,*,#317,.F.);
#298=ORIENTED_EDGE('',*,*,#389,.T.);
#299=ORIENTED_EDGE('',*,*,#358,.F.);
#300=ORIENTED_EDGE('',*,*,#319,.F.);
#301=ORIENTED_EDGE('',*,*,#320,.F.);
#302=ORIENTED_EDGE('',*,*,#318,.F.);
#303=ORIENTED_EDGE('',*,*,#322,.F.);
#304=ORIENTED_EDGE('',*,*,#395,.F.);
#305=ORIENTED_EDGE('',*,*,#398,.F.);
#306=ORIENTED_EDGE('',*,*,#361,.F.);
#307=ORIENTED_EDGE('',*,*,#396,.F.);
#308=ORIENTED_EDGE('',*,*,#394,.F.);
#309=ORIENTED_EDGE('',*,*,#399,.F.);
#310=ORIENTED_EDGE('',*,*,#362,.F.);
#311=ORIENTED_EDGE('',*,*,#398,.T.);
#312=ORIENTED_EDGE('',*,*,#393,.F.);
#313=ORIENTED_EDGE('',*,*,#342,.F.);
#314=ORIENTED_EDGE('',*,*,#397,.F.);
#315=ORIENTED_EDGE('',*,*,#359,.F.);
#316=ORIENTED_EDGE('',*,*,#399,.T.);
#317=EDGE_CURVE('',#400,#400,#454,.T.);
#318=EDGE_CURVE('',#401,#401,#455,.T.);
#319=EDGE_CURVE('',#402,#402,#456,.T.);
#320=EDGE_CURVE('',#403,#403,#457,.T.);
#321=EDGE_CURVE('',#404,#405,#41,.T.);
#322=EDGE_CURVE('',#405,#406,#458,.T.);
#323=EDGE_CURVE('',#407,#406,#42,.T.);
#324=EDGE_CURVE('',#407,#404,#459,.F.);
#325=EDGE_CURVE('',#406,#408,#43,.T.);
#326=EDGE_CURVE('',#409,#408,#44,.T.);
#327=EDGE_CURVE('',#409,#410,#45,.T.);
#328=EDGE_CURVE('',#411,#410,#46,.T.);
#329=EDGE_CURVE('',#411,#412,#460,.T.);
#330=EDGE_CURVE('',#412,#413,#47,.T.);
#331=EDGE_CURVE('',#413,#414,#461,.T.);
#332=EDGE_CURVE('',#414,#415,#48,.T.);
#333=EDGE_CURVE('',#415,#416,#49,.T.);
#334=EDGE_CURVE('',#417,#416,#50,.T.);
#335=EDGE_CURVE('',#417,#418,#462,.T.);
#336=EDGE_CURVE('',#419,#418,#51,.T.);
#337=EDGE_CURVE('',#419,#420,#463,.T.);
#338=EDGE_CURVE('',#420,#421,#52,.T.);
#339=EDGE_CURVE('',#421,#407,#53,.T.);
#340=EDGE_CURVE('',#422,#422,#464,.T.);
#341=EDGE_CURVE('',#423,#423,#465,.T.);
#342=EDGE_CURVE('',#408,#424,#466,.T.);
#343=EDGE_CURVE('',#425,#424,#54,.T.);
#344=EDGE_CURVE('',#425,#409,#467,.F.);
#345=EDGE_CURVE('',#424,#405,#55,.T.);
#346=EDGE_CURVE('',#404,#425,#56,.T.);
#347=EDGE_CURVE('',#426,#427,#57,.T.);
#348=EDGE_CURVE('',#427,#428,#468,.F.);
#349=EDGE_CURVE('',#428,#429,#58,.T.);
#350=EDGE_CURVE('',#430,#429,#59,.T.);
#351=EDGE_CURVE('',#431,#430,#60,.T.);
#352=EDGE_CURVE('',#431,#432,#61,.T.);
#353=EDGE_CURVE('',#432,#433,#62,.T.);
#354=EDGE_CURVE('',#434,#433,#63,.T.);
#355=EDGE_CURVE('',#435,#434,#64,.T.);
#356=EDGE_CURVE('',#435,#436,#65,.T.);
#357=EDGE_CURVE('',#436,#437,#66,.T.);
#358=EDGE_CURVE('',#437,#426,#469,.F.);
#359=EDGE_CURVE('',#438,#439,#470,.F.);
#360=EDGE_CURVE('',#439,#440,#67,.T.);
#361=EDGE_CURVE('',#440,#441,#471,.F.);
#362=EDGE_CURVE('',#441,#438,#68,.T.);
#363=EDGE_CURVE('',#442,#431,#69,.T.);
#364=EDGE_CURVE('',#442,#417,#70,.T.);
#365=EDGE_CURVE('',#416,#432,#71,.F.);
#366=EDGE_CURVE('',#443,#444,#72,.T.);
#367=EDGE_CURVE('',#443,#419,#73,.T.);
#368=EDGE_CURVE('',#418,#444,#74,.F.);
#369=EDGE_CURVE('',#420,#445,#75,.F.);
#370=EDGE_CURVE('',#445,#430,#76,.T.);
#371=EDGE_CURVE('',#429,#421,#77,.F.);
#372=EDGE_CURVE('',#446,#446,#472,.T.);
#373=EDGE_CURVE('',#445,#443,#473,.F.);
#374=EDGE_CURVE('',#444,#442,#474,.F.);
#375=EDGE_CURVE('',#447,#435,#78,.T.);
#376=EDGE_CURVE('',#447,#411,#79,.T.);
#377=EDGE_CURVE('',#410,#436,#80,.F.);
#378=EDGE_CURVE('',#448,#449,#81,.T.);
#379=EDGE_CURVE('',#449,#413,#82,.T.);
#380=EDGE_CURVE('',#412,#448,#83,.F.);
#381=EDGE_CURVE('',#414,#450,#84,.F.);
#382=EDGE_CURVE('',#450,#434,#85,.T.);
#383=EDGE_CURVE('',#433,#415,#86,.F.);
#384=EDGE_CURVE('',#451,#451,#475,.T.);
#385=EDGE_CURVE('',#450,#449,#476,.F.);
#386=EDGE_CURVE('',#448,#447,#477,.F.);
#387=EDGE_CURVE('',#437,#409,#87,.T.);
#388=EDGE_CURVE('',#426,#425,#88,.T.);
#389=EDGE_CURVE('',#437,#426,#478,.T.);
#390=EDGE_CURVE('',#427,#404,#89,.T.);
#391=EDGE_CURVE('',#428,#407,#90,.T.);
#392=EDGE_CURVE('',#427,#428,#479,.T.);
#393=EDGE_CURVE('',#424,#452,#91,.F.);
#394=EDGE_CURVE('',#452,#453,#92,.F.);
#395=EDGE_CURVE('',#453,#405,#93,.T.);
#396=EDGE_CURVE('',#406,#440,#94,.F.);
#397=EDGE_CURVE('',#439,#408,#95,.T.);
#398=EDGE_CURVE('',#441,#453,#12,.T.);
#399=EDGE_CURVE('',#438,#452,#13,.F.);
#400=VERTEX_POINT('',#889);
#401=VERTEX_POINT('',#891);
#402=VERTEX_POINT('',#894);
#403=VERTEX_POINT('',#896);
#404=VERTEX_POINT('',#899);
#405=VERTEX_POINT('',#900);
#406=VERTEX_POINT('',#902);
#407=VERTEX_POINT('',#904);
#408=VERTEX_POINT('',#908);
#409=VERTEX_POINT('',#910);
#410=VERTEX_POINT('',#912);
#411=VERTEX_POINT('',#914);
#412=VERTEX_POINT('',#916);
#413=VERTEX_POINT('',#918);
#414=VERTEX_POINT('',#920);
#415=VERTEX_POINT('',#922);
#416=VERTEX_POINT('',#924);
#417=VERTEX_POINT('',#926);
#418=VERTEX_POINT('',#928);
#419=VERTEX_POINT('',#930);
#420=VERTEX_POINT('',#932);
#421=VERTEX_POINT('',#934);
#422=VERTEX_POINT('',#937);
#423=VERTEX_POINT('',#939);
#424=VERTEX_POINT('',#942);
#425=VERTEX_POINT('',#944);
#426=VERTEX_POINT('',#951);
#427=VERTEX_POINT('',#952);
#428=VERTEX_POINT('',#954);
#429=VERTEX_POINT('',#956);
#430=VERTEX_POINT('',#958);
#431=VERTEX_POINT('',#960);
#432=VERTEX_POINT('',#962);
#433=VERTEX_POINT('',#964);
#434=VERTEX_POINT('',#966);
#435=VERTEX_POINT('',#968);
#436=VERTEX_POINT('',#970);
#437=VERTEX_POINT('',#972);
#438=VERTEX_POINT('',#976);
#439=VERTEX_POINT('',#977);
#440=VERTEX_POINT('',#979);
#441=VERTEX_POINT('',#981);
#442=VERTEX_POINT('',#985);
#443=VERTEX_POINT('',#990);
#444=VERTEX_POINT('',#991);
#445=VERTEX_POINT('',#996);
#446=VERTEX_POINT('',#1001);
#447=VERTEX_POINT('',#1007);
#448=VERTEX_POINT('',#1012);
#449=VERTEX_POINT('',#1013);
#450=VERTEX_POINT('',#1018);
#451=VERTEX_POINT('',#1023);
#452=VERTEX_POINT('',#1045);
#453=VERTEX_POINT('',#1047);
#454=CIRCLE('',#635,0.023);
#455=CIRCLE('',#636,0.023);
#456=CIRCLE('',#638,0.023);
#457=CIRCLE('',#639,0.023);
#458=CIRCLE('',#641,0.024);
#459=CIRCLE('',#642,0.024);
#460=CIRCLE('',#644,0.0015);
#461=CIRCLE('',#645,0.0015);
#462=CIRCLE('',#646,0.0015);
#463=CIRCLE('',#647,0.0015);
#464=CIRCLE('',#648,0.0015);
#465=CIRCLE('',#649,0.0015);
#466=CIRCLE('',#651,0.024);
#467=CIRCLE('',#652,0.024);
#468=CIRCLE('',#655,0.0235);
#469=CIRCLE('',#656,0.0235);
#470=CIRCLE('',#658,0.0235);
#471=CIRCLE('',#659,0.0235);
#472=CIRCLE('',#664,0.0015);
#473=CIRCLE('',#666,0.0015);
#474=CIRCLE('',#667,0.0015);
#475=CIRCLE('',#672,0.0015);
#476=CIRCLE('',#674,0.0015);
#477=CIRCLE('',#675,0.0015);
#478=CIRCLE('',#683,0.0235);
#479=CIRCLE('',#686,0.0235);
#480=EDGE_LOOP('',(#151));
#481=EDGE_LOOP('',(#152));
#482=EDGE_LOOP('',(#153));
#483=EDGE_LOOP('',(#154));
#484=EDGE_LOOP('',(#155,#156,#157,#158));
#485=EDGE_LOOP('',(#159,#160,#161,#162,#163,#164,#165,#166,#167,#168,#169,
#170,#171,#172,#173,#174));
#486=EDGE_LOOP('',(#175));
#487=EDGE_LOOP('',(#176));
#488=EDGE_LOOP('',(#177,#178,#179,#180));
#489=EDGE_LOOP('',(#181,#182,#183,#184));
#490=EDGE_LOOP('',(#185,#186,#187,#188,#189,#190,#191,#192,#193,#194,#195,
#196));
#491=EDGE_LOOP('',(#197,#198,#199,#200));
#492=EDGE_LOOP('',(#201,#202,#203,#204,#205));
#493=EDGE_LOOP('',(#206,#207,#208,#209));
#494=EDGE_LOOP('',(#210,#211,#212,#213,#214));
#495=EDGE_LOOP('',(#215));
#496=EDGE_LOOP('',(#216));
#497=EDGE_LOOP('',(#217,#218,#219,#220,#221,#222));
#498=EDGE_LOOP('',(#223));
#499=EDGE_LOOP('',(#224,#225,#226,#227,#228));
#500=EDGE_LOOP('',(#229,#230,#231,#232));
#501=EDGE_LOOP('',(#233,#234,#235,#236,#237));
#502=EDGE_LOOP('',(#238));
#503=EDGE_LOOP('',(#239));
#504=EDGE_LOOP('',(#240,#241,#242,#243,#244,#245));
#505=EDGE_LOOP('',(#246));
#506=EDGE_LOOP('',(#247,#248,#249,#250));
#507=EDGE_LOOP('',(#251,#252,#253,#254));
#508=EDGE_LOOP('',(#255,#256,#257,#258));
#509=EDGE_LOOP('',(#259,#260,#261,#262));
#510=EDGE_LOOP('',(#263,#264,#265,#266));
#511=EDGE_LOOP('',(#267,#268,#269,#270));
#512=EDGE_LOOP('',(#271,#272,#273,#274));
#513=EDGE_LOOP('',(#275,#276,#277,#278));
#514=EDGE_LOOP('',(#279,#280,#281,#282));
#515=EDGE_LOOP('',(#283,#284,#285,#286));
#516=EDGE_LOOP('',(#287,#288,#289,#290));
#517=EDGE_LOOP('',(#291,#292,#293,#294));
#518=EDGE_LOOP('',(#295,#296));
#519=EDGE_LOOP('',(#297));
#520=EDGE_LOOP('',(#298,#299));
#521=EDGE_LOOP('',(#300));
#522=EDGE_LOOP('',(#301));
#523=EDGE_LOOP('',(#302));
#524=EDGE_LOOP('',(#303,#304,#305,#306,#307));
#525=EDGE_LOOP('',(#308,#309,#310,#311));
#526=EDGE_LOOP('',(#312,#313,#314,#315,#316));
#527=FACE_BOUND('',#480,.T.);
#528=FACE_BOUND('',#481,.T.);
#529=FACE_BOUND('',#482,.T.);
#530=FACE_BOUND('',#483,.T.);
#531=FACE_BOUND('',#484,.T.);
#532=FACE_BOUND('',#485,.T.);
#533=FACE_BOUND('',#486,.T.);
#534=FACE_BOUND('',#487,.T.);
#535=FACE_BOUND('',#488,.T.);
#536=FACE_BOUND('',#489,.T.);
#537=FACE_BOUND('',#490,.T.);
#538=FACE_BOUND('',#491,.T.);
#539=FACE_BOUND('',#492,.T.);
#540=FACE_BOUND('',#493,.T.);
#541=FACE_BOUND('',#494,.T.);
#542=FACE_BOUND('',#495,.T.);
#543=FACE_BOUND('',#496,.T.);
#544=FACE_BOUND('',#497,.T.);
#545=FACE_BOUND('',#498,.T.);
#546=FACE_BOUND('',#499,.T.);
#547=FACE_BOUND('',#500,.T.);
#548=FACE_BOUND('',#501,.T.);
#549=FACE_BOUND('',#502,.T.);
#550=FACE_BOUND('',#503,.T.);
#551=FACE_BOUND('',#504,.T.);
#552=FACE_BOUND('',#505,.T.);
#553=FACE_BOUND('',#506,.T.);
#554=FACE_BOUND('',#507,.T.);
#555=FACE_BOUND('',#508,.T.);
#556=FACE_BOUND('',#509,.T.);
#557=FACE_BOUND('',#510,.T.);
#558=FACE_BOUND('',#511,.T.);
#559=FACE_BOUND('',#512,.T.);
#560=FACE_BOUND('',#513,.T.);
#561=FACE_BOUND('',#514,.T.);
#562=FACE_BOUND('',#515,.T.);
#563=FACE_BOUND('',#516,.T.);
#564=FACE_BOUND('',#517,.T.);
#565=FACE_BOUND('',#518,.T.);
#566=FACE_BOUND('',#519,.T.);
#567=FACE_BOUND('',#520,.T.);
#568=FACE_BOUND('',#521,.T.);
#569=FACE_BOUND('',#522,.T.);
#570=FACE_BOUND('',#523,.T.);
#571=FACE_BOUND('',#524,.T.);
#572=FACE_BOUND('',#525,.T.);
#573=FACE_BOUND('',#526,.T.);
#574=CYLINDRICAL_SURFACE('',#634,0.023);
#575=CYLINDRICAL_SURFACE('',#637,0.023);
#576=CYLINDRICAL_SURFACE('',#640,0.024);
#577=CYLINDRICAL_SURFACE('',#650,0.024);
#578=CYLINDRICAL_SURFACE('',#663,0.0015);
#579=CYLINDRICAL_SURFACE('',#671,0.0015);
#580=CYLINDRICAL_SURFACE('',#676,0.0015);
#581=CYLINDRICAL_SURFACE('',#677,0.0015);
#582=CYLINDRICAL_SURFACE('',#678,0.0015);
#583=CYLINDRICAL_SURFACE('',#679,0.0015);
#584=ADVANCED_FACE('',(#527,#528),#574,.F.);
#585=ADVANCED_FACE('',(#529,#530),#575,.F.);
#586=ADVANCED_FACE('',(#531),#576,.T.);
#587=ADVANCED_FACE('',(#532,#533,#534),#20,.T.);
#588=ADVANCED_FACE('',(#535),#577,.T.);
#589=ADVANCED_FACE('',(#536),#21,.F.);
#590=ADVANCED_FACE('',(#537),#22,.T.);
#591=ADVANCED_FACE('',(#538),#23,.F.);
#592=ADVANCED_FACE('',(#539),#24,.F.);
#593=ADVANCED_FACE('',(#540),#25,.F.);
#594=ADVANCED_FACE('',(#541),#26,.T.);
#595=ADVANCED_FACE('',(#542,#543),#578,.F.);
#596=ADVANCED_FACE('',(#544,#545),#27,.F.);
#597=ADVANCED_FACE('',(#546),#28,.F.);
#598=ADVANCED_FACE('',(#547),#29,.T.);
#599=ADVANCED_FACE('',(#548),#30,.T.);
#600=ADVANCED_FACE('',(#549,#550),#579,.F.);
#601=ADVANCED_FACE('',(#551,#552),#31,.F.);
#602=ADVANCED_FACE('',(#553),#580,.T.);
#603=ADVANCED_FACE('',(#554),#581,.T.);
#604=ADVANCED_FACE('',(#555),#582,.T.);
#605=ADVANCED_FACE('',(#556),#583,.T.);
#606=ADVANCED_FACE('',(#557),#32,.F.);
#607=ADVANCED_FACE('',(#558),#33,.F.);
#608=ADVANCED_FACE('',(#559),#14,.T.);
#609=ADVANCED_FACE('',(#560),#34,.T.);
#610=ADVANCED_FACE('',(#561),#15,.T.);
#611=ADVANCED_FACE('',(#562),#35,.F.);
#612=ADVANCED_FACE('',(#563),#36,.F.);
#613=ADVANCED_FACE('',(#564),#37,.T.);
#614=ADVANCED_FACE('',(#565,#566),#16,.F.);
#615=ADVANCED_FACE('',(#567,#568),#17,.F.);
#616=ADVANCED_FACE('',(#569),#38,.F.);
#617=ADVANCED_FACE('',(#570),#39,.F.);
#618=ADVANCED_FACE('',(#571),#18,.T.);
#619=ADVANCED_FACE('',(#572),#40,.F.);
#620=ADVANCED_FACE('',(#573),#19,.T.);
#621=CLOSED_SHELL('',(#584,#585,#586,#587,#588,#589,#590,#591,#592,#593,
#594,#595,#596,#597,#598,#599,#600,#601,#602,#603,#604,#605,#606,#607,#608,
#609,#610,#611,#612,#613,#614,#615,#616,#617,#618,#619,#620));
#622=STYLED_ITEM('',(#623),#630);
#623=PRESENTATION_STYLE_ASSIGNMENT((#624));
#624=SURFACE_STYLE_USAGE(.BOTH.,#625);
#625=SURFACE_SIDE_STYLE('',(#626));
#626=SURFACE_STYLE_FILL_AREA(#627);
#627=FILL_AREA_STYLE('',(#628));
#628=FILL_AREA_STYLE_COLOUR('',#629);
#629=COLOUR_RGB('',0.615686274509804,0.811764705882353,0.929411764705882);
#630=MANIFOLD_SOLID_BREP('Part 1',#621);
#631=SHAPE_DEFINITION_REPRESENTATION(#1067,#632);
#632=SHAPE_REPRESENTATION('Part 1',(#633),#1062);
#633=AXIS2_PLACEMENT_3D('',#886,#699,#700);
#634=AXIS2_PLACEMENT_3D('',#887,#701,#702);
#635=AXIS2_PLACEMENT_3D('',#888,#703,#704);
#636=AXIS2_PLACEMENT_3D('',#890,#705,#706);
#637=AXIS2_PLACEMENT_3D('',#892,#707,#708);
#638=AXIS2_PLACEMENT_3D('',#893,#709,#710);
#639=AXIS2_PLACEMENT_3D('',#895,#711,#712);
#640=AXIS2_PLACEMENT_3D('',#897,#713,#714);
#641=AXIS2_PLACEMENT_3D('',#901,#716,#717);
#642=AXIS2_PLACEMENT_3D('',#905,#719,#720);
#643=AXIS2_PLACEMENT_3D('',#906,#721,#722);
#644=AXIS2_PLACEMENT_3D('',#915,#727,#728);
#645=AXIS2_PLACEMENT_3D('',#919,#730,#731);
#646=AXIS2_PLACEMENT_3D('',#927,#735,#736);
#647=AXIS2_PLACEMENT_3D('',#931,#738,#739);
#648=AXIS2_PLACEMENT_3D('',#936,#742,#743);
#649=AXIS2_PLACEMENT_3D('',#938,#744,#745);
#650=AXIS2_PLACEMENT_3D('',#940,#746,#747);
#651=AXIS2_PLACEMENT_3D('',#941,#748,#749);
#652=AXIS2_PLACEMENT_3D('',#945,#751,#752);
#653=AXIS2_PLACEMENT_3D('',#946,#753,#754);
#654=AXIS2_PLACEMENT_3D('',#949,#757,#758);
#655=AXIS2_PLACEMENT_3D('',#953,#760,#761);
#656=AXIS2_PLACEMENT_3D('',#973,#771,#772);
#657=AXIS2_PLACEMENT_3D('',#974,#773,#774);
#658=AXIS2_PLACEMENT_3D('',#975,#775,#776);
#659=AXIS2_PLACEMENT_3D('',#980,#778,#779);
#660=AXIS2_PLACEMENT_3D('',#983,#781,#782);
#661=AXIS2_PLACEMENT_3D('',#988,#786,#787);
#662=AXIS2_PLACEMENT_3D('',#994,#791,#792);
#663=AXIS2_PLACEMENT_3D('',#999,#796,#797);
#664=AXIS2_PLACEMENT_3D('',#1000,#798,#799);
#665=AXIS2_PLACEMENT_3D('',#1002,#800,#801);
#666=AXIS2_PLACEMENT_3D('',#1003,#802,#803);
#667=AXIS2_PLACEMENT_3D('',#1004,#804,#805);
#668=AXIS2_PLACEMENT_3D('',#1005,#806,#807);
#669=AXIS2_PLACEMENT_3D('',#1010,#811,#812);
#670=AXIS2_PLACEMENT_3D('',#1016,#816,#817);
#671=AXIS2_PLACEMENT_3D('',#1021,#821,#822);
#672=AXIS2_PLACEMENT_3D('',#1022,#823,#824);
#673=AXIS2_PLACEMENT_3D('',#1024,#825,#826);
#674=AXIS2_PLACEMENT_3D('',#1025,#827,#828);
#675=AXIS2_PLACEMENT_3D('',#1026,#829,#830);
#676=AXIS2_PLACEMENT_3D('',#1027,#831,#832);
#677=AXIS2_PLACEMENT_3D('',#1028,#833,#834);
#678=AXIS2_PLACEMENT_3D('',#1029,#835,#836);
#679=AXIS2_PLACEMENT_3D('',#1030,#837,#838);
#680=AXIS2_PLACEMENT_3D('',#1031,#839,#840);
#681=AXIS2_PLACEMENT_3D('',#1032,#841,#842);
#682=AXIS2_PLACEMENT_3D('',#1034,#844,#845);
#683=AXIS2_PLACEMENT_3D('',#1036,#847,#848);
#684=AXIS2_PLACEMENT_3D('',#1037,#849,#850);
#685=AXIS2_PLACEMENT_3D('',#1039,#852,#853);
#686=AXIS2_PLACEMENT_3D('',#1041,#855,#856);
#687=AXIS2_PLACEMENT_3D('',#1042,#857,#858);
#688=AXIS2_PLACEMENT_3D('',#1043,#859,#860);
#689=AXIS2_PLACEMENT_3D('',#1049,#864,#865);
#690=AXIS2_PLACEMENT_3D('',#1052,#868,#869);
#691=AXIS2_PLACEMENT_3D('',#1053,#870,#871);
#692=AXIS2_PLACEMENT_3D('',#1054,#872,#873);
#693=AXIS2_PLACEMENT_3D('',#1055,#874,#875);
#694=AXIS2_PLACEMENT_3D('',#1056,#876,#877);
#695=AXIS2_PLACEMENT_3D('',#1057,#878,#879);
#696=AXIS2_PLACEMENT_3D('',#1058,#880,#881);
#697=AXIS2_PLACEMENT_3D('',#1059,#882,#883);
#698=AXIS2_PLACEMENT_3D('',#1060,#884,#885);
#699=DIRECTION('',(0.,0.,1.));
#700=DIRECTION('',(1.,0.,0.));
#701=DIRECTION('',(0.,0.,-1.));
#702=DIRECTION('',(-1.,0.,0.));
#703=DIRECTION('',(0.,0.,1.));
#704=DIRECTION('',(1.,0.,0.));
#705=DIRECTION('',(0.,0.,-1.));
#706=DIRECTION('',(-1.,0.,0.));
#707=DIRECTION('',(0.,0.,-1.));
#708=DIRECTION('',(-1.,0.,0.));
#709=DIRECTION('',(0.,0.,1.));
#710=DIRECTION('',(1.,0.,0.));
#711=DIRECTION('',(0.,0.,-1.));
#712=DIRECTION('',(-1.,0.,0.));
#713=DIRECTION('',(0.,0.,-1.));
#714=DIRECTION('',(-1.,0.,0.));
#715=DIRECTION('',(0.,0.,-1.));
#716=DIRECTION('',(0.,0.,1.));
#717=DIRECTION('',(1.,0.,0.));
#718=DIRECTION('',(0.,0.,-1.));
#719=DIRECTION('',(0.,0.,1.));
#720=DIRECTION('',(1.,0.,0.));
#721=DIRECTION('',(0.,-1.,0.));
#722=DIRECTION('',(0.,0.,-1.));
#723=DIRECTION('',(1.,0.,0.));
#724=DIRECTION('',(0.,0.,-1.));
#725=DIRECTION('',(-1.,0.,0.));
#726=DIRECTION('',(-1.84314369322536E-16,0.,-1.));
#727=DIRECTION('',(0.,-1.,0.));
#728=DIRECTION('',(0.,0.,-1.));
#729=DIRECTION('',(-1.,0.,0.));
#730=DIRECTION('',(0.,-1.,0.));
#731=DIRECTION('',(0.,0.,-1.));
#732=DIRECTION('',(-1.7347234759768E-16,0.,-1.));
#733=DIRECTION('',(-1.,0.,0.));
#734=DIRECTION('',(0.,0.,-1.));
#735=DIRECTION('',(0.,-1.,0.));
#736=DIRECTION('',(0.,0.,-1.));
#737=DIRECTION('',(1.,0.,0.));
#738=DIRECTION('',(0.,-1.,0.));
#739=DIRECTION('',(0.,0.,-1.));
#740=DIRECTION('',(0.,0.,-1.));
#741=DIRECTION('',(-1.,0.,0.));
#742=DIRECTION('',(0.,1.,0.));
#743=DIRECTION('',(0.,0.,-1.));
#744=DIRECTION('',(0.,-1.,0.));
#745=DIRECTION('',(0.,0.,-1.));
#746=DIRECTION('',(0.,0.,-1.));
#747=DIRECTION('',(-1.,0.,0.));
#748=DIRECTION('',(0.,0.,1.));
#749=DIRECTION('',(1.,0.,0.));
#750=DIRECTION('',(0.,0.,-1.));
#751=DIRECTION('',(0.,0.,1.));
#752=DIRECTION('',(1.,0.,0.));
#753=DIRECTION('',(0.,-1.,0.));
#754=DIRECTION('',(0.,0.,-1.));
#755=DIRECTION('',(-1.,0.,0.));
#756=DIRECTION('',(1.,0.,0.));
#757=DIRECTION('',(0.,0.,1.));
#758=DIRECTION('',(1.,0.,0.));
#759=DIRECTION('',(-1.,0.,0.));
#760=DIRECTION('',(0.,0.,1.));
#761=DIRECTION('',(1.,0.,0.));
#762=DIRECTION('',(1.,0.,0.));
#763=DIRECTION('',(0.,-1.,0.));
#764=DIRECTION('',(-1.,0.,0.));
#765=DIRECTION('',(0.,-1.,0.));
#766=DIRECTION('',(1.,0.,0.));
#767=DIRECTION('',(0.,-1.,0.));
#768=DIRECTION('',(-1.,0.,0.));
#769=DIRECTION('',(0.,-1.,0.));
#770=DIRECTION('',(1.,0.,0.));
#771=DIRECTION('',(0.,0.,1.));
#772=DIRECTION('',(1.,0.,0.));
#773=DIRECTION('',(0.,0.,1.));
#774=DIRECTION('',(1.,0.,0.));
#775=DIRECTION('',(0.,0.,1.));
#776=DIRECTION('',(1.,0.,0.));
#777=DIRECTION('',(-1.,0.,0.));
#778=DIRECTION('',(0.,0.,1.));
#779=DIRECTION('',(1.,0.,0.));
#780=DIRECTION('',(1.,0.,0.));
#781=DIRECTION('',(-1.,0.,0.));
#782=DIRECTION('',(0.,0.,1.));
#783=DIRECTION('',(0.,0.,-1.));
#784=DIRECTION('',(0.,-1.,0.));
#785=DIRECTION('',(0.,-0.707106781186548,-0.707106781186548));
#786=DIRECTION('',(0.,0.,-1.));
#787=DIRECTION('',(-1.,0.,0.));
#788=DIRECTION('',(1.,0.,0.));
#789=DIRECTION('',(0.,-1.,0.));
#790=DIRECTION('',(0.,-1.,0.));
#791=DIRECTION('',(-1.,0.,0.));
#792=DIRECTION('',(0.,0.,1.));
#793=DIRECTION('',(0.,-1.,0.));
#794=DIRECTION('',(0.,0.,-1.));
#795=DIRECTION('',(0.,0.707106781186548,0.707106781186548));
#796=DIRECTION('',(0.,-1.,0.));
#797=DIRECTION('',(0.,0.,-1.));
#798=DIRECTION('',(0.,1.,0.));
#799=DIRECTION('',(0.,0.,-1.));
#800=DIRECTION('',(0.,-1.,0.));
#801=DIRECTION('',(1.,0.,0.));
#802=DIRECTION('',(0.,-1.,0.));
#803=DIRECTION('',(0.,0.,-1.));
#804=DIRECTION('',(0.,-1.,0.));
#805=DIRECTION('',(0.,0.,-1.));
#806=DIRECTION('',(-1.,0.,1.84314369322536E-16));
#807=DIRECTION('',(1.84314369322536E-16,0.,1.));
#808=DIRECTION('',(-1.84314369322536E-16,0.,-1.));
#809=DIRECTION('',(0.,-1.,0.));
#810=DIRECTION('',(-1.30329940418087E-16,-0.707106781186548,-0.707106781186548));
#811=DIRECTION('',(0.,0.,1.));
#812=DIRECTION('',(1.,0.,0.));
#813=DIRECTION('',(-1.,0.,0.));
#814=DIRECTION('',(0.,-1.,0.));
#815=DIRECTION('',(0.,-1.,0.));
#816=DIRECTION('',(-1.,0.,1.7347234759768E-16));
#817=DIRECTION('',(1.7347234759768E-16,0.,1.));
#818=DIRECTION('',(0.,-1.,0.));
#819=DIRECTION('',(-1.7347234759768E-16,0.,-1.));
#820=DIRECTION('',(1.2266347333467E-16,0.707106781186548,0.707106781186548));
#821=DIRECTION('',(0.,-1.,0.));
#822=DIRECTION('',(0.,0.,-1.));
#823=DIRECTION('',(0.,-1.,0.));
#824=DIRECTION('',(0.,0.,-1.));
#825=DIRECTION('',(0.,-1.,0.));
#826=DIRECTION('',(1.,0.,0.));
#827=DIRECTION('',(0.,-1.,0.));
#828=DIRECTION('',(0.,0.,-1.));
#829=DIRECTION('',(0.,-1.,0.));
#830=DIRECTION('',(0.,0.,-1.));
#831=DIRECTION('',(0.,1.,0.));
#832=DIRECTION('',(0.,0.,1.));
#833=DIRECTION('',(0.,-1.,0.));
#834=DIRECTION('',(0.,0.,-1.));
#835=DIRECTION('',(0.,-1.,0.));
#836=DIRECTION('',(0.,0.,-1.));
#837=DIRECTION('',(0.,1.,0.));
#838=DIRECTION('',(0.,0.,1.));
#839=DIRECTION('',(0.,0.707106781186548,-0.707106781186548));
#840=DIRECTION('',(-1.,0.,0.));
#841=DIRECTION('',(0.,0.707106781186548,-0.707106781186548));
#842=DIRECTION('',(-1.,0.,0.));
#843=DIRECTION('',(0.,-0.707106781186548,-0.707106781186548));
#844=DIRECTION('',(0.,0.,-1.));
#845=DIRECTION('',(-1.,0.,0.));
#846=DIRECTION('',(0.,0.707106781186548,-0.707106781186548));
#847=DIRECTION('',(0.,0.,1.));
#848=DIRECTION('',(1.,0.,0.));
#849=DIRECTION('',(0.,0.707106781186548,0.707106781186548));
#850=DIRECTION('',(1.,0.,0.));
#851=DIRECTION('',(0.,0.707106781186548,-0.707106781186548));
#852=DIRECTION('',(0.,0.,-1.));
#853=DIRECTION('',(-1.,0.,0.));
#854=DIRECTION('',(0.,-0.707106781186548,-0.707106781186548));
#855=DIRECTION('',(0.,0.,1.));
#856=DIRECTION('',(1.,0.,0.));
#857=DIRECTION('',(0.,0.707106781186548,-0.707106781186548));
#858=DIRECTION('',(-1.,0.,0.));
#859=DIRECTION('',(0.,-0.707106781186548,0.707106781186548));
#860=DIRECTION('',(-1.,0.,0.));
#861=DIRECTION('',(0.,0.707106781186548,0.707106781186548));
#862=DIRECTION('',(1.,0.,0.));
#863=DIRECTION('',(0.,0.707106781186548,0.707106781186548));
#864=DIRECTION('',(0.,-0.707106781186548,-0.707106781186548));
#865=DIRECTION('',(1.,0.,0.));
#866=DIRECTION('',(0.,-0.707106781186548,0.707106781186548));
#867=DIRECTION('',(0.,-0.707106781186548,0.707106781186548));
#868=DIRECTION('',(0.,0.,1.));
#869=DIRECTION('',(1.,0.,0.));
#870=DIRECTION('',(0.,0.,1.));
#871=DIRECTION('',(1.,0.,0.));
#872=DIRECTION('',(0.,0.,-1.));
#873=DIRECTION('',(1.,0.,0.));
#874=DIRECTION('',(0.,0.,-1.));
#875=DIRECTION('',(1.,0.,0.));
#876=DIRECTION('',(0.,0.,1.));
#877=DIRECTION('',(1.,0.,0.));
#878=DIRECTION('',(0.,-0.382683432365073,0.923879532511294));
#879=DIRECTION('',(0.,0.923879532511294,0.382683432365073));
#880=DIRECTION('',(0.,-0.382683432365073,0.923879532511294));
#881=DIRECTION('',(1.,0.,0.));
#882=DIRECTION('',(0.,-0.382683432365073,0.923879532511294));
#883=DIRECTION('',(0.,0.923879532511294,0.382683432365073));
#884=DIRECTION('',(0.,0.,1.));
#885=DIRECTION('',(1.,0.,0.));
#886=CARTESIAN_POINT('',(0.,0.,0.));
#887=CARTESIAN_POINT('',(-0.038,1.40834381901946E-18,0.018));
#888=CARTESIAN_POINT('',(-0.038,1.40834381901946E-18,0.0175));
#889=CARTESIAN_POINT('',(-0.015,1.40834381901946E-18,0.0175));
#890=CARTESIAN_POINT('',(-0.038,1.40834381901946E-18,0.002));
#891=CARTESIAN_POINT('',(-0.061,1.40834381901946E-18,0.002));
#892=CARTESIAN_POINT('',(0.01,1.40834381901946E-18,0.018));
#893=CARTESIAN_POINT('',(0.01,1.40834381901946E-18,0.0175));
#894=CARTESIAN_POINT('',(0.033,1.40834381901946E-18,0.0175));
#895=CARTESIAN_POINT('',(0.01,1.40834381901946E-18,0.002));
#896=CARTESIAN_POINT('',(-0.013,1.40834381901946E-18,0.002));
#897=CARTESIAN_POINT('',(-0.038,0.,0.018));
#898=CARTESIAN_POINT('',(-0.038,0.024,0.018));
#899=CARTESIAN_POINT('',(-0.038,0.024,0.0175));
#900=CARTESIAN_POINT('',(-0.038,0.024,0.0005));
#901=CARTESIAN_POINT('',(-0.038,0.,0.0005));
#902=CARTESIAN_POINT('',(-0.038,-0.024,0.0005));
#903=CARTESIAN_POINT('',(-0.038,-0.024,0.018));
#904=CARTESIAN_POINT('',(-0.038,-0.024,0.0175));
#905=CARTESIAN_POINT('',(-0.038,0.,0.0175));
#906=CARTESIAN_POINT('',(-0.014,-0.024,0.018));
#907=CARTESIAN_POINT('',(0.01,-0.024,0.0005));
#908=CARTESIAN_POINT('',(0.01,-0.024,0.0005));
#909=CARTESIAN_POINT('',(0.01,-0.024,0.018));
#910=CARTESIAN_POINT('',(0.01,-0.024,0.0175));
#911=CARTESIAN_POINT('',(-0.014,-0.024,0.0175));
#912=CARTESIAN_POINT('',(-0.0002,-0.024,0.0175));
#913=CARTESIAN_POINT('',(-0.0002,-0.024,0.018));
#914=CARTESIAN_POINT('',(-0.0002,-0.024,0.0215));
#915=CARTESIAN_POINT('',(-0.0017,-0.024,0.0215));
#916=CARTESIAN_POINT('',(-0.0017,-0.024,0.023));
#917=CARTESIAN_POINT('',(-0.002,-0.024,0.023));
#918=CARTESIAN_POINT('',(-0.0023,-0.024,0.023));
#919=CARTESIAN_POINT('',(-0.0023,-0.024,0.0215));
#920=CARTESIAN_POINT('',(-0.0038,-0.024,0.0215));
#921=CARTESIAN_POINT('',(-0.0038,-0.024,0.018));
#922=CARTESIAN_POINT('',(-0.0038,-0.024,0.0175));
#923=CARTESIAN_POINT('',(-0.014,-0.024,0.0175));
#924=CARTESIAN_POINT('',(-0.0242,-0.024,0.0175));
#925=CARTESIAN_POINT('',(-0.0242,-0.024,0.018));
#926=CARTESIAN_POINT('',(-0.0242,-0.024,0.0215));
#927=CARTESIAN_POINT('',(-0.0257,-0.024,0.0215));
#928=CARTESIAN_POINT('',(-0.0257,-0.024,0.023));
#929=CARTESIAN_POINT('',(-0.026,-0.024,0.023));
#930=CARTESIAN_POINT('',(-0.0263,-0.024,0.023));
#931=CARTESIAN_POINT('',(-0.0263,-0.024,0.0215));
#932=CARTESIAN_POINT('',(-0.0278,-0.024,0.0215));
#933=CARTESIAN_POINT('',(-0.0278,-0.024,0.018));
#934=CARTESIAN_POINT('',(-0.0278,-0.024,0.0175));
#935=CARTESIAN_POINT('',(-0.014,-0.024,0.0175));
#936=CARTESIAN_POINT('',(-0.026,-0.024,0.021));
#937=CARTESIAN_POINT('',(-0.026,-0.024,0.0195));
#938=CARTESIAN_POINT('',(-0.002,-0.024,0.021));
#939=CARTESIAN_POINT('',(-0.002,-0.024,0.0195));
#940=CARTESIAN_POINT('',(0.01,0.,0.018));
#941=CARTESIAN_POINT('',(0.01,0.,0.0005));
#942=CARTESIAN_POINT('',(0.01,0.024,0.0005));
#943=CARTESIAN_POINT('',(0.01,0.024,0.018));
#944=CARTESIAN_POINT('',(0.01,0.024,0.0175));
#945=CARTESIAN_POINT('',(0.01,0.,0.0175));
#946=CARTESIAN_POINT('',(-0.014,0.024,0.018));
#947=CARTESIAN_POINT('',(-0.014,0.024,0.0005));
#948=CARTESIAN_POINT('',(0.01,0.024,0.0175));
#949=CARTESIAN_POINT('',(-0.014,0.,0.018));
#950=CARTESIAN_POINT('',(-0.038,0.0235,0.018));
#951=CARTESIAN_POINT('',(0.01,0.0235,0.018));
#952=CARTESIAN_POINT('',(-0.038,0.0235,0.018));
#953=CARTESIAN_POINT('',(-0.038,1.40834381901946E-18,0.018));
#954=CARTESIAN_POINT('',(-0.038,-0.0235,0.018));
#955=CARTESIAN_POINT('',(-0.014,-0.0235,0.018));
#956=CARTESIAN_POINT('',(-0.0278,-0.0235,0.018));
#957=CARTESIAN_POINT('',(-0.0278,-0.022,0.018));
#958=CARTESIAN_POINT('',(-0.0278,-0.022,0.018));
#959=CARTESIAN_POINT('',(-0.014,-0.022,0.018));
#960=CARTESIAN_POINT('',(-0.0242,-0.022,0.018));
#961=CARTESIAN_POINT('',(-0.0242,-0.022,0.018));
#962=CARTESIAN_POINT('',(-0.0242,-0.0235,0.018));
#963=CARTESIAN_POINT('',(-0.014,-0.0235,0.018));
#964=CARTESIAN_POINT('',(-0.0038,-0.0235,0.018));
#965=CARTESIAN_POINT('',(-0.0038,-0.022,0.018));
#966=CARTESIAN_POINT('',(-0.0038,-0.022,0.018));
#967=CARTESIAN_POINT('',(-0.014,-0.022,0.018));
#968=CARTESIAN_POINT('',(-0.0002,-0.022,0.018));
#969=CARTESIAN_POINT('',(-0.0002,-0.022,0.018));
#970=CARTESIAN_POINT('',(-0.0002,-0.0235,0.018));
#971=CARTESIAN_POINT('',(-0.014,-0.0235,0.018));
#972=CARTESIAN_POINT('',(0.01,-0.0235,0.018));
#973=CARTESIAN_POINT('',(0.01,1.40834381901946E-18,0.018));
#974=CARTESIAN_POINT('',(-0.014,0.,0.));
#975=CARTESIAN_POINT('',(0.01,0.,0.));
#976=CARTESIAN_POINT('',(0.00688694274113786,0.0232928932188135,0.));
#977=CARTESIAN_POINT('',(0.01,-0.0235,0.));
#978=CARTESIAN_POINT('',(-0.038,-0.0235,0.));
#979=CARTESIAN_POINT('',(-0.038,-0.0235,0.));
#980=CARTESIAN_POINT('',(-0.038,0.,0.));
#981=CARTESIAN_POINT('',(-0.0348869427411378,0.0232928932188135,0.));
#982=CARTESIAN_POINT('',(0.00512660282759552,0.0232928932188135,0.));
#983=CARTESIAN_POINT('',(-0.0242,-0.022,0.018));
#984=CARTESIAN_POINT('',(-0.0242,-0.022,0.018));
#985=CARTESIAN_POINT('',(-0.0242,-0.022,0.0215));
#986=CARTESIAN_POINT('',(-0.0242,-0.022,0.0215));
#987=CARTESIAN_POINT('',(-0.0242,-0.02275,0.01875));
#988=CARTESIAN_POINT('',(-0.026,-0.022,0.023));
#989=CARTESIAN_POINT('',(-0.026,-0.022,0.023));
#990=CARTESIAN_POINT('',(-0.0263,-0.022,0.023));
#991=CARTESIAN_POINT('',(-0.0257,-0.022,0.023));
#992=CARTESIAN_POINT('',(-0.0263,-0.024,0.023));
#993=CARTESIAN_POINT('',(-0.0257,-0.022,0.023));
#994=CARTESIAN_POINT('',(-0.0278,-0.022,0.018));
#995=CARTESIAN_POINT('',(-0.0278,-0.022,0.0215));
#996=CARTESIAN_POINT('',(-0.0278,-0.022,0.0215));
#997=CARTESIAN_POINT('',(-0.0278,-0.022,0.018));
#998=CARTESIAN_POINT('',(-0.0278,-0.024,0.0175));
#999=CARTESIAN_POINT('',(-0.026,-0.022,0.021));
#1000=CARTESIAN_POINT('',(-0.026,-0.022,0.021));
#1001=CARTESIAN_POINT('',(-0.026,-0.022,0.0195));
#1002=CARTESIAN_POINT('',(-0.014,-0.022,0.0115));
#1003=CARTESIAN_POINT('',(-0.0263,-0.022,0.0215));
#1004=CARTESIAN_POINT('',(-0.0257,-0.022,0.0215));
#1005=CARTESIAN_POINT('',(-0.0002,-0.022,0.018));
#1006=CARTESIAN_POINT('',(-0.0002,-0.022,0.018));
#1007=CARTESIAN_POINT('',(-0.0002,-0.022,0.0215));
#1008=CARTESIAN_POINT('',(-0.0002,-0.024,0.0215));
#1009=CARTESIAN_POINT('',(-0.0002,-0.02275,0.01875));
#1010=CARTESIAN_POINT('',(-0.002,-0.022,0.023));
#1011=CARTESIAN_POINT('',(-0.002,-0.022,0.023));
#1012=CARTESIAN_POINT('',(-0.0017,-0.022,0.023));
#1013=CARTESIAN_POINT('',(-0.0023,-0.022,0.023));
#1014=CARTESIAN_POINT('',(-0.0023,-0.022,0.023));
#1015=CARTESIAN_POINT('',(-0.0017,-0.022,0.023));
#1016=CARTESIAN_POINT('',(-0.0038,-0.022,0.018));
#1017=CARTESIAN_POINT('',(-0.0038,-0.022,0.0215));
#1018=CARTESIAN_POINT('',(-0.0038,-0.022,0.0215));
#1019=CARTESIAN_POINT('',(-0.0038,-0.022,0.018));
#1020=CARTESIAN_POINT('',(-0.0038,-0.024,0.0175));
#1021=CARTESIAN_POINT('',(-0.002,-0.022,0.021));
#1022=CARTESIAN_POINT('',(-0.002,-0.022,0.021));
#1023=CARTESIAN_POINT('',(-0.002,-0.022,0.0195));
#1024=CARTESIAN_POINT('',(-0.014,-0.022,0.0115));
#1025=CARTESIAN_POINT('',(-0.0023,-0.022,0.0215));
#1026=CARTESIAN_POINT('',(-0.0017,-0.022,0.0215));
#1027=CARTESIAN_POINT('',(-0.0263,-0.022,0.0215));
#1028=CARTESIAN_POINT('',(-0.0257,-0.022,0.0215));
#1029=CARTESIAN_POINT('',(-0.0023,-0.022,0.0215));
#1030=CARTESIAN_POINT('',(-0.0017,-0.022,0.0215));
#1031=CARTESIAN_POINT('',(-0.014,-0.024,0.0175));
#1032=CARTESIAN_POINT('',(-0.014,-0.024,0.0175));
#1033=CARTESIAN_POINT('',(0.01,-0.0235,0.018));
#1034=CARTESIAN_POINT('',(0.01,0.,0.018));
#1035=CARTESIAN_POINT('',(0.01,0.0235,0.018));
#1036=CARTESIAN_POINT('',(0.01,0.,0.018));
#1037=CARTESIAN_POINT('',(-0.014,0.0235,0.018));
#1038=CARTESIAN_POINT('',(-0.038,0.0235,0.018));
#1039=CARTESIAN_POINT('',(-0.038,0.,0.018));
#1040=CARTESIAN_POINT('',(-0.038,-0.0235,0.018));
#1041=CARTESIAN_POINT('',(-0.038,0.,0.018));
#1042=CARTESIAN_POINT('',(-0.014,-0.024,0.0175));
#1043=CARTESIAN_POINT('',(-0.014,0.024,0.0005));
#1044=CARTESIAN_POINT('',(0.01,0.01175,-0.01175));
#1045=CARTESIAN_POINT('',(0.00999999615180555,0.0236464466094067,0.000146446609406721));
#1046=CARTESIAN_POINT('',(-0.0331266028275955,0.0236464466094067,0.000146446609406721));
#1047=CARTESIAN_POINT('',(-0.0379999961470482,0.0236464466094067,0.000146446609406721));
#1048=CARTESIAN_POINT('',(-0.038,0.01175,-0.01175));
#1049=CARTESIAN_POINT('',(-0.014,-0.0235,0.));
#1050=CARTESIAN_POINT('',(-0.038,-0.01175,-0.01175));
#1051=CARTESIAN_POINT('',(0.01,-0.01175,-0.01175));
#1052=CARTESIAN_POINT('',(-0.038,1.40834381901946E-18,0.0175));
#1053=CARTESIAN_POINT('',(0.01,1.40834381901946E-18,0.0175));
#1054=CARTESIAN_POINT('',(-0.014,0.,0.002));
#1055=CARTESIAN_POINT('',(-0.014,0.,0.002));
#1056=CARTESIAN_POINT('',(-0.038,0.,0.));
#1057=CARTESIAN_POINT('',(-0.038,0.0069258838609294,-0.00677943725152258));
#1058=CARTESIAN_POINT('',(-0.014,0.0232928932188135,0.));
#1059=CARTESIAN_POINT('',(0.01,0.00692588386092943,-0.00677943725152257));
#1060=CARTESIAN_POINT('',(0.01,0.,0.));
#1061=MECHANICAL_DESIGN_GEOMETRIC_PRESENTATION_REPRESENTATION('',(#622),
#1062);
#1062=(
GEOMETRIC_REPRESENTATION_CONTEXT(3)
GLOBAL_UNCERTAINTY_ASSIGNED_CONTEXT((#1063))
GLOBAL_UNIT_ASSIGNED_CONTEXT((#1066,#1065,#1064))
REPRESENTATION_CONTEXT('Part 1','TOP_LEVEL_ASSEMBLY_PART')
);
#1063=UNCERTAINTY_MEASURE_WITH_UNIT(LENGTH_MEASURE(1.E-8),#1066,
'DISTANCE_ACCURACY_VALUE','Maximum Tolerance applied to model');
#1064=(
NAMED_UNIT(*)
SI_UNIT($,.STERADIAN.)
SOLID_ANGLE_UNIT()
);
#1065=(
NAMED_UNIT(*)
PLANE_ANGLE_UNIT()
SI_UNIT($,.RADIAN.)
);
#1066=(
LENGTH_UNIT()
NAMED_UNIT(*)
SI_UNIT($,.METRE.)
);
#1067=PRODUCT_DEFINITION_SHAPE('','',#1068);
#1068=PRODUCT_DEFINITION('','',#1070,#1069);
#1069=PRODUCT_DEFINITION_CONTEXT('',#1076,'design');
#1070=PRODUCT_DEFINITION_FORMATION_WITH_SPECIFIED_SOURCE('','',#1072,
 .NOT_KNOWN.);
#1071=PRODUCT_RELATED_PRODUCT_CATEGORY('','',(#1072));
#1072=PRODUCT('Part 1','Part 1','Part 1',(#1074));
#1073=PRODUCT_CATEGORY('','');
#1074=PRODUCT_CONTEXT('',#1076,'mechanical');
#1075=APPLICATION_PROTOCOL_DEFINITION('international standard',
'ap242_managed_model_based_3d_engineering',2020,#1076);
#1076=APPLICATION_CONTEXT('managed model based 3d engineering');
ENDSEC;
END-ISO-10303-21;
