ISO-10303-21;
HEADER;
/* Generated by software containing ST-Developer
 * from STEP Tools, Inc. (www.steptools.com) 
 */
/* OPTION: using custom renumber hook */

FILE_DESCRIPTION(
/* description */ ('STEP AP242 Edition 2',
'CAx-IF Rec.Pracs.---Representation and Presentation of Product Manufa
cturing Information (PMI)---4.0---2014-10-13',
'CAx-IF Rec.Pracs.---3D Tessellated Geometry---0.4---2014-09-14','2;1',
'CAx-IF Rec.Pracs.---User Defined Attributes---1.5---2016-08-15'),
/* implementation_level */ '2;1');

FILE_NAME(
/* name */ 'Part Studio 1',
/* time_stamp */ '2026-05-14T04:10:17Z',
/* author */ (''),
/* organization */ (''),
/* preprocessor_version */ 'ST-DEVELOPER v20',
/* originating_system */ 'ONSHAPE BY PTC INC, 1.214',
/* authorisation */ '  ');

FILE_SCHEMA (('AP242_MANAGED_MODEL_BASED_3D_ENGINEERING_MIM_LF { 1 0 10303 442 3 1 4 }'));
ENDSEC;

DATA;
#10=SHAPE_REPRESENTATION_RELATIONSHIP('','',#239,#11);
#11=ADVANCED_BREP_SHAPE_REPRESENTATION('',(#237),#393);
#12=PLANE('',#247);
#13=PLANE('',#251);
#14=PLANE('',#252);
#15=PLANE('',#254);
#16=PLANE('',#257);
#17=PLANE('',#258);
#18=PLANE('',#259);
#19=PLANE('',#260);
#20=PLANE('',#261);
#21=PLANE('',#262);
#22=LINE('',#334,#42);
#23=LINE('',#338,#43);
#24=LINE('',#340,#44);
#25=LINE('',#345,#45);
#26=LINE('',#351,#46);
#27=LINE('',#353,#47);
#28=LINE('',#355,#48);
#29=LINE('',#356,#49);
#30=LINE('',#358,#50);
#31=LINE('',#360,#51);
#32=LINE('',#365,#52);
#33=LINE('',#367,#53);
#34=LINE('',#369,#54);
#35=LINE('',#370,#55);
#36=LINE('',#372,#56);
#37=LINE('',#374,#57);
#38=LINE('',#383,#58);
#39=LINE('',#384,#59);
#40=LINE('',#388,#60);
#41=LINE('',#390,#61);
#42=VECTOR('',#269,1.);
#43=VECTOR('',#272,1.);
#44=VECTOR('',#275,1.);
#45=VECTOR('',#278,1.);
#46=VECTOR('',#285,1.);
#47=VECTOR('',#286,1.);
#48=VECTOR('',#287,1.);
#49=VECTOR('',#288,1.);
#50=VECTOR('',#289,1.);
#51=VECTOR('',#290,1.);
#52=VECTOR('',#297,1.);
#53=VECTOR('',#298,1.);
#54=VECTOR('',#299,1.);
#55=VECTOR('',#300,1.);
#56=VECTOR('',#301,1.);
#57=VECTOR('',#302,1.);
#58=VECTOR('',#315,1.);
#59=VECTOR('',#316,1.);
#60=VECTOR('',#323,1.);
#61=VECTOR('',#326,1.);
#62=ORIENTED_EDGE('',*,*,#118,.F.);
#63=ORIENTED_EDGE('',*,*,#119,.T.);
#64=ORIENTED_EDGE('',*,*,#120,.T.);
#65=ORIENTED_EDGE('',*,*,#121,.F.);
#66=ORIENTED_EDGE('',*,*,#122,.F.);
#67=ORIENTED_EDGE('',*,*,#123,.F.);
#68=ORIENTED_EDGE('',*,*,#124,.T.);
#69=ORIENTED_EDGE('',*,*,#125,.T.);
#70=ORIENTED_EDGE('',*,*,#126,.T.);
#71=ORIENTED_EDGE('',*,*,#120,.F.);
#72=ORIENTED_EDGE('',*,*,#127,.F.);
#73=ORIENTED_EDGE('',*,*,#128,.T.);
#74=ORIENTED_EDGE('',*,*,#129,.T.);
#75=ORIENTED_EDGE('',*,*,#125,.F.);
#76=ORIENTED_EDGE('',*,*,#130,.F.);
#77=ORIENTED_EDGE('',*,*,#131,.T.);
#78=ORIENTED_EDGE('',*,*,#132,.T.);
#79=ORIENTED_EDGE('',*,*,#126,.F.);
#80=ORIENTED_EDGE('',*,*,#133,.T.);
#81=ORIENTED_EDGE('',*,*,#118,.T.);
#82=ORIENTED_EDGE('',*,*,#134,.F.);
#83=ORIENTED_EDGE('',*,*,#135,.F.);
#84=ORIENTED_EDGE('',*,*,#136,.T.);
#85=ORIENTED_EDGE('',*,*,#123,.T.);
#86=ORIENTED_EDGE('',*,*,#137,.F.);
#87=ORIENTED_EDGE('',*,*,#138,.F.);
#88=ORIENTED_EDGE('',*,*,#139,.T.);
#89=ORIENTED_EDGE('',*,*,#133,.F.);
#90=ORIENTED_EDGE('',*,*,#140,.T.);
#91=ORIENTED_EDGE('',*,*,#141,.F.);
#92=ORIENTED_EDGE('',*,*,#141,.T.);
#93=ORIENTED_EDGE('',*,*,#140,.F.);
#94=ORIENTED_EDGE('',*,*,#135,.T.);
#95=ORIENTED_EDGE('',*,*,#142,.F.);
#96=ORIENTED_EDGE('',*,*,#131,.F.);
#97=ORIENTED_EDGE('',*,*,#143,.T.);
#98=ORIENTED_EDGE('',*,*,#136,.F.);
#99=ORIENTED_EDGE('',*,*,#143,.F.);
#100=ORIENTED_EDGE('',*,*,#130,.T.);
#101=ORIENTED_EDGE('',*,*,#124,.F.);
#102=ORIENTED_EDGE('',*,*,#121,.T.);
#103=ORIENTED_EDGE('',*,*,#132,.F.);
#104=ORIENTED_EDGE('',*,*,#142,.T.);
#105=ORIENTED_EDGE('',*,*,#134,.T.);
#106=ORIENTED_EDGE('',*,*,#122,.T.);
#107=ORIENTED_EDGE('',*,*,#129,.F.);
#108=ORIENTED_EDGE('',*,*,#144,.T.);
#109=ORIENTED_EDGE('',*,*,#137,.T.);
#110=ORIENTED_EDGE('',*,*,#138,.T.);
#111=ORIENTED_EDGE('',*,*,#144,.F.);
#112=ORIENTED_EDGE('',*,*,#128,.F.);
#113=ORIENTED_EDGE('',*,*,#145,.T.);
#114=ORIENTED_EDGE('',*,*,#139,.F.);
#115=ORIENTED_EDGE('',*,*,#145,.F.);
#116=ORIENTED_EDGE('',*,*,#127,.T.);
#117=ORIENTED_EDGE('',*,*,#119,.F.);
#118=EDGE_CURVE('',#146,#147,#166,.F.);
#119=EDGE_CURVE('',#146,#148,#22,.F.);
#120=EDGE_CURVE('',#148,#149,#167,.F.);
#121=EDGE_CURVE('',#147,#149,#23,.F.);
#122=EDGE_CURVE('',#150,#151,#24,.F.);
#123=EDGE_CURVE('',#152,#150,#168,.F.);
#124=EDGE_CURVE('',#152,#153,#25,.F.);
#125=EDGE_CURVE('',#153,#151,#169,.F.);
#126=EDGE_CURVE('',#154,#154,#170,.T.);
#127=EDGE_CURVE('',#155,#148,#26,.T.);
#128=EDGE_CURVE('',#155,#156,#27,.T.);
#129=EDGE_CURVE('',#156,#151,#28,.T.);
#130=EDGE_CURVE('',#157,#153,#29,.T.);
#131=EDGE_CURVE('',#157,#158,#30,.T.);
#132=EDGE_CURVE('',#158,#149,#31,.T.);
#133=EDGE_CURVE('',#159,#159,#171,.T.);
#134=EDGE_CURVE('',#160,#147,#32,.T.);
#135=EDGE_CURVE('',#161,#160,#33,.T.);
#136=EDGE_CURVE('',#161,#152,#34,.T.);
#137=EDGE_CURVE('',#162,#150,#35,.T.);
#138=EDGE_CURVE('',#163,#162,#36,.T.);
#139=EDGE_CURVE('',#163,#146,#37,.T.);
#140=EDGE_CURVE('',#164,#164,#172,.T.);
#141=EDGE_CURVE('',#165,#165,#173,.T.);
#142=EDGE_CURVE('',#158,#160,#38,.T.);
#143=EDGE_CURVE('',#157,#161,#39,.T.);
#144=EDGE_CURVE('',#156,#162,#40,.T.);
#145=EDGE_CURVE('',#155,#163,#41,.T.);
#146=VERTEX_POINT('',#332);
#147=VERTEX_POINT('',#333);
#148=VERTEX_POINT('',#335);
#149=VERTEX_POINT('',#337);
#150=VERTEX_POINT('',#341);
#151=VERTEX_POINT('',#342);
#152=VERTEX_POINT('',#344);
#153=VERTEX_POINT('',#346);
#154=VERTEX_POINT('',#350);
#155=VERTEX_POINT('',#352);
#156=VERTEX_POINT('',#354);
#157=VERTEX_POINT('',#357);
#158=VERTEX_POINT('',#359);
#159=VERTEX_POINT('',#363);
#160=VERTEX_POINT('',#366);
#161=VERTEX_POINT('',#368);
#162=VERTEX_POINT('',#371);
#163=VERTEX_POINT('',#373);
#164=VERTEX_POINT('',#377);
#165=VERTEX_POINT('',#380);
#166=CIRCLE('',#242,0.056);
#167=CIRCLE('',#243,0.056);
#168=CIRCLE('',#245,0.056);
#169=CIRCLE('',#246,0.056);
#170=CIRCLE('',#248,0.051);
#171=CIRCLE('',#250,0.051);
#172=CIRCLE('',#253,0.065);
#173=CIRCLE('',#255,0.065);
#174=EDGE_LOOP('',(#62,#63,#64,#65));
#175=EDGE_LOOP('',(#66,#67,#68,#69));
#176=EDGE_LOOP('',(#70));
#177=EDGE_LOOP('',(#71,#72,#73,#74,#75,#76,#77,#78));
#178=EDGE_LOOP('',(#79));
#179=EDGE_LOOP('',(#80));
#180=EDGE_LOOP('',(#81,#82,#83,#84,#85,#86,#87,#88));
#181=EDGE_LOOP('',(#89));
#182=EDGE_LOOP('',(#90));
#183=EDGE_LOOP('',(#91));
#184=EDGE_LOOP('',(#92));
#185=EDGE_LOOP('',(#93));
#186=EDGE_LOOP('',(#94,#95,#96,#97));
#187=EDGE_LOOP('',(#98,#99,#100,#101));
#188=EDGE_LOOP('',(#102,#103,#104,#105));
#189=EDGE_LOOP('',(#106,#107,#108,#109));
#190=EDGE_LOOP('',(#110,#111,#112,#113));
#191=EDGE_LOOP('',(#114,#115,#116,#117));
#192=FACE_BOUND('',#174,.T.);
#193=FACE_BOUND('',#175,.T.);
#194=FACE_BOUND('',#176,.T.);
#195=FACE_BOUND('',#177,.T.);
#196=FACE_BOUND('',#178,.T.);
#197=FACE_BOUND('',#179,.T.);
#198=FACE_BOUND('',#180,.T.);
#199=FACE_BOUND('',#181,.T.);
#200=FACE_BOUND('',#182,.T.);
#201=FACE_BOUND('',#183,.T.);
#202=FACE_BOUND('',#184,.T.);
#203=FACE_BOUND('',#185,.T.);
#204=FACE_BOUND('',#186,.T.);
#205=FACE_BOUND('',#187,.T.);
#206=FACE_BOUND('',#188,.T.);
#207=FACE_BOUND('',#189,.T.);
#208=FACE_BOUND('',#190,.T.);
#209=FACE_BOUND('',#191,.T.);
#210=CYLINDRICAL_SURFACE('',#241,0.056);
#211=CYLINDRICAL_SURFACE('',#244,0.056);
#212=CYLINDRICAL_SURFACE('',#249,0.051);
#213=CYLINDRICAL_SURFACE('',#256,0.065);
#214=ADVANCED_FACE('',(#192),#210,.F.);
#215=ADVANCED_FACE('',(#193),#211,.F.);
#216=ADVANCED_FACE('',(#194,#195),#12,.F.);
#217=ADVANCED_FACE('',(#196,#197),#212,.F.);
#218=ADVANCED_FACE('',(#198),#13,.T.);
#219=ADVANCED_FACE('',(#199,#200),#14,.T.);
#220=ADVANCED_FACE('',(#201),#15,.F.);
#221=ADVANCED_FACE('',(#202,#203),#213,.T.);
#222=ADVANCED_FACE('',(#204),#16,.F.);
#223=ADVANCED_FACE('',(#205),#17,.T.);
#224=ADVANCED_FACE('',(#206),#18,.F.);
#225=ADVANCED_FACE('',(#207),#19,.F.);
#226=ADVANCED_FACE('',(#208),#20,.F.);
#227=ADVANCED_FACE('',(#209),#21,.T.);
#228=CLOSED_SHELL('',(#214,#215,#216,#217,#218,#219,#220,#221,#222,#223,
#224,#225,#226,#227));
#229=STYLED_ITEM('',(#230),#237);
#230=PRESENTATION_STYLE_ASSIGNMENT((#231));
#231=SURFACE_STYLE_USAGE(.BOTH.,#232);
#232=SURFACE_SIDE_STYLE('',(#233));
#233=SURFACE_STYLE_FILL_AREA(#234);
#234=FILL_AREA_STYLE('',(#235));
#235=FILL_AREA_STYLE_COLOUR('',#236);
#236=COLOUR_RGB('',0.615686274509804,0.811764705882353,0.929411764705882);
#237=MANIFOLD_SOLID_BREP('Part 1',#228);
#238=SHAPE_DEFINITION_REPRESENTATION(#398,#239);
#239=SHAPE_REPRESENTATION('Part 1',(#240),#393);
#240=AXIS2_PLACEMENT_3D('',#329,#263,#264);
#241=AXIS2_PLACEMENT_3D('',#330,#265,#266);
#242=AXIS2_PLACEMENT_3D('',#331,#267,#268);
#243=AXIS2_PLACEMENT_3D('',#336,#270,#271);
#244=AXIS2_PLACEMENT_3D('',#339,#273,#274);
#245=AXIS2_PLACEMENT_3D('',#343,#276,#277);
#246=AXIS2_PLACEMENT_3D('',#347,#279,#280);
#247=AXIS2_PLACEMENT_3D('',#348,#281,#282);
#248=AXIS2_PLACEMENT_3D('',#349,#283,#284);
#249=AXIS2_PLACEMENT_3D('',#361,#291,#292);
#250=AXIS2_PLACEMENT_3D('',#362,#293,#294);
#251=AXIS2_PLACEMENT_3D('',#364,#295,#296);
#252=AXIS2_PLACEMENT_3D('',#375,#303,#304);
#253=AXIS2_PLACEMENT_3D('',#376,#305,#306);
#254=AXIS2_PLACEMENT_3D('',#378,#307,#308);
#255=AXIS2_PLACEMENT_3D('',#379,#309,#310);
#256=AXIS2_PLACEMENT_3D('',#381,#311,#312);
#257=AXIS2_PLACEMENT_3D('',#382,#313,#314);
#258=AXIS2_PLACEMENT_3D('',#385,#317,#318);
#259=AXIS2_PLACEMENT_3D('',#386,#319,#320);
#260=AXIS2_PLACEMENT_3D('',#387,#321,#322);
#261=AXIS2_PLACEMENT_3D('',#389,#324,#325);
#262=AXIS2_PLACEMENT_3D('',#391,#327,#328);
#263=DIRECTION('',(0.,0.,1.));
#264=DIRECTION('',(1.,0.,0.));
#265=DIRECTION('',(0.,0.,-1.));
#266=DIRECTION('',(-1.,0.,0.));
#267=DIRECTION('',(0.,0.,-1.));
#268=DIRECTION('',(-1.,0.,0.));
#269=DIRECTION('',(0.,0.,-1.));
#270=DIRECTION('',(0.,0.,-1.));
#271=DIRECTION('',(-1.,0.,0.));
#272=DIRECTION('',(0.,0.,-1.));
#273=DIRECTION('',(0.,0.,-1.));
#274=DIRECTION('',(-1.,0.,0.));
#275=DIRECTION('',(0.,0.,-1.));
#276=DIRECTION('',(0.,0.,-1.));
#277=DIRECTION('',(-1.,0.,0.));
#278=DIRECTION('',(0.,0.,-1.));
#279=DIRECTION('',(0.,0.,-1.));
#280=DIRECTION('',(-1.,0.,0.));
#281=DIRECTION('',(0.,0.,1.));
#282=DIRECTION('',(1.,0.,0.));
#283=DIRECTION('',(0.,0.,1.));
#284=DIRECTION('',(1.,0.,0.));
#285=DIRECTION('',(2.22400445638052E-16,1.,0.));
#286=DIRECTION('',(-1.,0.,0.));
#287=DIRECTION('',(0.,1.,0.));
#288=DIRECTION('',(0.,1.,0.));
#289=DIRECTION('',(-1.,0.,0.));
#290=DIRECTION('',(0.,1.,0.));
#291=DIRECTION('',(0.,0.,-1.));
#292=DIRECTION('',(-1.,0.,0.));
#293=DIRECTION('',(0.,0.,1.));
#294=DIRECTION('',(1.,0.,0.));
#295=DIRECTION('',(0.,0.,1.));
#296=DIRECTION('',(1.,0.,0.));
#297=DIRECTION('',(0.,1.,0.));
#298=DIRECTION('',(-1.,0.,0.));
#299=DIRECTION('',(0.,1.,0.));
#300=DIRECTION('',(0.,1.,0.));
#301=DIRECTION('',(-1.,0.,0.));
#302=DIRECTION('',(2.22400445638052E-16,1.,0.));
#303=DIRECTION('',(0.,0.,1.));
#304=DIRECTION('',(1.,0.,0.));
#305=DIRECTION('',(0.,0.,1.));
#306=DIRECTION('',(1.,0.,0.));
#307=DIRECTION('',(0.,0.,1.));
#308=DIRECTION('',(1.,0.,0.));
#309=DIRECTION('',(0.,0.,1.));
#310=DIRECTION('',(1.,0.,0.));
#311=DIRECTION('',(0.,0.,-1.));
#312=DIRECTION('',(-1.,0.,0.));
#313=DIRECTION('',(0.,-1.,0.));
#314=DIRECTION('',(0.,0.,-1.));
#315=DIRECTION('',(0.,0.,-1.));
#316=DIRECTION('',(0.,0.,-1.));
#317=DIRECTION('',(-1.,0.,0.));
#318=DIRECTION('',(0.,0.,1.));
#319=DIRECTION('',(-1.,0.,0.));
#320=DIRECTION('',(0.,0.,1.));
#321=DIRECTION('',(-1.,0.,0.));
#322=DIRECTION('',(0.,0.,1.));
#323=DIRECTION('',(0.,0.,-1.));
#324=DIRECTION('',(0.,-1.,0.));
#325=DIRECTION('',(0.,0.,-1.));
#326=DIRECTION('',(0.,0.,-1.));
#327=DIRECTION('',(-1.,2.22400445638052E-16,0.));
#328=DIRECTION('',(-2.22400445638052E-16,-1.,0.));
#329=CARTESIAN_POINT('',(0.,0.,0.));
#330=CARTESIAN_POINT('',(0.,3.30654635769785E-18,0.025));
#331=CARTESIAN_POINT('',(0.,3.30654635769785E-18,0.005));
#332=CARTESIAN_POINT('',(-0.0134,-0.0543731551411172,0.005));
#333=CARTESIAN_POINT('',(0.0134,-0.0543731551411172,0.005));
#334=CARTESIAN_POINT('',(-0.0134,-0.0543731551411172,0.025));
#335=CARTESIAN_POINT('',(-0.0134,-0.0543731551411172,0.025));
#336=CARTESIAN_POINT('',(0.,3.30654635769785E-18,0.025));
#337=CARTESIAN_POINT('',(0.0134,-0.0543731551411172,0.025));
#338=CARTESIAN_POINT('',(0.0134,-0.0543731551411172,0.025));
#339=CARTESIAN_POINT('',(0.,3.30654635769785E-18,0.025));
#340=CARTESIAN_POINT('',(-0.0166,-0.0534830814370302,0.025));
#341=CARTESIAN_POINT('',(-0.0166,-0.0534830814370302,0.005));
#342=CARTESIAN_POINT('',(-0.0166,-0.0534830814370302,0.025));
#343=CARTESIAN_POINT('',(0.,3.30654635769785E-18,0.005));
#344=CARTESIAN_POINT('',(0.0166,-0.0534830814370302,0.005));
#345=CARTESIAN_POINT('',(0.0166,-0.0534830814370302,0.025));
#346=CARTESIAN_POINT('',(0.0166,-0.0534830814370302,0.025));
#347=CARTESIAN_POINT('',(0.,3.30654635769785E-18,0.025));
#348=CARTESIAN_POINT('',(0.,0.,0.025));
#349=CARTESIAN_POINT('',(0.,3.12284933782575E-18,0.025));
#350=CARTESIAN_POINT('',(0.051,3.12284933782575E-18,0.025));
#351=CARTESIAN_POINT('',(-0.0134,-0.0517020621418952,0.025));
#352=CARTESIAN_POINT('',(-0.0134,-0.0556020621418952,0.025));
#353=CARTESIAN_POINT('',(-0.015,-0.0556020621418952,0.025));
#354=CARTESIAN_POINT('',(-0.0166,-0.0556020621418952,0.025));
#355=CARTESIAN_POINT('',(-0.0166,-0.0517020621418952,0.025));
#356=CARTESIAN_POINT('',(0.0166,-0.0517020621418953,0.025));
#357=CARTESIAN_POINT('',(0.0166,-0.0556020621418953,0.025));
#358=CARTESIAN_POINT('',(0.015,-0.0556020621418953,0.025));
#359=CARTESIAN_POINT('',(0.0134,-0.0556020621418953,0.025));
#360=CARTESIAN_POINT('',(0.0134,-0.0517020621418953,0.025));
#361=CARTESIAN_POINT('',(0.,3.12284933782575E-18,0.1));
#362=CARTESIAN_POINT('',(0.,3.12284933782575E-18,0.115));
#363=CARTESIAN_POINT('',(0.051,3.12284933782575E-18,0.115));
#364=CARTESIAN_POINT('',(0.,0.,0.005));
#365=CARTESIAN_POINT('',(0.0134,-0.0517020621418953,0.005));
#366=CARTESIAN_POINT('',(0.0134,-0.0556020621418953,0.005));
#367=CARTESIAN_POINT('',(0.015,-0.0556020621418953,0.005));
#368=CARTESIAN_POINT('',(0.0166,-0.0556020621418953,0.005));
#369=CARTESIAN_POINT('',(0.0166,-0.0517020621418953,0.005));
#370=CARTESIAN_POINT('',(-0.0166,-0.0517020621418952,0.005));
#371=CARTESIAN_POINT('',(-0.0166,-0.0556020621418952,0.005));
#372=CARTESIAN_POINT('',(-0.015,-0.0556020621418952,0.005));
#373=CARTESIAN_POINT('',(-0.0134,-0.0556020621418952,0.005));
#374=CARTESIAN_POINT('',(-0.0134,-0.0517020621418952,0.005));
#375=CARTESIAN_POINT('',(0.,0.,0.115));
#376=CARTESIAN_POINT('',(0.,3.9801020972289E-18,0.115));
#377=CARTESIAN_POINT('',(0.065,3.9801020972289E-18,0.115));
#378=CARTESIAN_POINT('',(0.,0.,0.));
#379=CARTESIAN_POINT('',(0.,3.9801020972289E-18,0.));
#380=CARTESIAN_POINT('',(0.065,3.9801020972289E-18,0.));
#381=CARTESIAN_POINT('',(0.,3.9801020972289E-18,0.025));
#382=CARTESIAN_POINT('',(0.015,-0.0556020621418953,0.025));
#383=CARTESIAN_POINT('',(0.0134,-0.0556020621418953,0.025));
#384=CARTESIAN_POINT('',(0.0166,-0.0556020621418953,0.025));
#385=CARTESIAN_POINT('',(0.0166,-0.0517020621418953,0.025));
#386=CARTESIAN_POINT('',(0.0134,-0.0517020621418953,0.025));
#387=CARTESIAN_POINT('',(-0.0166,-0.0517020621418952,0.025));
#388=CARTESIAN_POINT('',(-0.0166,-0.0556020621418952,0.025));
#389=CARTESIAN_POINT('',(-0.015,-0.0556020621418952,0.025));
#390=CARTESIAN_POINT('',(-0.0134,-0.0556020621418952,0.025));
#391=CARTESIAN_POINT('',(-0.0134,-0.0517020621418952,0.025));
#392=MECHANICAL_DESIGN_GEOMETRIC_PRESENTATION_REPRESENTATION('',(#229),
#393);
#393=(
GEOMETRIC_REPRESENTATION_CONTEXT(3)
GLOBAL_UNCERTAINTY_ASSIGNED_CONTEXT((#394))
GLOBAL_UNIT_ASSIGNED_CONTEXT((#397,#396,#395))
REPRESENTATION_CONTEXT('Part 1','TOP_LEVEL_ASSEMBLY_PART')
);
#394=UNCERTAINTY_MEASURE_WITH_UNIT(LENGTH_MEASURE(1.E-8),#397,
'DISTANCE_ACCURACY_VALUE','Maximum Tolerance applied to model');
#395=(
NAMED_UNIT(*)
SI_UNIT($,.STERADIAN.)
SOLID_ANGLE_UNIT()
);
#396=(
NAMED_UNIT(*)
PLANE_ANGLE_UNIT()
SI_UNIT($,.RADIAN.)
);
#397=(
LENGTH_UNIT()
NAMED_UNIT(*)
SI_UNIT($,.METRE.)
);
#398=PRODUCT_DEFINITION_SHAPE('','',#399);
#399=PRODUCT_DEFINITION('','',#401,#400);
#400=PRODUCT_DEFINITION_CONTEXT('',#407,'design');
#401=PRODUCT_DEFINITION_FORMATION_WITH_SPECIFIED_SOURCE('','',#403,
 .NOT_KNOWN.);
#402=PRODUCT_RELATED_PRODUCT_CATEGORY('','',(#403));
#403=PRODUCT('Part 1','Part 1','Part 1',(#405));
#404=PRODUCT_CATEGORY('','');
#405=PRODUCT_CONTEXT('',#407,'mechanical');
#406=APPLICATION_PROTOCOL_DEFINITION('international standard',
'ap242_managed_model_based_3d_engineering',2020,#407);
#407=APPLICATION_CONTEXT('managed model based 3d engineering');
ENDSEC;
END-ISO-10303-21;
