ISO-10303-21;
HEADER;
/* Generated by software containing ST-Developer
 * from STEP Tools, Inc. (www.steptools.com) 
 */
/* OPTION: using custom renumber hook */

FILE_DESCRIPTION(
/* description */ ('STEP AP242 Edition 2',
'CAx-IF Rec.Pracs.---Representation and Presentation of Product Manufa
cturing Information (PMI)---4.0---2014-10-13',
'CAx-IF Rec.Pracs.---3D Tessellated Geometry---0.4---2014-09-14','2;1',
'CAx-IF Rec.Pracs.---User Defined Attributes---1.5---2016-08-15'),
/* implementation_level */ '2;1');

FILE_NAME(
/* name */ 'Part Studio 4',
/* time_stamp */ '2026-05-30T05:14:19Z',
/* author */ (''),
/* organization */ (''),
/* preprocessor_version */ 'ST-DEVELOPER v20',
/* originating_system */ 'ONSHAPE BY PTC INC, 1.215',
/* authorisation */ '  ');

FILE_SCHEMA (('AP242_MANAGED_MODEL_BASED_3D_ENGINEERING_MIM_LF { 1 0 10303 442 3 1 4 }'));
ENDSEC;

DATA;
#10=SHAPE_REPRESENTATION_RELATIONSHIP('','',#633,#11);
#11=ADVANCED_BREP_SHAPE_REPRESENTATION('',(#631),#1071);
#12=CONICAL_SURFACE('',#681,0.000707106781186548,0.785398163397448);
#13=CONICAL_SURFACE('',#682,0.000707106781186548,0.785398163397448);
#14=CONICAL_SURFACE('',#685,0.000707106781186548,0.785398163397448);
#15=CONICAL_SURFACE('',#686,0.000707106781186548,0.785398163397448);
#16=CONICAL_SURFACE('',#689,0.0013,0.785398163397449);
#17=CONICAL_SURFACE('',#690,0.0013,0.785398163397449);
#18=CONICAL_SURFACE('',#693,0.0013,0.785398163397449);
#19=CONICAL_SURFACE('',#694,0.0013,0.785398163397449);
#20=CYLINDRICAL_SURFACE('',#664,0.00120710678118655);
#21=CYLINDRICAL_SURFACE('',#666,0.00120710678118655);
#22=CYLINDRICAL_SURFACE('',#668,0.00120710678118655);
#23=CYLINDRICAL_SURFACE('',#670,0.00120710678118655);
#24=CYLINDRICAL_SURFACE('',#672,0.0008);
#25=CYLINDRICAL_SURFACE('',#674,0.0008);
#26=CYLINDRICAL_SURFACE('',#676,0.0008);
#27=CYLINDRICAL_SURFACE('',#678,0.0008);
#28=CYLINDRICAL_SURFACE('',#696,0.0005);
#29=CYLINDRICAL_SURFACE('',#699,0.0005);
#30=LINE('',#901,#86);
#31=LINE('',#905,#87);
#32=LINE('',#909,#88);
#33=LINE('',#913,#89);
#34=LINE('',#914,#90);
#35=LINE('',#919,#91);
#36=LINE('',#923,#92);
#37=LINE('',#927,#93);
#38=LINE('',#933,#94);
#39=LINE('',#935,#95);
#40=LINE('',#937,#96);
#41=LINE('',#939,#97);
#42=LINE('',#941,#98);
#43=LINE('',#943,#99);
#44=LINE('',#945,#100);
#45=LINE('',#947,#101);
#46=LINE('',#949,#102);
#47=LINE('',#951,#103);
#48=LINE('',#953,#104);
#49=LINE('',#955,#105);
#50=LINE('',#960,#106);
#51=LINE('',#964,#107);
#52=LINE('',#968,#108);
#53=LINE('',#972,#109);
#54=LINE('',#974,#110);
#55=LINE('',#979,#111);
#56=LINE('',#983,#112);
#57=LINE('',#987,#113);
#58=LINE('',#991,#114);
#59=LINE('',#993,#115);
#60=LINE('',#995,#116);
#61=LINE('',#997,#117);
#62=LINE('',#999,#118);
#63=LINE('',#1001,#119);
#64=LINE('',#1003,#120);
#65=LINE('',#1005,#121);
#66=LINE('',#1007,#122);
#67=LINE('',#1009,#123);
#68=LINE('',#1011,#124);
#69=LINE('',#1013,#125);
#70=LINE('',#1031,#126);
#71=LINE('',#1032,#127);
#72=LINE('',#1034,#128);
#73=LINE('',#1036,#129);
#74=LINE('',#1038,#130);
#75=LINE('',#1040,#131);
#76=LINE('',#1042,#132);
#77=LINE('',#1044,#133);
#78=LINE('',#1047,#134);
#79=LINE('',#1048,#135);
#80=LINE('',#1050,#136);
#81=LINE('',#1052,#137);
#82=LINE('',#1054,#138);
#83=LINE('',#1056,#139);
#84=LINE('',#1058,#140);
#85=LINE('',#1060,#141);
#86=VECTOR('',#710,1.);
#87=VECTOR('',#713,1.);
#88=VECTOR('',#716,1.);
#89=VECTOR('',#719,1.);
#90=VECTOR('',#720,1.);
#91=VECTOR('',#723,1.);
#92=VECTOR('',#726,1.);
#93=VECTOR('',#729,1.);
#94=VECTOR('',#736,1.);
#95=VECTOR('',#737,1.);
#96=VECTOR('',#738,1.);
#97=VECTOR('',#741,1.);
#98=VECTOR('',#742,1.);
#99=VECTOR('',#743,1.);
#100=VECTOR('',#746,1.);
#101=VECTOR('',#747,1.);
#102=VECTOR('',#748,1.);
#103=VECTOR('',#751,1.);
#104=VECTOR('',#752,1.);
#105=VECTOR('',#753,1.);
#106=VECTOR('',#758,1.);
#107=VECTOR('',#761,1.);
#108=VECTOR('',#764,1.);
#109=VECTOR('',#767,1.);
#110=VECTOR('',#770,1.);
#111=VECTOR('',#773,1.);
#112=VECTOR('',#776,1.);
#113=VECTOR('',#779,1.);
#114=VECTOR('',#784,1.);
#115=VECTOR('',#785,1.);
#116=VECTOR('',#786,1.);
#117=VECTOR('',#789,1.);
#118=VECTOR('',#790,1.);
#119=VECTOR('',#791,1.);
#120=VECTOR('',#794,1.);
#121=VECTOR('',#795,1.);
#122=VECTOR('',#796,1.);
#123=VECTOR('',#799,1.);
#124=VECTOR('',#800,1.);
#125=VECTOR('',#801,1.);
#126=VECTOR('',#836,1.);
#127=VECTOR('',#837,1.);
#128=VECTOR('',#840,1.);
#129=VECTOR('',#843,1.);
#130=VECTOR('',#846,1.);
#131=VECTOR('',#849,1.);
#132=VECTOR('',#852,1.);
#133=VECTOR('',#855,1.);
#134=VECTOR('',#860,1.);
#135=VECTOR('',#861,1.);
#136=VECTOR('',#864,1.);
#137=VECTOR('',#867,1.);
#138=VECTOR('',#870,1.);
#139=VECTOR('',#873,1.);
#140=VECTOR('',#876,1.);
#141=VECTOR('',#879,1.);
#142=ORIENTED_EDGE('',*,*,#310,.T.);
#143=ORIENTED_EDGE('',*,*,#311,.T.);
#144=ORIENTED_EDGE('',*,*,#312,.T.);
#145=ORIENTED_EDGE('',*,*,#313,.T.);
#146=ORIENTED_EDGE('',*,*,#314,.T.);
#147=ORIENTED_EDGE('',*,*,#315,.T.);
#148=ORIENTED_EDGE('',*,*,#316,.T.);
#149=ORIENTED_EDGE('',*,*,#317,.T.);
#150=ORIENTED_EDGE('',*,*,#318,.T.);
#151=ORIENTED_EDGE('',*,*,#319,.F.);
#152=ORIENTED_EDGE('',*,*,#320,.T.);
#153=ORIENTED_EDGE('',*,*,#321,.T.);
#154=ORIENTED_EDGE('',*,*,#322,.T.);
#155=ORIENTED_EDGE('',*,*,#323,.T.);
#156=ORIENTED_EDGE('',*,*,#324,.T.);
#157=ORIENTED_EDGE('',*,*,#325,.F.);
#158=ORIENTED_EDGE('',*,*,#326,.T.);
#159=ORIENTED_EDGE('',*,*,#327,.F.);
#160=ORIENTED_EDGE('',*,*,#328,.T.);
#161=ORIENTED_EDGE('',*,*,#329,.T.);
#162=ORIENTED_EDGE('',*,*,#330,.T.);
#163=ORIENTED_EDGE('',*,*,#319,.T.);
#164=ORIENTED_EDGE('',*,*,#331,.T.);
#165=ORIENTED_EDGE('',*,*,#332,.T.);
#166=ORIENTED_EDGE('',*,*,#333,.T.);
#167=ORIENTED_EDGE('',*,*,#321,.F.);
#168=ORIENTED_EDGE('',*,*,#334,.T.);
#169=ORIENTED_EDGE('',*,*,#335,.T.);
#170=ORIENTED_EDGE('',*,*,#336,.T.);
#171=ORIENTED_EDGE('',*,*,#323,.F.);
#172=ORIENTED_EDGE('',*,*,#337,.T.);
#173=ORIENTED_EDGE('',*,*,#338,.T.);
#174=ORIENTED_EDGE('',*,*,#339,.T.);
#175=ORIENTED_EDGE('',*,*,#325,.T.);
#176=ORIENTED_EDGE('',*,*,#340,.T.);
#177=ORIENTED_EDGE('',*,*,#341,.T.);
#178=ORIENTED_EDGE('',*,*,#342,.T.);
#179=ORIENTED_EDGE('',*,*,#343,.T.);
#180=ORIENTED_EDGE('',*,*,#344,.T.);
#181=ORIENTED_EDGE('',*,*,#345,.T.);
#182=ORIENTED_EDGE('',*,*,#346,.T.);
#183=ORIENTED_EDGE('',*,*,#347,.T.);
#184=ORIENTED_EDGE('',*,*,#348,.F.);
#185=ORIENTED_EDGE('',*,*,#349,.T.);
#186=ORIENTED_EDGE('',*,*,#350,.T.);
#187=ORIENTED_EDGE('',*,*,#351,.T.);
#188=ORIENTED_EDGE('',*,*,#352,.T.);
#189=ORIENTED_EDGE('',*,*,#353,.T.);
#190=ORIENTED_EDGE('',*,*,#354,.F.);
#191=ORIENTED_EDGE('',*,*,#355,.T.);
#192=ORIENTED_EDGE('',*,*,#356,.T.);
#193=ORIENTED_EDGE('',*,*,#357,.T.);
#194=ORIENTED_EDGE('',*,*,#358,.T.);
#195=ORIENTED_EDGE('',*,*,#352,.F.);
#196=ORIENTED_EDGE('',*,*,#359,.T.);
#197=ORIENTED_EDGE('',*,*,#360,.T.);
#198=ORIENTED_EDGE('',*,*,#361,.T.);
#199=ORIENTED_EDGE('',*,*,#354,.T.);
#200=ORIENTED_EDGE('',*,*,#362,.T.);
#201=ORIENTED_EDGE('',*,*,#363,.T.);
#202=ORIENTED_EDGE('',*,*,#364,.T.);
#203=ORIENTED_EDGE('',*,*,#348,.T.);
#204=ORIENTED_EDGE('',*,*,#365,.T.);
#205=ORIENTED_EDGE('',*,*,#366,.T.);
#206=ORIENTED_EDGE('',*,*,#367,.T.);
#207=ORIENTED_EDGE('',*,*,#350,.F.);
#208=ORIENTED_EDGE('',*,*,#330,.F.);
#209=ORIENTED_EDGE('',*,*,#368,.T.);
#210=ORIENTED_EDGE('',*,*,#331,.F.);
#211=ORIENTED_EDGE('',*,*,#320,.F.);
#212=ORIENTED_EDGE('',*,*,#333,.F.);
#213=ORIENTED_EDGE('',*,*,#369,.T.);
#214=ORIENTED_EDGE('',*,*,#334,.F.);
#215=ORIENTED_EDGE('',*,*,#322,.F.);
#216=ORIENTED_EDGE('',*,*,#339,.F.);
#217=ORIENTED_EDGE('',*,*,#370,.T.);
#218=ORIENTED_EDGE('',*,*,#328,.F.);
#219=ORIENTED_EDGE('',*,*,#326,.F.);
#220=ORIENTED_EDGE('',*,*,#336,.F.);
#221=ORIENTED_EDGE('',*,*,#371,.T.);
#222=ORIENTED_EDGE('',*,*,#337,.F.);
#223=ORIENTED_EDGE('',*,*,#324,.F.);
#224=ORIENTED_EDGE('',*,*,#364,.F.);
#225=ORIENTED_EDGE('',*,*,#372,.T.);
#226=ORIENTED_EDGE('',*,*,#365,.F.);
#227=ORIENTED_EDGE('',*,*,#349,.F.);
#228=ORIENTED_EDGE('',*,*,#361,.F.);
#229=ORIENTED_EDGE('',*,*,#373,.T.);
#230=ORIENTED_EDGE('',*,*,#362,.F.);
#231=ORIENTED_EDGE('',*,*,#355,.F.);
#232=ORIENTED_EDGE('',*,*,#367,.F.);
#233=ORIENTED_EDGE('',*,*,#374,.T.);
#234=ORIENTED_EDGE('',*,*,#356,.F.);
#235=ORIENTED_EDGE('',*,*,#351,.F.);
#236=ORIENTED_EDGE('',*,*,#358,.F.);
#237=ORIENTED_EDGE('',*,*,#375,.T.);
#238=ORIENTED_EDGE('',*,*,#359,.F.);
#239=ORIENTED_EDGE('',*,*,#353,.F.);
#240=ORIENTED_EDGE('',*,*,#376,.F.);
#241=ORIENTED_EDGE('',*,*,#345,.F.);
#242=ORIENTED_EDGE('',*,*,#377,.F.);
#243=ORIENTED_EDGE('',*,*,#329,.F.);
#244=ORIENTED_EDGE('',*,*,#377,.T.);
#245=ORIENTED_EDGE('',*,*,#344,.F.);
#246=ORIENTED_EDGE('',*,*,#378,.F.);
#247=ORIENTED_EDGE('',*,*,#368,.F.);
#248=ORIENTED_EDGE('',*,*,#376,.T.);
#249=ORIENTED_EDGE('',*,*,#370,.F.);
#250=ORIENTED_EDGE('',*,*,#379,.F.);
#251=ORIENTED_EDGE('',*,*,#346,.F.);
#252=ORIENTED_EDGE('',*,*,#378,.T.);
#253=ORIENTED_EDGE('',*,*,#343,.F.);
#254=ORIENTED_EDGE('',*,*,#380,.F.);
#255=ORIENTED_EDGE('',*,*,#332,.F.);
#256=ORIENTED_EDGE('',*,*,#379,.T.);
#257=ORIENTED_EDGE('',*,*,#338,.F.);
#258=ORIENTED_EDGE('',*,*,#381,.F.);
#259=ORIENTED_EDGE('',*,*,#347,.F.);
#260=ORIENTED_EDGE('',*,*,#380,.T.);
#261=ORIENTED_EDGE('',*,*,#342,.F.);
#262=ORIENTED_EDGE('',*,*,#382,.F.);
#263=ORIENTED_EDGE('',*,*,#369,.F.);
#264=ORIENTED_EDGE('',*,*,#381,.T.);
#265=ORIENTED_EDGE('',*,*,#371,.F.);
#266=ORIENTED_EDGE('',*,*,#383,.F.);
#267=ORIENTED_EDGE('',*,*,#340,.F.);
#268=ORIENTED_EDGE('',*,*,#382,.T.);
#269=ORIENTED_EDGE('',*,*,#341,.F.);
#270=ORIENTED_EDGE('',*,*,#383,.T.);
#271=ORIENTED_EDGE('',*,*,#335,.F.);
#272=ORIENTED_EDGE('',*,*,#384,.F.);
#273=ORIENTED_EDGE('',*,*,#316,.F.);
#274=ORIENTED_EDGE('',*,*,#385,.F.);
#275=ORIENTED_EDGE('',*,*,#363,.F.);
#276=ORIENTED_EDGE('',*,*,#385,.T.);
#277=ORIENTED_EDGE('',*,*,#315,.F.);
#278=ORIENTED_EDGE('',*,*,#386,.F.);
#279=ORIENTED_EDGE('',*,*,#372,.F.);
#280=ORIENTED_EDGE('',*,*,#384,.T.);
#281=ORIENTED_EDGE('',*,*,#373,.F.);
#282=ORIENTED_EDGE('',*,*,#387,.F.);
#283=ORIENTED_EDGE('',*,*,#317,.F.);
#284=ORIENTED_EDGE('',*,*,#386,.T.);
#285=ORIENTED_EDGE('',*,*,#314,.F.);
#286=ORIENTED_EDGE('',*,*,#388,.F.);
#287=ORIENTED_EDGE('',*,*,#366,.F.);
#288=ORIENTED_EDGE('',*,*,#387,.T.);
#289=ORIENTED_EDGE('',*,*,#360,.F.);
#290=ORIENTED_EDGE('',*,*,#389,.F.);
#291=ORIENTED_EDGE('',*,*,#318,.F.);
#292=ORIENTED_EDGE('',*,*,#388,.T.);
#293=ORIENTED_EDGE('',*,*,#313,.F.);
#294=ORIENTED_EDGE('',*,*,#390,.F.);
#295=ORIENTED_EDGE('',*,*,#374,.F.);
#296=ORIENTED_EDGE('',*,*,#389,.T.);
#297=ORIENTED_EDGE('',*,*,#375,.F.);
#298=ORIENTED_EDGE('',*,*,#391,.F.);
#299=ORIENTED_EDGE('',*,*,#311,.F.);
#300=ORIENTED_EDGE('',*,*,#390,.T.);
#301=ORIENTED_EDGE('',*,*,#312,.F.);
#302=ORIENTED_EDGE('',*,*,#391,.T.);
#303=ORIENTED_EDGE('',*,*,#357,.F.);
#304=ORIENTED_EDGE('',*,*,#392,.T.);
#305=ORIENTED_EDGE('',*,*,#310,.F.);
#306=ORIENTED_EDGE('',*,*,#392,.F.);
#307=ORIENTED_EDGE('',*,*,#393,.F.);
#308=ORIENTED_EDGE('',*,*,#327,.T.);
#309=ORIENTED_EDGE('',*,*,#393,.T.);
#310=EDGE_CURVE('',#394,#394,#446,.T.);
#311=EDGE_CURVE('',#395,#396,#447,.F.);
#312=EDGE_CURVE('',#396,#397,#30,.T.);
#313=EDGE_CURVE('',#397,#398,#448,.F.);
#314=EDGE_CURVE('',#398,#399,#31,.T.);
#315=EDGE_CURVE('',#399,#400,#449,.F.);
#316=EDGE_CURVE('',#400,#401,#32,.T.);
#317=EDGE_CURVE('',#401,#402,#450,.F.);
#318=EDGE_CURVE('',#402,#395,#33,.T.);
#319=EDGE_CURVE('',#403,#404,#34,.T.);
#320=EDGE_CURVE('',#403,#405,#451,.T.);
#321=EDGE_CURVE('',#405,#406,#35,.T.);
#322=EDGE_CURVE('',#406,#407,#452,.T.);
#323=EDGE_CURVE('',#407,#408,#36,.T.);
#324=EDGE_CURVE('',#408,#409,#453,.T.);
#325=EDGE_CURVE('',#410,#409,#37,.T.);
#326=EDGE_CURVE('',#410,#404,#454,.T.);
#327=EDGE_CURVE('',#411,#411,#455,.T.);
#328=EDGE_CURVE('',#404,#412,#38,.T.);
#329=EDGE_CURVE('',#412,#413,#39,.T.);
#330=EDGE_CURVE('',#413,#403,#40,.F.);
#331=EDGE_CURVE('',#405,#414,#41,.T.);
#332=EDGE_CURVE('',#414,#415,#42,.T.);
#333=EDGE_CURVE('',#415,#406,#43,.F.);
#334=EDGE_CURVE('',#407,#416,#44,.T.);
#335=EDGE_CURVE('',#416,#417,#45,.T.);
#336=EDGE_CURVE('',#417,#408,#46,.F.);
#337=EDGE_CURVE('',#409,#418,#47,.T.);
#338=EDGE_CURVE('',#418,#419,#48,.T.);
#339=EDGE_CURVE('',#419,#410,#49,.F.);
#340=EDGE_CURVE('',#420,#421,#456,.F.);
#341=EDGE_CURVE('',#421,#422,#50,.T.);
#342=EDGE_CURVE('',#422,#423,#457,.F.);
#343=EDGE_CURVE('',#423,#424,#51,.T.);
#344=EDGE_CURVE('',#424,#425,#458,.F.);
#345=EDGE_CURVE('',#425,#426,#52,.T.);
#346=EDGE_CURVE('',#426,#427,#459,.F.);
#347=EDGE_CURVE('',#427,#420,#53,.T.);
#348=EDGE_CURVE('',#428,#429,#54,.T.);
#349=EDGE_CURVE('',#428,#430,#460,.T.);
#350=EDGE_CURVE('',#430,#431,#55,.T.);
#351=EDGE_CURVE('',#431,#432,#461,.T.);
#352=EDGE_CURVE('',#432,#433,#56,.T.);
#353=EDGE_CURVE('',#433,#434,#462,.T.);
#354=EDGE_CURVE('',#435,#434,#57,.T.);
#355=EDGE_CURVE('',#435,#429,#463,.T.);
#356=EDGE_CURVE('',#432,#436,#58,.F.);
#357=EDGE_CURVE('',#436,#437,#59,.T.);
#358=EDGE_CURVE('',#437,#433,#60,.T.);
#359=EDGE_CURVE('',#434,#438,#61,.F.);
#360=EDGE_CURVE('',#438,#439,#62,.T.);
#361=EDGE_CURVE('',#439,#435,#63,.T.);
#362=EDGE_CURVE('',#429,#440,#64,.F.);
#363=EDGE_CURVE('',#440,#441,#65,.T.);
#364=EDGE_CURVE('',#441,#428,#66,.T.);
#365=EDGE_CURVE('',#430,#442,#67,.F.);
#366=EDGE_CURVE('',#442,#443,#68,.T.);
#367=EDGE_CURVE('',#443,#431,#69,.T.);
#368=EDGE_CURVE('',#413,#414,#464,.T.);
#369=EDGE_CURVE('',#415,#416,#465,.T.);
#370=EDGE_CURVE('',#419,#412,#466,.T.);
#371=EDGE_CURVE('',#417,#418,#467,.T.);
#372=EDGE_CURVE('',#441,#442,#468,.T.);
#373=EDGE_CURVE('',#439,#440,#469,.T.);
#374=EDGE_CURVE('',#443,#436,#470,.T.);
#375=EDGE_CURVE('',#437,#438,#471,.T.);
#376=EDGE_CURVE('',#426,#412,#70,.T.);
#377=EDGE_CURVE('',#413,#425,#71,.T.);
#378=EDGE_CURVE('',#414,#424,#72,.T.);
#379=EDGE_CURVE('',#427,#419,#73,.T.);
#380=EDGE_CURVE('',#415,#423,#74,.T.);
#381=EDGE_CURVE('',#420,#418,#75,.T.);
#382=EDGE_CURVE('',#416,#422,#76,.T.);
#383=EDGE_CURVE('',#421,#417,#77,.T.);
#384=EDGE_CURVE('',#401,#440,#78,.T.);
#385=EDGE_CURVE('',#441,#400,#79,.T.);
#386=EDGE_CURVE('',#442,#399,#80,.T.);
#387=EDGE_CURVE('',#402,#439,#81,.T.);
#388=EDGE_CURVE('',#443,#398,#82,.T.);
#389=EDGE_CURVE('',#395,#438,#83,.T.);
#390=EDGE_CURVE('',#436,#397,#84,.T.);
#391=EDGE_CURVE('',#396,#437,#85,.T.);
#392=EDGE_CURVE('',#444,#444,#472,.T.);
#393=EDGE_CURVE('',#445,#445,#473,.T.);
#394=VERTEX_POINT('',#897);
#395=VERTEX_POINT('',#899);
#396=VERTEX_POINT('',#900);
#397=VERTEX_POINT('',#902);
#398=VERTEX_POINT('',#904);
#399=VERTEX_POINT('',#906);
#400=VERTEX_POINT('',#908);
#401=VERTEX_POINT('',#910);
#402=VERTEX_POINT('',#912);
#403=VERTEX_POINT('',#915);
#404=VERTEX_POINT('',#916);
#405=VERTEX_POINT('',#918);
#406=VERTEX_POINT('',#920);
#407=VERTEX_POINT('',#922);
#408=VERTEX_POINT('',#924);
#409=VERTEX_POINT('',#926);
#410=VERTEX_POINT('',#928);
#411=VERTEX_POINT('',#931);
#412=VERTEX_POINT('',#934);
#413=VERTEX_POINT('',#936);
#414=VERTEX_POINT('',#940);
#415=VERTEX_POINT('',#942);
#416=VERTEX_POINT('',#946);
#417=VERTEX_POINT('',#948);
#418=VERTEX_POINT('',#952);
#419=VERTEX_POINT('',#954);
#420=VERTEX_POINT('',#958);
#421=VERTEX_POINT('',#959);
#422=VERTEX_POINT('',#961);
#423=VERTEX_POINT('',#963);
#424=VERTEX_POINT('',#965);
#425=VERTEX_POINT('',#967);
#426=VERTEX_POINT('',#969);
#427=VERTEX_POINT('',#971);
#428=VERTEX_POINT('',#975);
#429=VERTEX_POINT('',#976);
#430=VERTEX_POINT('',#978);
#431=VERTEX_POINT('',#980);
#432=VERTEX_POINT('',#982);
#433=VERTEX_POINT('',#984);
#434=VERTEX_POINT('',#986);
#435=VERTEX_POINT('',#988);
#436=VERTEX_POINT('',#992);
#437=VERTEX_POINT('',#994);
#438=VERTEX_POINT('',#998);
#439=VERTEX_POINT('',#1000);
#440=VERTEX_POINT('',#1004);
#441=VERTEX_POINT('',#1006);
#442=VERTEX_POINT('',#1010);
#443=VERTEX_POINT('',#1012);
#444=VERTEX_POINT('',#1064);
#445=VERTEX_POINT('',#1068);
#446=CIRCLE('',#636,0.0005);
#447=CIRCLE('',#637,0.0013);
#448=CIRCLE('',#638,0.0013);
#449=CIRCLE('',#639,0.0013);
#450=CIRCLE('',#640,0.0013);
#451=CIRCLE('',#641,0.00120710678118655);
#452=CIRCLE('',#642,0.00120710678118655);
#453=CIRCLE('',#643,0.00120710678118655);
#454=CIRCLE('',#644,0.00120710678118655);
#455=CIRCLE('',#645,0.0005);
#456=CIRCLE('',#651,0.000707106781186548);
#457=CIRCLE('',#652,0.000707106781186548);
#458=CIRCLE('',#653,0.000707106781186548);
#459=CIRCLE('',#654,0.000707106781186548);
#460=CIRCLE('',#656,0.0008);
#461=CIRCLE('',#657,0.0008);
#462=CIRCLE('',#658,0.0008);
#463=CIRCLE('',#659,0.0008);
#464=CIRCLE('',#665,0.00120710678118655);
#465=CIRCLE('',#667,0.00120710678118655);
#466=CIRCLE('',#669,0.00120710678118655);
#467=CIRCLE('',#671,0.00120710678118655);
#468=CIRCLE('',#673,0.0008);
#469=CIRCLE('',#675,0.0008);
#470=CIRCLE('',#677,0.0008);
#471=CIRCLE('',#679,0.0008);
#472=CIRCLE('',#697,0.0005);
#473=CIRCLE('',#700,0.0005);
#474=EDGE_LOOP('',(#142));
#475=EDGE_LOOP('',(#143,#144,#145,#146,#147,#148,#149,#150));
#476=EDGE_LOOP('',(#151,#152,#153,#154,#155,#156,#157,#158));
#477=EDGE_LOOP('',(#159));
#478=EDGE_LOOP('',(#160,#161,#162,#163));
#479=EDGE_LOOP('',(#164,#165,#166,#167));
#480=EDGE_LOOP('',(#168,#169,#170,#171));
#481=EDGE_LOOP('',(#172,#173,#174,#175));
#482=EDGE_LOOP('',(#176,#177,#178,#179,#180,#181,#182,#183));
#483=EDGE_LOOP('',(#184,#185,#186,#187,#188,#189,#190,#191));
#484=EDGE_LOOP('',(#192,#193,#194,#195));
#485=EDGE_LOOP('',(#196,#197,#198,#199));
#486=EDGE_LOOP('',(#200,#201,#202,#203));
#487=EDGE_LOOP('',(#204,#205,#206,#207));
#488=EDGE_LOOP('',(#208,#209,#210,#211));
#489=EDGE_LOOP('',(#212,#213,#214,#215));
#490=EDGE_LOOP('',(#216,#217,#218,#219));
#491=EDGE_LOOP('',(#220,#221,#222,#223));
#492=EDGE_LOOP('',(#224,#225,#226,#227));
#493=EDGE_LOOP('',(#228,#229,#230,#231));
#494=EDGE_LOOP('',(#232,#233,#234,#235));
#495=EDGE_LOOP('',(#236,#237,#238,#239));
#496=EDGE_LOOP('',(#240,#241,#242,#243));
#497=EDGE_LOOP('',(#244,#245,#246,#247));
#498=EDGE_LOOP('',(#248,#249,#250,#251));
#499=EDGE_LOOP('',(#252,#253,#254,#255));
#500=EDGE_LOOP('',(#256,#257,#258,#259));
#501=EDGE_LOOP('',(#260,#261,#262,#263));
#502=EDGE_LOOP('',(#264,#265,#266,#267));
#503=EDGE_LOOP('',(#268,#269,#270,#271));
#504=EDGE_LOOP('',(#272,#273,#274,#275));
#505=EDGE_LOOP('',(#276,#277,#278,#279));
#506=EDGE_LOOP('',(#280,#281,#282,#283));
#507=EDGE_LOOP('',(#284,#285,#286,#287));
#508=EDGE_LOOP('',(#288,#289,#290,#291));
#509=EDGE_LOOP('',(#292,#293,#294,#295));
#510=EDGE_LOOP('',(#296,#297,#298,#299));
#511=EDGE_LOOP('',(#300,#301,#302,#303));
#512=EDGE_LOOP('',(#304));
#513=EDGE_LOOP('',(#305));
#514=EDGE_LOOP('',(#306));
#515=EDGE_LOOP('',(#307));
#516=EDGE_LOOP('',(#308));
#517=EDGE_LOOP('',(#309));
#518=FACE_BOUND('',#474,.T.);
#519=FACE_BOUND('',#475,.T.);
#520=FACE_BOUND('',#476,.T.);
#521=FACE_BOUND('',#477,.T.);
#522=FACE_BOUND('',#478,.T.);
#523=FACE_BOUND('',#479,.T.);
#524=FACE_BOUND('',#480,.T.);
#525=FACE_BOUND('',#481,.T.);
#526=FACE_BOUND('',#482,.T.);
#527=FACE_BOUND('',#483,.T.);
#528=FACE_BOUND('',#484,.T.);
#529=FACE_BOUND('',#485,.T.);
#530=FACE_BOUND('',#486,.T.);
#531=FACE_BOUND('',#487,.T.);
#532=FACE_BOUND('',#488,.T.);
#533=FACE_BOUND('',#489,.T.);
#534=FACE_BOUND('',#490,.T.);
#535=FACE_BOUND('',#491,.T.);
#536=FACE_BOUND('',#492,.T.);
#537=FACE_BOUND('',#493,.T.);
#538=FACE_BOUND('',#494,.T.);
#539=FACE_BOUND('',#495,.T.);
#540=FACE_BOUND('',#496,.T.);
#541=FACE_BOUND('',#497,.T.);
#542=FACE_BOUND('',#498,.T.);
#543=FACE_BOUND('',#499,.T.);
#544=FACE_BOUND('',#500,.T.);
#545=FACE_BOUND('',#501,.T.);
#546=FACE_BOUND('',#502,.T.);
#547=FACE_BOUND('',#503,.T.);
#548=FACE_BOUND('',#504,.T.);
#549=FACE_BOUND('',#505,.T.);
#550=FACE_BOUND('',#506,.T.);
#551=FACE_BOUND('',#507,.T.);
#552=FACE_BOUND('',#508,.T.);
#553=FACE_BOUND('',#509,.T.);
#554=FACE_BOUND('',#510,.T.);
#555=FACE_BOUND('',#511,.T.);
#556=FACE_BOUND('',#512,.T.);
#557=FACE_BOUND('',#513,.T.);
#558=FACE_BOUND('',#514,.T.);
#559=FACE_BOUND('',#515,.T.);
#560=FACE_BOUND('',#516,.T.);
#561=FACE_BOUND('',#517,.T.);
#562=PLANE('',#635);
#563=PLANE('',#646);
#564=PLANE('',#647);
#565=PLANE('',#648);
#566=PLANE('',#649);
#567=PLANE('',#650);
#568=PLANE('',#655);
#569=PLANE('',#660);
#570=PLANE('',#661);
#571=PLANE('',#662);
#572=PLANE('',#663);
#573=PLANE('',#680);
#574=PLANE('',#683);
#575=PLANE('',#684);
#576=PLANE('',#687);
#577=PLANE('',#688);
#578=PLANE('',#691);
#579=PLANE('',#692);
#580=PLANE('',#695);
#581=PLANE('',#698);
#582=PLANE('',#701);
#583=ADVANCED_FACE('',(#518,#519,#520,#521),#562,.T.);
#584=ADVANCED_FACE('',(#522),#563,.T.);
#585=ADVANCED_FACE('',(#523),#564,.F.);
#586=ADVANCED_FACE('',(#524),#565,.F.);
#587=ADVANCED_FACE('',(#525),#566,.T.);
#588=ADVANCED_FACE('',(#526),#567,.F.);
#589=ADVANCED_FACE('',(#527),#568,.T.);
#590=ADVANCED_FACE('',(#528),#569,.T.);
#591=ADVANCED_FACE('',(#529),#570,.F.);
#592=ADVANCED_FACE('',(#530),#571,.F.);
#593=ADVANCED_FACE('',(#531),#572,.T.);
#594=ADVANCED_FACE('',(#532),#20,.T.);
#595=ADVANCED_FACE('',(#533),#21,.T.);
#596=ADVANCED_FACE('',(#534),#22,.T.);
#597=ADVANCED_FACE('',(#535),#23,.T.);
#598=ADVANCED_FACE('',(#536),#24,.F.);
#599=ADVANCED_FACE('',(#537),#25,.F.);
#600=ADVANCED_FACE('',(#538),#26,.F.);
#601=ADVANCED_FACE('',(#539),#27,.F.);
#602=ADVANCED_FACE('',(#540),#573,.T.);
#603=ADVANCED_FACE('',(#541),#12,.T.);
#604=ADVANCED_FACE('',(#542),#13,.T.);
#605=ADVANCED_FACE('',(#543),#574,.F.);
#606=ADVANCED_FACE('',(#544),#575,.T.);
#607=ADVANCED_FACE('',(#545),#14,.T.);
#608=ADVANCED_FACE('',(#546),#15,.T.);
#609=ADVANCED_FACE('',(#547),#576,.F.);
#610=ADVANCED_FACE('',(#548),#577,.T.);
#611=ADVANCED_FACE('',(#549),#16,.F.);
#612=ADVANCED_FACE('',(#550),#17,.F.);
#613=ADVANCED_FACE('',(#551),#578,.F.);
#614=ADVANCED_FACE('',(#552),#579,.T.);
#615=ADVANCED_FACE('',(#553),#18,.F.);
#616=ADVANCED_FACE('',(#554),#19,.F.);
#617=ADVANCED_FACE('',(#555),#580,.F.);
#618=ADVANCED_FACE('',(#556,#557),#28,.F.);
#619=ADVANCED_FACE('',(#558),#581,.T.);
#620=ADVANCED_FACE('',(#559,#560),#29,.F.);
#621=ADVANCED_FACE('',(#561),#582,.T.);
#622=CLOSED_SHELL('',(#583,#584,#585,#586,#587,#588,#589,#590,#591,#592,
#593,#594,#595,#596,#597,#598,#599,#600,#601,#602,#603,#604,#605,#606,#607,
#608,#609,#610,#611,#612,#613,#614,#615,#616,#617,#618,#619,#620,#621));
#623=STYLED_ITEM('',(#624),#631);
#624=PRESENTATION_STYLE_ASSIGNMENT((#625));
#625=SURFACE_STYLE_USAGE(.BOTH.,#626);
#626=SURFACE_SIDE_STYLE('',(#627));
#627=SURFACE_STYLE_FILL_AREA(#628);
#628=FILL_AREA_STYLE('',(#629));
#629=FILL_AREA_STYLE_COLOUR('',#630);
#630=COLOUR_RGB('',0.615686274509804,0.811764705882353,0.929411764705882);
#631=MANIFOLD_SOLID_BREP('Part 1',#622);
#632=SHAPE_DEFINITION_REPRESENTATION(#1076,#633);
#633=SHAPE_REPRESENTATION('Part 1',(#634),#1071);
#634=AXIS2_PLACEMENT_3D('',#894,#702,#703);
#635=AXIS2_PLACEMENT_3D('',#895,#704,#705);
#636=AXIS2_PLACEMENT_3D('',#896,#706,#707);
#637=AXIS2_PLACEMENT_3D('',#898,#708,#709);
#638=AXIS2_PLACEMENT_3D('',#903,#711,#712);
#639=AXIS2_PLACEMENT_3D('',#907,#714,#715);
#640=AXIS2_PLACEMENT_3D('',#911,#717,#718);
#641=AXIS2_PLACEMENT_3D('',#917,#721,#722);
#642=AXIS2_PLACEMENT_3D('',#921,#724,#725);
#643=AXIS2_PLACEMENT_3D('',#925,#727,#728);
#644=AXIS2_PLACEMENT_3D('',#929,#730,#731);
#645=AXIS2_PLACEMENT_3D('',#930,#732,#733);
#646=AXIS2_PLACEMENT_3D('',#932,#734,#735);
#647=AXIS2_PLACEMENT_3D('',#938,#739,#740);
#648=AXIS2_PLACEMENT_3D('',#944,#744,#745);
#649=AXIS2_PLACEMENT_3D('',#950,#749,#750);
#650=AXIS2_PLACEMENT_3D('',#956,#754,#755);
#651=AXIS2_PLACEMENT_3D('',#957,#756,#757);
#652=AXIS2_PLACEMENT_3D('',#962,#759,#760);
#653=AXIS2_PLACEMENT_3D('',#966,#762,#763);
#654=AXIS2_PLACEMENT_3D('',#970,#765,#766);
#655=AXIS2_PLACEMENT_3D('',#973,#768,#769);
#656=AXIS2_PLACEMENT_3D('',#977,#771,#772);
#657=AXIS2_PLACEMENT_3D('',#981,#774,#775);
#658=AXIS2_PLACEMENT_3D('',#985,#777,#778);
#659=AXIS2_PLACEMENT_3D('',#989,#780,#781);
#660=AXIS2_PLACEMENT_3D('',#990,#782,#783);
#661=AXIS2_PLACEMENT_3D('',#996,#787,#788);
#662=AXIS2_PLACEMENT_3D('',#1002,#792,#793);
#663=AXIS2_PLACEMENT_3D('',#1008,#797,#798);
#664=AXIS2_PLACEMENT_3D('',#1014,#802,#803);
#665=AXIS2_PLACEMENT_3D('',#1015,#804,#805);
#666=AXIS2_PLACEMENT_3D('',#1016,#806,#807);
#667=AXIS2_PLACEMENT_3D('',#1017,#808,#809);
#668=AXIS2_PLACEMENT_3D('',#1018,#810,#811);
#669=AXIS2_PLACEMENT_3D('',#1019,#812,#813);
#670=AXIS2_PLACEMENT_3D('',#1020,#814,#815);
#671=AXIS2_PLACEMENT_3D('',#1021,#816,#817);
#672=AXIS2_PLACEMENT_3D('',#1022,#818,#819);
#673=AXIS2_PLACEMENT_3D('',#1023,#820,#821);
#674=AXIS2_PLACEMENT_3D('',#1024,#822,#823);
#675=AXIS2_PLACEMENT_3D('',#1025,#824,#825);
#676=AXIS2_PLACEMENT_3D('',#1026,#826,#827);
#677=AXIS2_PLACEMENT_3D('',#1027,#828,#829);
#678=AXIS2_PLACEMENT_3D('',#1028,#830,#831);
#679=AXIS2_PLACEMENT_3D('',#1029,#832,#833);
#680=AXIS2_PLACEMENT_3D('',#1030,#834,#835);
#681=AXIS2_PLACEMENT_3D('',#1033,#838,#839);
#682=AXIS2_PLACEMENT_3D('',#1035,#841,#842);
#683=AXIS2_PLACEMENT_3D('',#1037,#844,#845);
#684=AXIS2_PLACEMENT_3D('',#1039,#847,#848);
#685=AXIS2_PLACEMENT_3D('',#1041,#850,#851);
#686=AXIS2_PLACEMENT_3D('',#1043,#853,#854);
#687=AXIS2_PLACEMENT_3D('',#1045,#856,#857);
#688=AXIS2_PLACEMENT_3D('',#1046,#858,#859);
#689=AXIS2_PLACEMENT_3D('',#1049,#862,#863);
#690=AXIS2_PLACEMENT_3D('',#1051,#865,#866);
#691=AXIS2_PLACEMENT_3D('',#1053,#868,#869);
#692=AXIS2_PLACEMENT_3D('',#1055,#871,#872);
#693=AXIS2_PLACEMENT_3D('',#1057,#874,#875);
#694=AXIS2_PLACEMENT_3D('',#1059,#877,#878);
#695=AXIS2_PLACEMENT_3D('',#1061,#880,#881);
#696=AXIS2_PLACEMENT_3D('',#1062,#882,#883);
#697=AXIS2_PLACEMENT_3D('',#1063,#884,#885);
#698=AXIS2_PLACEMENT_3D('',#1065,#886,#887);
#699=AXIS2_PLACEMENT_3D('',#1066,#888,#889);
#700=AXIS2_PLACEMENT_3D('',#1067,#890,#891);
#701=AXIS2_PLACEMENT_3D('',#1069,#892,#893);
#702=DIRECTION('',(0.,0.,1.));
#703=DIRECTION('',(1.,0.,0.));
#704=DIRECTION('',(0.,0.,1.));
#705=DIRECTION('',(1.,0.,0.));
#706=DIRECTION('',(0.,0.,-1.));
#707=DIRECTION('',(1.,0.,0.));
#708=DIRECTION('',(0.,0.,1.));
#709=DIRECTION('',(1.,0.,0.));
#710=DIRECTION('',(7.88510670898549E-17,1.,0.));
#711=DIRECTION('',(0.,0.,1.));
#712=DIRECTION('',(1.,0.,0.));
#713=DIRECTION('',(1.,0.,0.));
#714=DIRECTION('',(0.,0.,1.));
#715=DIRECTION('',(1.,0.,0.));
#716=DIRECTION('',(-7.88510670898549E-17,-1.,0.));
#717=DIRECTION('',(0.,0.,1.));
#718=DIRECTION('',(1.,0.,0.));
#719=DIRECTION('',(-1.,0.,0.));
#720=DIRECTION('',(3.33600668457079E-16,-1.,0.));
#721=DIRECTION('',(0.,0.,1.));
#722=DIRECTION('',(1.,0.,0.));
#723=DIRECTION('',(-1.,-2.31296463463574E-16,0.));
#724=DIRECTION('',(0.,0.,1.));
#725=DIRECTION('',(1.,0.,0.));
#726=DIRECTION('',(3.33600668457079E-16,-1.,0.));
#727=DIRECTION('',(0.,0.,1.));
#728=DIRECTION('',(1.,0.,0.));
#729=DIRECTION('',(-1.,-1.15648231731787E-16,0.));
#730=DIRECTION('',(0.,0.,1.));
#731=DIRECTION('',(1.,0.,0.));
#732=DIRECTION('',(0.,0.,1.));
#733=DIRECTION('',(1.,0.,0.));
#734=DIRECTION('',(1.,3.33600668457079E-16,0.));
#735=DIRECTION('',(-3.33600668457079E-16,1.,0.));
#736=DIRECTION('',(0.,0.,-1.));
#737=DIRECTION('',(-3.33600668457079E-16,1.,0.));
#738=DIRECTION('',(0.,0.,-1.));
#739=DIRECTION('',(2.31296463463574E-16,-1.,0.));
#740=DIRECTION('',(1.,2.31296463463574E-16,0.));
#741=DIRECTION('',(0.,0.,-1.));
#742=DIRECTION('',(-1.,-2.31296463463574E-16,0.));
#743=DIRECTION('',(0.,0.,-1.));
#744=DIRECTION('',(1.,3.33600668457079E-16,0.));
#745=DIRECTION('',(-3.33600668457079E-16,1.,0.));
#746=DIRECTION('',(0.,0.,-1.));
#747=DIRECTION('',(3.33600668457079E-16,-1.,0.));
#748=DIRECTION('',(0.,0.,-1.));
#749=DIRECTION('',(1.15648231731787E-16,-1.,0.));
#750=DIRECTION('',(1.,1.15648231731787E-16,0.));
#751=DIRECTION('',(0.,0.,-1.));
#752=DIRECTION('',(1.,1.15648231731787E-16,0.));
#753=DIRECTION('',(0.,0.,-1.));
#754=DIRECTION('',(0.,0.,1.));
#755=DIRECTION('',(1.,0.,0.));
#756=DIRECTION('',(0.,0.,1.));
#757=DIRECTION('',(1.,0.,0.));
#758=DIRECTION('',(-3.33600668457079E-16,1.,0.));
#759=DIRECTION('',(0.,0.,1.));
#760=DIRECTION('',(1.,0.,0.));
#761=DIRECTION('',(1.,2.31296463463574E-16,0.));
#762=DIRECTION('',(0.,0.,1.));
#763=DIRECTION('',(1.,0.,0.));
#764=DIRECTION('',(3.33600668457079E-16,-1.,0.));
#765=DIRECTION('',(0.,0.,1.));
#766=DIRECTION('',(1.,0.,0.));
#767=DIRECTION('',(-1.,-1.15648231731787E-16,0.));
#768=DIRECTION('',(0.,0.,1.));
#769=DIRECTION('',(1.,0.,0.));
#770=DIRECTION('',(-7.88510670898549E-17,-1.,0.));
#771=DIRECTION('',(0.,0.,1.));
#772=DIRECTION('',(1.,0.,0.));
#773=DIRECTION('',(-1.,0.,0.));
#774=DIRECTION('',(0.,0.,1.));
#775=DIRECTION('',(1.,0.,0.));
#776=DIRECTION('',(-7.88510670898549E-17,-1.,0.));
#777=DIRECTION('',(0.,0.,1.));
#778=DIRECTION('',(1.,0.,0.));
#779=DIRECTION('',(-1.,0.,0.));
#780=DIRECTION('',(0.,0.,1.));
#781=DIRECTION('',(1.,0.,0.));
#782=DIRECTION('',(1.,-7.88510670898549E-17,0.));
#783=DIRECTION('',(7.88510670898549E-17,1.,0.));
#784=DIRECTION('',(0.,0.,-1.));
#785=DIRECTION('',(-7.88510670898549E-17,-1.,0.));
#786=DIRECTION('',(0.,0.,-1.));
#787=DIRECTION('',(0.,-1.,0.));
#788=DIRECTION('',(0.,0.,-1.));
#789=DIRECTION('',(0.,0.,-1.));
#790=DIRECTION('',(1.,0.,0.));
#791=DIRECTION('',(0.,0.,-1.));
#792=DIRECTION('',(1.,-7.88510670898549E-17,0.));
#793=DIRECTION('',(7.88510670898549E-17,1.,0.));
#794=DIRECTION('',(0.,0.,-1.));
#795=DIRECTION('',(7.88510670898549E-17,1.,0.));
#796=DIRECTION('',(0.,0.,-1.));
#797=DIRECTION('',(0.,-1.,0.));
#798=DIRECTION('',(0.,0.,-1.));
#799=DIRECTION('',(0.,0.,-1.));
#800=DIRECTION('',(-1.,0.,0.));
#801=DIRECTION('',(0.,0.,-1.));
#802=DIRECTION('',(0.,0.,1.));
#803=DIRECTION('',(1.,0.,0.));
#804=DIRECTION('',(0.,0.,1.));
#805=DIRECTION('',(1.,0.,0.));
#806=DIRECTION('',(0.,0.,-1.));
#807=DIRECTION('',(-1.,0.,0.));
#808=DIRECTION('',(0.,0.,1.));
#809=DIRECTION('',(1.,0.,0.));
#810=DIRECTION('',(0.,0.,-1.));
#811=DIRECTION('',(-1.,0.,0.));
#812=DIRECTION('',(0.,0.,1.));
#813=DIRECTION('',(1.,0.,0.));
#814=DIRECTION('',(0.,0.,1.));
#815=DIRECTION('',(1.,0.,0.));
#816=DIRECTION('',(0.,0.,1.));
#817=DIRECTION('',(1.,0.,0.));
#818=DIRECTION('',(0.,0.,-1.));
#819=DIRECTION('',(-1.,0.,0.));
#820=DIRECTION('',(0.,0.,1.));
#821=DIRECTION('',(1.,0.,0.));
#822=DIRECTION('',(0.,0.,1.));
#823=DIRECTION('',(1.,0.,0.));
#824=DIRECTION('',(0.,0.,1.));
#825=DIRECTION('',(1.,0.,0.));
#826=DIRECTION('',(0.,0.,1.));
#827=DIRECTION('',(1.,0.,0.));
#828=DIRECTION('',(0.,0.,1.));
#829=DIRECTION('',(1.,0.,0.));
#830=DIRECTION('',(0.,0.,-1.));
#831=DIRECTION('',(-1.,0.,0.));
#832=DIRECTION('',(0.,0.,1.));
#833=DIRECTION('',(1.,0.,0.));
#834=DIRECTION('',(0.707106781186548,2.35891294874366E-16,-0.707106781186547));
#835=DIRECTION('',(-3.33600668457079E-16,1.,0.));
#836=DIRECTION('',(0.707106781186548,0.,0.707106781186547));
#837=DIRECTION('',(-0.707106781186548,0.,-0.707106781186547));
#838=DIRECTION('',(0.,0.,1.));
#839=DIRECTION('',(1.,0.,0.));
#840=DIRECTION('',(0.,-0.707106781186548,-0.707106781186548));
#841=DIRECTION('',(0.,0.,1.));
#842=DIRECTION('',(1.,0.,0.));
#843=DIRECTION('',(0.,-0.707106781186548,0.707106781186548));
#844=DIRECTION('',(1.6355129777956E-16,-0.707106781186548,0.707106781186548));
#845=DIRECTION('',(-1.,-2.31296463463574E-16,0.));
#846=DIRECTION('',(0.,-0.707106781186547,-0.707106781186548));
#847=DIRECTION('',(8.177564888978E-17,-0.707106781186548,-0.707106781186548));
#848=DIRECTION('',(1.,1.15648231731787E-16,0.));
#849=DIRECTION('',(0.,-0.707106781186548,0.707106781186548));
#850=DIRECTION('',(0.,0.,1.));
#851=DIRECTION('',(1.,0.,0.));
#852=DIRECTION('',(0.707106781186548,0.,-0.707106781186548));
#853=DIRECTION('',(0.,0.,1.));
#854=DIRECTION('',(1.,0.,0.));
#855=DIRECTION('',(-0.707106781186548,0.,0.707106781186548));
#856=DIRECTION('',(0.707106781186547,2.35891294874365E-16,0.707106781186548));
#857=DIRECTION('',(3.33600668457079E-16,-1.,0.));
#858=DIRECTION('',(-0.707106781186548,5.57561242430318E-17,0.707106781186548));
#859=DIRECTION('',(7.88510670898549E-17,1.,0.));
#860=DIRECTION('',(-0.707106781186548,0.,-0.707106781186548));
#861=DIRECTION('',(0.707106781186548,0.,0.707106781186547));
#862=DIRECTION('',(0.,0.,1.));
#863=DIRECTION('',(1.,0.,0.));
#864=DIRECTION('',(0.,0.707106781186548,0.707106781186548));
#865=DIRECTION('',(0.,0.,1.));
#866=DIRECTION('',(1.,0.,0.));
#867=DIRECTION('',(0.,0.707106781186548,-0.707106781186548));
#868=DIRECTION('',(0.,0.707106781186548,-0.707106781186548));
#869=DIRECTION('',(-1.,0.,0.));
#870=DIRECTION('',(0.,0.707106781186548,0.707106781186548));
#871=DIRECTION('',(0.,0.707106781186548,0.707106781186548));
#872=DIRECTION('',(1.,0.,0.));
#873=DIRECTION('',(0.,0.707106781186548,-0.707106781186548));
#874=DIRECTION('',(0.,0.,1.));
#875=DIRECTION('',(1.,0.,0.));
#876=DIRECTION('',(-0.707106781186548,0.,0.707106781186548));
#877=DIRECTION('',(0.,0.,1.));
#878=DIRECTION('',(1.,0.,0.));
#879=DIRECTION('',(0.707106781186548,0.,-0.707106781186548));
#880=DIRECTION('',(-0.707106781186547,5.57561242430318E-17,-0.707106781186548));
#881=DIRECTION('',(-7.88510670898549E-17,-1.,0.));
#882=DIRECTION('',(0.,0.,1.));
#883=DIRECTION('',(1.,0.,0.));
#884=DIRECTION('',(0.,0.,-1.));
#885=DIRECTION('',(1.,0.,0.));
#886=DIRECTION('',(0.,0.,1.));
#887=DIRECTION('',(1.,0.,0.));
#888=DIRECTION('',(0.,0.,1.));
#889=DIRECTION('',(1.,0.,0.));
#890=DIRECTION('',(0.,0.,1.));
#891=DIRECTION('',(1.,0.,0.));
#892=DIRECTION('',(0.,0.,1.));
#893=DIRECTION('',(1.,0.,0.));
#894=CARTESIAN_POINT('',(0.,0.,0.));
#895=CARTESIAN_POINT('',(3.46944695195361E-18,0.00075,0.026));
#896=CARTESIAN_POINT('',(0.006,0.007,0.026));
#897=CARTESIAN_POINT('',(0.0065,0.007,0.026));
#898=CARTESIAN_POINT('',(-0.0057,-0.0047,0.026));
#899=CARTESIAN_POINT('',(-0.0057,-0.006,0.026));
#900=CARTESIAN_POINT('',(-0.007,-0.0047,0.026));
#901=CARTESIAN_POINT('',(-0.007,0.00075,0.026));
#902=CARTESIAN_POINT('',(-0.007,0.0047,0.026));
#903=CARTESIAN_POINT('',(-0.0057,0.0047,0.026));
#904=CARTESIAN_POINT('',(-0.0057,0.006,0.026));
#905=CARTESIAN_POINT('',(3.46944695195361E-18,0.006,0.026));
#906=CARTESIAN_POINT('',(0.0057,0.006,0.026));
#907=CARTESIAN_POINT('',(0.0057,0.0047,0.026));
#908=CARTESIAN_POINT('',(0.007,0.0047,0.026));
#909=CARTESIAN_POINT('',(0.007,-0.0047,0.026));
#910=CARTESIAN_POINT('',(0.007,-0.0047,0.026));
#911=CARTESIAN_POINT('',(0.0057,-0.0047,0.026));
#912=CARTESIAN_POINT('',(0.0057,-0.006,0.026));
#913=CARTESIAN_POINT('',(-0.0057,-0.006,0.026));
#914=CARTESIAN_POINT('',(0.0075,8.67361737988404E-19,0.026));
#915=CARTESIAN_POINT('',(0.0075,0.00679289321881345,0.026));
#916=CARTESIAN_POINT('',(0.0075,-0.00529289321881345,0.026));
#917=CARTESIAN_POINT('',(0.00629289321881345,0.00679289321881345,0.026));
#918=CARTESIAN_POINT('',(0.00629289321881345,0.008,0.026));
#919=CARTESIAN_POINT('',(-1.7347234759768E-18,0.008,0.026));
#920=CARTESIAN_POINT('',(-0.00629289321881345,0.008,0.026));
#921=CARTESIAN_POINT('',(-0.00629289321881345,0.00679289321881345,0.026));
#922=CARTESIAN_POINT('',(-0.0075,0.00679289321881345,0.026));
#923=CARTESIAN_POINT('',(-0.0075,-8.67361737988404E-19,0.026));
#924=CARTESIAN_POINT('',(-0.0075,-0.00529289321881345,0.026));
#925=CARTESIAN_POINT('',(-0.00629289321881345,-0.00529289321881345,0.026));
#926=CARTESIAN_POINT('',(-0.00629289321881345,-0.0065,0.026));
#927=CARTESIAN_POINT('',(8.67361737988404E-19,-0.0065,0.026));
#928=CARTESIAN_POINT('',(0.00629289321881346,-0.0065,0.026));
#929=CARTESIAN_POINT('',(0.00629289321881346,-0.00529289321881345,0.026));
#930=CARTESIAN_POINT('',(-0.006,0.007,0.026));
#931=CARTESIAN_POINT('',(-0.0055,0.007,0.026));
#932=CARTESIAN_POINT('',(0.0075,8.67361737988404E-19,0.024));
#933=CARTESIAN_POINT('',(0.0075,-0.00529289321881345,0.024));
#934=CARTESIAN_POINT('',(0.0075,-0.00529289321881345,0.0005));
#935=CARTESIAN_POINT('',(0.0075,0.00679289321881345,0.0005));
#936=CARTESIAN_POINT('',(0.0075,0.00679289321881345,0.0005));
#937=CARTESIAN_POINT('',(0.0075,0.00679289321881345,0.026));
#938=CARTESIAN_POINT('',(-1.7347234759768E-18,0.008,0.024));
#939=CARTESIAN_POINT('',(0.00629289321881345,0.008,0.));
#940=CARTESIAN_POINT('',(0.00629289321881345,0.008,0.0005));
#941=CARTESIAN_POINT('',(-1.7347234759768E-18,0.008,0.0005));
#942=CARTESIAN_POINT('',(-0.00629289321881345,0.008,0.0005));
#943=CARTESIAN_POINT('',(-0.00629289321881345,0.008,0.024));
#944=CARTESIAN_POINT('',(-0.0075,-8.67361737988404E-19,0.024));
#945=CARTESIAN_POINT('',(-0.0075,0.00679289321881345,0.024));
#946=CARTESIAN_POINT('',(-0.0075,0.00679289321881345,0.0005));
#947=CARTESIAN_POINT('',(-0.0075,-8.67361737988404E-19,0.0005));
#948=CARTESIAN_POINT('',(-0.0075,-0.00529289321881345,0.0005));
#949=CARTESIAN_POINT('',(-0.0075,-0.00529289321881345,0.026));
#950=CARTESIAN_POINT('',(8.67361737988404E-19,-0.0065,0.024));
#951=CARTESIAN_POINT('',(-0.00629289321881345,-0.0065,0.));
#952=CARTESIAN_POINT('',(-0.00629289321881345,-0.0065,0.0005));
#953=CARTESIAN_POINT('',(0.00629289321881346,-0.0065,0.0005));
#954=CARTESIAN_POINT('',(0.00629289321881346,-0.0065,0.0005));
#955=CARTESIAN_POINT('',(0.00629289321881346,-0.0065,0.024));
#956=CARTESIAN_POINT('',(3.46944695195361E-18,0.00075,0.));
#957=CARTESIAN_POINT('',(-0.00629289321881345,-0.00529289321881345,0.));
#958=CARTESIAN_POINT('',(-0.00629289321881345,-0.006,0.));
#959=CARTESIAN_POINT('',(-0.007,-0.00529289321881345,0.));
#960=CARTESIAN_POINT('',(-0.007,0.00075,0.));
#961=CARTESIAN_POINT('',(-0.007,0.00679289321881345,0.));
#962=CARTESIAN_POINT('',(-0.00629289321881345,0.00679289321881345,0.));
#963=CARTESIAN_POINT('',(-0.00629289321881345,0.0075,0.));
#964=CARTESIAN_POINT('',(1.90819582357449E-18,0.0075,0.));
#965=CARTESIAN_POINT('',(0.00629289321881345,0.0075,0.));
#966=CARTESIAN_POINT('',(0.00629289321881345,0.00679289321881345,0.));
#967=CARTESIAN_POINT('',(0.007,0.00679289321881345,0.));
#968=CARTESIAN_POINT('',(0.007,-0.00529289321881345,0.));
#969=CARTESIAN_POINT('',(0.007,-0.00529289321881345,0.));
#970=CARTESIAN_POINT('',(0.00629289321881346,-0.00529289321881345,0.));
#971=CARTESIAN_POINT('',(0.00629289321881346,-0.006,0.));
#972=CARTESIAN_POINT('',(-0.00629289321881345,-0.006,0.));
#973=CARTESIAN_POINT('',(0.,0.,0.002));
#974=CARTESIAN_POINT('',(0.0065,0.,0.002));
#975=CARTESIAN_POINT('',(0.0065,0.0047,0.002));
#976=CARTESIAN_POINT('',(0.0065,-0.0047,0.002));
#977=CARTESIAN_POINT('',(0.0057,0.0047,0.002));
#978=CARTESIAN_POINT('',(0.0057,0.0055,0.002));
#979=CARTESIAN_POINT('',(0.,0.0055,0.002));
#980=CARTESIAN_POINT('',(-0.0057,0.0055,0.002));
#981=CARTESIAN_POINT('',(-0.0057,0.0047,0.002));
#982=CARTESIAN_POINT('',(-0.0065,0.0047,0.002));
#983=CARTESIAN_POINT('',(-0.0065,0.,0.002));
#984=CARTESIAN_POINT('',(-0.0065,-0.0047,0.002));
#985=CARTESIAN_POINT('',(-0.0057,-0.0047,0.002));
#986=CARTESIAN_POINT('',(-0.0057,-0.0055,0.002));
#987=CARTESIAN_POINT('',(0.,-0.0055,0.002));
#988=CARTESIAN_POINT('',(0.0057,-0.0055,0.002));
#989=CARTESIAN_POINT('',(0.0057,-0.0047,0.002));
#990=CARTESIAN_POINT('',(-0.0065,0.,0.024));
#991=CARTESIAN_POINT('',(-0.0065,0.0047,0.026));
#992=CARTESIAN_POINT('',(-0.0065,0.0047,0.0255));
#993=CARTESIAN_POINT('',(-0.0065,0.,0.0255));
#994=CARTESIAN_POINT('',(-0.0065,-0.0047,0.0255));
#995=CARTESIAN_POINT('',(-0.0065,-0.0047,0.024));
#996=CARTESIAN_POINT('',(0.,-0.0055,0.024));
#997=CARTESIAN_POINT('',(-0.0057,-0.0055,0.024));
#998=CARTESIAN_POINT('',(-0.0057,-0.0055,0.0255));
#999=CARTESIAN_POINT('',(0.0057,-0.0055,0.0255));
#1000=CARTESIAN_POINT('',(0.0057,-0.0055,0.0255));
#1001=CARTESIAN_POINT('',(0.0057,-0.0055,0.002));
#1002=CARTESIAN_POINT('',(0.0065,0.,0.024));
#1003=CARTESIAN_POINT('',(0.0065,-0.0047,0.026));
#1004=CARTESIAN_POINT('',(0.0065,-0.0047,0.0255));
#1005=CARTESIAN_POINT('',(0.0065,0.0047,0.0255));
#1006=CARTESIAN_POINT('',(0.0065,0.0047,0.0255));
#1007=CARTESIAN_POINT('',(0.0065,0.0047,0.024));
#1008=CARTESIAN_POINT('',(0.,0.0055,0.024));
#1009=CARTESIAN_POINT('',(0.0057,0.0055,0.024));
#1010=CARTESIAN_POINT('',(0.0057,0.0055,0.0255));
#1011=CARTESIAN_POINT('',(0.,0.0055,0.0255));
#1012=CARTESIAN_POINT('',(-0.0057,0.0055,0.0255));
#1013=CARTESIAN_POINT('',(-0.0057,0.0055,0.002));
#1014=CARTESIAN_POINT('',(0.00629289321881345,0.00679289321881345,0.024));
#1015=CARTESIAN_POINT('',(0.00629289321881345,0.00679289321881345,0.0005));
#1016=CARTESIAN_POINT('',(-0.00629289321881345,0.00679289321881345,0.024));
#1017=CARTESIAN_POINT('',(-0.00629289321881345,0.00679289321881345,0.0005));
#1018=CARTESIAN_POINT('',(0.00629289321881346,-0.00529289321881345,0.024));
#1019=CARTESIAN_POINT('',(0.00629289321881346,-0.00529289321881345,0.0005));
#1020=CARTESIAN_POINT('',(-0.00629289321881345,-0.00529289321881345,0.024));
#1021=CARTESIAN_POINT('',(-0.00629289321881345,-0.00529289321881345,0.0005));
#1022=CARTESIAN_POINT('',(0.0057,0.0047,0.024));
#1023=CARTESIAN_POINT('',(0.0057,0.0047,0.0255));
#1024=CARTESIAN_POINT('',(0.0057,-0.0047,0.024));
#1025=CARTESIAN_POINT('',(0.0057,-0.0047,0.0255));
#1026=CARTESIAN_POINT('',(-0.0057,0.0047,0.024));
#1027=CARTESIAN_POINT('',(-0.0057,0.0047,0.0255));
#1028=CARTESIAN_POINT('',(-0.0057,-0.0047,0.024));
#1029=CARTESIAN_POINT('',(-0.0057,-0.0047,0.0255));
#1030=CARTESIAN_POINT('',(0.007,0.00075,0.));
#1031=CARTESIAN_POINT('',(0.007,-0.00529289321881345,0.));
#1032=CARTESIAN_POINT('',(0.0075,0.00679289321881345,0.0005));
#1033=CARTESIAN_POINT('',(0.00629289321881345,0.00679289321881345,0.));
#1034=CARTESIAN_POINT('',(0.00629289321881345,0.008,0.0005));
#1035=CARTESIAN_POINT('',(0.00629289321881346,-0.00529289321881345,0.));
#1036=CARTESIAN_POINT('',(0.00629289321881346,-0.006,0.));
#1037=CARTESIAN_POINT('',(-1.7347234759768E-18,0.008,0.0005));
#1038=CARTESIAN_POINT('',(-0.00629289321881345,0.008,0.0005));
#1039=CARTESIAN_POINT('',(4.25007251614318E-18,-0.006,0.));
#1040=CARTESIAN_POINT('',(-0.00629289321881345,-0.006,0.));
#1041=CARTESIAN_POINT('',(-0.00629289321881345,0.00679289321881345,0.));
#1042=CARTESIAN_POINT('',(-0.0075,0.00679289321881345,0.0005));
#1043=CARTESIAN_POINT('',(-0.00629289321881345,-0.00529289321881345,0.));
#1044=CARTESIAN_POINT('',(-0.007,-0.00529289321881345,0.));
#1045=CARTESIAN_POINT('',(-0.0075,-8.67361737988404E-19,0.0005));
#1046=CARTESIAN_POINT('',(0.007,0.00075,0.026));
#1047=CARTESIAN_POINT('',(0.007,-0.0047,0.026));
#1048=CARTESIAN_POINT('',(0.0065,0.0047,0.0255));
#1049=CARTESIAN_POINT('',(0.0057,0.0047,0.026));
#1050=CARTESIAN_POINT('',(0.0057,0.0055,0.0255));
#1051=CARTESIAN_POINT('',(0.0057,-0.0047,0.026));
#1052=CARTESIAN_POINT('',(0.0057,-0.006,0.026));
#1053=CARTESIAN_POINT('',(0.,0.0055,0.0255));
#1054=CARTESIAN_POINT('',(-0.0057,0.0055,0.0255));
#1055=CARTESIAN_POINT('',(3.46944695195361E-18,-0.006,0.026));
#1056=CARTESIAN_POINT('',(-0.0057,-0.006,0.026));
#1057=CARTESIAN_POINT('',(-0.0057,0.0047,0.026));
#1058=CARTESIAN_POINT('',(-0.0065,0.0047,0.0255));
#1059=CARTESIAN_POINT('',(-0.0057,-0.0047,0.026));
#1060=CARTESIAN_POINT('',(-0.007,-0.0047,0.026));
#1061=CARTESIAN_POINT('',(-0.0065,0.,0.0255));
#1062=CARTESIAN_POINT('',(0.006,0.007,0.023));
#1063=CARTESIAN_POINT('',(0.006,0.007,0.023));
#1064=CARTESIAN_POINT('',(0.0065,0.007,0.023));
#1065=CARTESIAN_POINT('',(6.93889390390723E-18,0.00100968412309885,0.023));
#1066=CARTESIAN_POINT('',(-0.006,0.007,0.023));
#1067=CARTESIAN_POINT('',(-0.006,0.007,0.023));
#1068=CARTESIAN_POINT('',(-0.0055,0.007,0.023));
#1069=CARTESIAN_POINT('',(6.93889390390723E-18,0.00100968412309885,0.023));
#1070=MECHANICAL_DESIGN_GEOMETRIC_PRESENTATION_REPRESENTATION('',(#623),
#1071);
#1071=(
GEOMETRIC_REPRESENTATION_CONTEXT(3)
GLOBAL_UNCERTAINTY_ASSIGNED_CONTEXT((#1072))
GLOBAL_UNIT_ASSIGNED_CONTEXT((#1075,#1074,#1073))
REPRESENTATION_CONTEXT('Part 1','TOP_LEVEL_ASSEMBLY_PART')
);
#1072=UNCERTAINTY_MEASURE_WITH_UNIT(LENGTH_MEASURE(1.E-8),#1075,
'DISTANCE_ACCURACY_VALUE','Maximum Tolerance applied to model');
#1073=(
NAMED_UNIT(*)
SI_UNIT($,.STERADIAN.)
SOLID_ANGLE_UNIT()
);
#1074=(
NAMED_UNIT(*)
PLANE_ANGLE_UNIT()
SI_UNIT($,.RADIAN.)
);
#1075=(
LENGTH_UNIT()
NAMED_UNIT(*)
SI_UNIT($,.METRE.)
);
#1076=PRODUCT_DEFINITION_SHAPE('','',#1077);
#1077=PRODUCT_DEFINITION('','',#1079,#1078);
#1078=PRODUCT_DEFINITION_CONTEXT('',#1085,'design');
#1079=PRODUCT_DEFINITION_FORMATION_WITH_SPECIFIED_SOURCE('','',#1081,
 .NOT_KNOWN.);
#1080=PRODUCT_RELATED_PRODUCT_CATEGORY('','',(#1081));
#1081=PRODUCT('Part 1','Part 1','Part 1',(#1083));
#1082=PRODUCT_CATEGORY('','');
#1083=PRODUCT_CONTEXT('',#1085,'mechanical');
#1084=APPLICATION_PROTOCOL_DEFINITION('international standard',
'ap242_managed_model_based_3d_engineering',2020,#1085);
#1085=APPLICATION_CONTEXT('managed model based 3d engineering');
ENDSEC;
END-ISO-10303-21;
