ISO-10303-21;
HEADER;
/* Generated by software containing ST-Developer
 * from STEP Tools, Inc. (www.steptools.com) 
 */
/* OPTION: using custom renumber hook */

FILE_DESCRIPTION(
/* description */ ('STEP AP242 Edition 2',
'CAx-IF Rec.Pracs.---Representation and Presentation of Product Manufa
cturing Information (PMI)---4.0---2014-10-13',
'CAx-IF Rec.Pracs.---3D Tessellated Geometry---0.4---2014-09-14','2;1',
'CAx-IF Rec.Pracs.---User Defined Attributes---1.5---2016-08-15'),
/* implementation_level */ '2;1');

FILE_NAME(
/* name */ 'Part Studio 1',
/* time_stamp */ '2026-05-30T05:20:58Z',
/* author */ (''),
/* organization */ (''),
/* preprocessor_version */ 'ST-DEVELOPER v20',
/* originating_system */ 'ONSHAPE BY PTC INC, 1.215',
/* authorisation */ '  ');

FILE_SCHEMA (('AP242_MANAGED_MODEL_BASED_3D_ENGINEERING_MIM_LF { 1 0 10303 442 3 1 4 }'));
ENDSEC;

DATA;
#10=SHAPE_REPRESENTATION_RELATIONSHIP('','',#297,#11);
#11=ADVANCED_BREP_SHAPE_REPRESENTATION('',(#295),#521);
#12=PLANE('',#308);
#13=PLANE('',#309);
#14=PLANE('',#310);
#15=PLANE('',#315);
#16=PLANE('',#316);
#17=PLANE('',#317);
#18=PLANE('',#318);
#19=PLANE('',#319);
#20=PLANE('',#320);
#21=CIRCLE('',#300,0.056);
#22=CIRCLE('',#301,0.056);
#23=CIRCLE('',#303,0.056);
#24=CIRCLE('',#304,0.056);
#25=CIRCLE('',#306,0.051);
#26=CIRCLE('',#307,0.051);
#27=LINE('',#425,#51);
#28=LINE('',#430,#52);
#29=LINE('',#437,#53);
#30=LINE('',#441,#54);
#31=LINE('',#480,#55);
#32=LINE('',#482,#56);
#33=LINE('',#484,#57);
#34=LINE('',#485,#58);
#35=LINE('',#487,#59);
#36=LINE('',#489,#60);
#37=LINE('',#491,#61);
#38=LINE('',#493,#62);
#39=LINE('',#495,#63);
#40=LINE('',#496,#64);
#41=LINE('',#498,#65);
#42=LINE('',#500,#66);
#43=LINE('',#503,#67);
#44=LINE('',#504,#68);
#45=LINE('',#506,#69);
#46=LINE('',#508,#70);
#47=LINE('',#511,#71);
#48=LINE('',#512,#72);
#49=LINE('',#516,#73);
#50=LINE('',#518,#74);
#51=VECTOR('',#325,1.);
#52=VECTOR('',#328,1.);
#53=VECTOR('',#335,1.);
#54=VECTOR('',#338,1.);
#55=VECTOR('',#347,1.);
#56=VECTOR('',#348,1.);
#57=VECTOR('',#349,1.);
#58=VECTOR('',#350,1.);
#59=VECTOR('',#351,1.);
#60=VECTOR('',#352,1.);
#61=VECTOR('',#355,1.);
#62=VECTOR('',#356,1.);
#63=VECTOR('',#357,1.);
#64=VECTOR('',#358,1.);
#65=VECTOR('',#359,1.);
#66=VECTOR('',#360,1.);
#67=VECTOR('',#365,1.);
#68=VECTOR('',#366,1.);
#69=VECTOR('',#369,1.);
#70=VECTOR('',#372,1.);
#71=VECTOR('',#377,1.);
#72=VECTOR('',#378,1.);
#73=VECTOR('',#385,1.);
#74=VECTOR('',#388,1.);
#75=ORIENTED_EDGE('',*,*,#151,.T.);
#76=ORIENTED_EDGE('',*,*,#152,.T.);
#77=ORIENTED_EDGE('',*,*,#153,.T.);
#78=ORIENTED_EDGE('',*,*,#154,.T.);
#79=ORIENTED_EDGE('',*,*,#155,.F.);
#80=ORIENTED_EDGE('',*,*,#156,.T.);
#81=ORIENTED_EDGE('',*,*,#157,.T.);
#82=ORIENTED_EDGE('',*,*,#158,.F.);
#83=ORIENTED_EDGE('',*,*,#159,.T.);
#84=ORIENTED_EDGE('',*,*,#160,.T.);
#85=ORIENTED_EDGE('',*,*,#161,.F.);
#86=ORIENTED_EDGE('',*,*,#162,.F.);
#87=ORIENTED_EDGE('',*,*,#163,.F.);
#88=ORIENTED_EDGE('',*,*,#164,.F.);
#89=ORIENTED_EDGE('',*,*,#165,.F.);
#90=ORIENTED_EDGE('',*,*,#166,.F.);
#91=ORIENTED_EDGE('',*,*,#167,.F.);
#92=ORIENTED_EDGE('',*,*,#168,.T.);
#93=ORIENTED_EDGE('',*,*,#168,.F.);
#94=ORIENTED_EDGE('',*,*,#161,.T.);
#95=ORIENTED_EDGE('',*,*,#169,.F.);
#96=ORIENTED_EDGE('',*,*,#170,.T.);
#97=ORIENTED_EDGE('',*,*,#171,.T.);
#98=ORIENTED_EDGE('',*,*,#158,.T.);
#99=ORIENTED_EDGE('',*,*,#172,.F.);
#100=ORIENTED_EDGE('',*,*,#173,.F.);
#101=ORIENTED_EDGE('',*,*,#174,.T.);
#102=ORIENTED_EDGE('',*,*,#156,.F.);
#103=ORIENTED_EDGE('',*,*,#175,.F.);
#104=ORIENTED_EDGE('',*,*,#176,.F.);
#105=ORIENTED_EDGE('',*,*,#177,.T.);
#106=ORIENTED_EDGE('',*,*,#159,.F.);
#107=ORIENTED_EDGE('',*,*,#178,.F.);
#108=ORIENTED_EDGE('',*,*,#179,.T.);
#109=ORIENTED_EDGE('',*,*,#180,.T.);
#110=ORIENTED_EDGE('',*,*,#167,.T.);
#111=ORIENTED_EDGE('',*,*,#163,.T.);
#112=ORIENTED_EDGE('',*,*,#181,.T.);
#113=ORIENTED_EDGE('',*,*,#152,.F.);
#114=ORIENTED_EDGE('',*,*,#182,.F.);
#115=ORIENTED_EDGE('',*,*,#164,.T.);
#116=ORIENTED_EDGE('',*,*,#182,.T.);
#117=ORIENTED_EDGE('',*,*,#151,.F.);
#118=ORIENTED_EDGE('',*,*,#183,.F.);
#119=ORIENTED_EDGE('',*,*,#165,.T.);
#120=ORIENTED_EDGE('',*,*,#183,.T.);
#121=ORIENTED_EDGE('',*,*,#154,.F.);
#122=ORIENTED_EDGE('',*,*,#184,.F.);
#123=ORIENTED_EDGE('',*,*,#166,.T.);
#124=ORIENTED_EDGE('',*,*,#184,.T.);
#125=ORIENTED_EDGE('',*,*,#153,.F.);
#126=ORIENTED_EDGE('',*,*,#181,.F.);
#127=ORIENTED_EDGE('',*,*,#173,.T.);
#128=ORIENTED_EDGE('',*,*,#185,.F.);
#129=ORIENTED_EDGE('',*,*,#179,.F.);
#130=ORIENTED_EDGE('',*,*,#186,.T.);
#131=ORIENTED_EDGE('',*,*,#174,.F.);
#132=ORIENTED_EDGE('',*,*,#186,.F.);
#133=ORIENTED_EDGE('',*,*,#178,.T.);
#134=ORIENTED_EDGE('',*,*,#162,.T.);
#135=ORIENTED_EDGE('',*,*,#172,.T.);
#136=ORIENTED_EDGE('',*,*,#157,.F.);
#137=ORIENTED_EDGE('',*,*,#180,.F.);
#138=ORIENTED_EDGE('',*,*,#185,.T.);
#139=ORIENTED_EDGE('',*,*,#169,.T.);
#140=ORIENTED_EDGE('',*,*,#160,.F.);
#141=ORIENTED_EDGE('',*,*,#177,.F.);
#142=ORIENTED_EDGE('',*,*,#187,.T.);
#143=ORIENTED_EDGE('',*,*,#170,.F.);
#144=ORIENTED_EDGE('',*,*,#187,.F.);
#145=ORIENTED_EDGE('',*,*,#176,.T.);
#146=ORIENTED_EDGE('',*,*,#188,.T.);
#147=ORIENTED_EDGE('',*,*,#171,.F.);
#148=ORIENTED_EDGE('',*,*,#188,.F.);
#149=ORIENTED_EDGE('',*,*,#175,.T.);
#150=ORIENTED_EDGE('',*,*,#155,.T.);
#151=EDGE_CURVE('',#189,#190,#215,.T.);
#152=EDGE_CURVE('',#190,#191,#216,.T.);
#153=EDGE_CURVE('',#191,#192,#217,.T.);
#154=EDGE_CURVE('',#192,#189,#218,.T.);
#155=EDGE_CURVE('',#193,#194,#27,.T.);
#156=EDGE_CURVE('',#193,#195,#21,.T.);
#157=EDGE_CURVE('',#195,#196,#28,.T.);
#158=EDGE_CURVE('',#194,#196,#22,.T.);
#159=EDGE_CURVE('',#197,#198,#23,.T.);
#160=EDGE_CURVE('',#198,#199,#29,.T.);
#161=EDGE_CURVE('',#200,#199,#24,.T.);
#162=EDGE_CURVE('',#197,#200,#30,.T.);
#163=EDGE_CURVE('',#201,#202,#219,.T.);
#164=EDGE_CURVE('',#203,#201,#220,.T.);
#165=EDGE_CURVE('',#204,#203,#221,.T.);
#166=EDGE_CURVE('',#202,#204,#222,.T.);
#167=EDGE_CURVE('',#205,#205,#25,.T.);
#168=EDGE_CURVE('',#206,#206,#26,.T.);
#169=EDGE_CURVE('',#207,#199,#31,.T.);
#170=EDGE_CURVE('',#207,#208,#32,.T.);
#171=EDGE_CURVE('',#208,#194,#33,.T.);
#172=EDGE_CURVE('',#209,#196,#34,.T.);
#173=EDGE_CURVE('',#210,#209,#35,.T.);
#174=EDGE_CURVE('',#210,#200,#36,.T.);
#175=EDGE_CURVE('',#211,#193,#37,.T.);
#176=EDGE_CURVE('',#212,#211,#38,.T.);
#177=EDGE_CURVE('',#212,#198,#39,.T.);
#178=EDGE_CURVE('',#213,#197,#40,.T.);
#179=EDGE_CURVE('',#213,#214,#41,.T.);
#180=EDGE_CURVE('',#214,#195,#42,.T.);
#181=EDGE_CURVE('',#202,#191,#43,.T.);
#182=EDGE_CURVE('',#201,#190,#44,.T.);
#183=EDGE_CURVE('',#203,#189,#45,.T.);
#184=EDGE_CURVE('',#204,#192,#46,.T.);
#185=EDGE_CURVE('',#214,#209,#47,.T.);
#186=EDGE_CURVE('',#213,#210,#48,.T.);
#187=EDGE_CURVE('',#212,#207,#49,.T.);
#188=EDGE_CURVE('',#211,#208,#50,.T.);
#189=VERTEX_POINT('',#397);
#190=VERTEX_POINT('',#398);
#191=VERTEX_POINT('',#409);
#192=VERTEX_POINT('',#414);
#193=VERTEX_POINT('',#426);
#194=VERTEX_POINT('',#427);
#195=VERTEX_POINT('',#429);
#196=VERTEX_POINT('',#431);
#197=VERTEX_POINT('',#435);
#198=VERTEX_POINT('',#436);
#199=VERTEX_POINT('',#438);
#200=VERTEX_POINT('',#440);
#201=VERTEX_POINT('',#453);
#202=VERTEX_POINT('',#454);
#203=VERTEX_POINT('',#459);
#204=VERTEX_POINT('',#470);
#205=VERTEX_POINT('',#476);
#206=VERTEX_POINT('',#478);
#207=VERTEX_POINT('',#481);
#208=VERTEX_POINT('',#483);
#209=VERTEX_POINT('',#486);
#210=VERTEX_POINT('',#488);
#211=VERTEX_POINT('',#492);
#212=VERTEX_POINT('',#494);
#213=VERTEX_POINT('',#497);
#214=VERTEX_POINT('',#499);
#215=B_SPLINE_CURVE_WITH_KNOTS('',3,(#393,#394,#395,#396),.UNSPECIFIED.,
 .F.,.F.,(4,4),(0.,0.00312947825772188),.UNSPECIFIED.);
#216=B_SPLINE_CURVE_WITH_KNOTS('',3,(#399,#400,#401,#402,#403,#404,#405,
#406,#407,#408),.UNSPECIFIED.,.F.,.F.,(4,1,1,1,1,1,1,4),(6.52325804332213E-18,
0.00156501736994782,0.00313003473989563,0.00469505210984344,0.00626006947979125,
0.00782508684973906,0.00939010421968687,0.0125201389595825),
 .UNSPECIFIED.);
#217=B_SPLINE_CURVE_WITH_KNOTS('',3,(#410,#411,#412,#413),.UNSPECIFIED.,
 .F.,.F.,(4,4),(0.,0.00312947825772189),.UNSPECIFIED.);
#218=B_SPLINE_CURVE_WITH_KNOTS('',3,(#415,#416,#417,#418,#419,#420,#421,
#422,#423,#424),.UNSPECIFIED.,.F.,.F.,(4,1,1,1,1,1,1,4),(0.,0.00156501736994781,
0.00313003473989563,0.00469505210984344,0.00626006947979126,0.00782508684973907,
0.00939010421968689,0.0125201389595825),.UNSPECIFIED.);
#219=B_SPLINE_CURVE_WITH_KNOTS('',3,(#443,#444,#445,#446,#447,#448,#449,
#450,#451,#452),.UNSPECIFIED.,.F.,.F.,(4,1,1,1,1,1,1,4),(6.52325804332213E-18,
0.00156544613841006,0.00313089227682011,0.00469633841523016,0.0062617845536402,
0.00782723069205025,0.0093926768304603,0.0125235691072804),
 .UNSPECIFIED.);
#220=B_SPLINE_CURVE_WITH_KNOTS('',3,(#455,#456,#457,#458),.UNSPECIFIED.,
 .F.,.F.,(4,4),(0.,0.00312956428920816),.UNSPECIFIED.);
#221=B_SPLINE_CURVE_WITH_KNOTS('',3,(#460,#461,#462,#463,#464,#465,#466,
#467,#468,#469),.UNSPECIFIED.,.F.,.F.,(4,1,1,1,1,1,1,4),(0.,0.00156544613841005,
0.0031308922768201,0.00469633841523016,0.00626178455364021,0.00782723069205026,
0.00939267683046031,0.0125235691072804),.UNSPECIFIED.);
#222=B_SPLINE_CURVE_WITH_KNOTS('',3,(#471,#472,#473,#474),.UNSPECIFIED.,
 .F.,.F.,(4,4),(0.,0.00312956428920816),.UNSPECIFIED.);
#223=EDGE_LOOP('',(#75,#76,#77,#78));
#224=EDGE_LOOP('',(#79,#80,#81,#82));
#225=EDGE_LOOP('',(#83,#84,#85,#86));
#226=EDGE_LOOP('',(#87,#88,#89,#90));
#227=EDGE_LOOP('',(#91));
#228=EDGE_LOOP('',(#92));
#229=EDGE_LOOP('',(#93));
#230=EDGE_LOOP('',(#94,#95,#96,#97,#98,#99,#100,#101));
#231=EDGE_LOOP('',(#102,#103,#104,#105,#106,#107,#108,#109));
#232=EDGE_LOOP('',(#110));
#233=EDGE_LOOP('',(#111,#112,#113,#114));
#234=EDGE_LOOP('',(#115,#116,#117,#118));
#235=EDGE_LOOP('',(#119,#120,#121,#122));
#236=EDGE_LOOP('',(#123,#124,#125,#126));
#237=EDGE_LOOP('',(#127,#128,#129,#130));
#238=EDGE_LOOP('',(#131,#132,#133,#134));
#239=EDGE_LOOP('',(#135,#136,#137,#138));
#240=EDGE_LOOP('',(#139,#140,#141,#142));
#241=EDGE_LOOP('',(#143,#144,#145,#146));
#242=EDGE_LOOP('',(#147,#148,#149,#150));
#243=FACE_BOUND('',#223,.T.);
#244=FACE_BOUND('',#224,.T.);
#245=FACE_BOUND('',#225,.T.);
#246=FACE_BOUND('',#226,.T.);
#247=FACE_BOUND('',#227,.T.);
#248=FACE_BOUND('',#228,.T.);
#249=FACE_BOUND('',#229,.T.);
#250=FACE_BOUND('',#230,.T.);
#251=FACE_BOUND('',#231,.T.);
#252=FACE_BOUND('',#232,.T.);
#253=FACE_BOUND('',#233,.T.);
#254=FACE_BOUND('',#234,.T.);
#255=FACE_BOUND('',#235,.T.);
#256=FACE_BOUND('',#236,.T.);
#257=FACE_BOUND('',#237,.T.);
#258=FACE_BOUND('',#238,.T.);
#259=FACE_BOUND('',#239,.T.);
#260=FACE_BOUND('',#240,.T.);
#261=FACE_BOUND('',#241,.T.);
#262=FACE_BOUND('',#242,.T.);
#263=CYLINDRICAL_SURFACE('',#299,0.056);
#264=CYLINDRICAL_SURFACE('',#302,0.056);
#265=CYLINDRICAL_SURFACE('',#305,0.051);
#266=CYLINDRICAL_SURFACE('',#311,0.003);
#267=CYLINDRICAL_SURFACE('',#312,0.003);
#268=CYLINDRICAL_SURFACE('',#313,0.003);
#269=CYLINDRICAL_SURFACE('',#314,0.003);
#270=ADVANCED_FACE('',(#243,#244),#263,.T.);
#271=ADVANCED_FACE('',(#245),#264,.T.);
#272=ADVANCED_FACE('',(#246,#247,#248),#265,.F.);
#273=ADVANCED_FACE('',(#249,#250),#12,.T.);
#274=ADVANCED_FACE('',(#251),#13,.F.);
#275=ADVANCED_FACE('',(#252),#14,.T.);
#276=ADVANCED_FACE('',(#253),#266,.F.);
#277=ADVANCED_FACE('',(#254),#267,.F.);
#278=ADVANCED_FACE('',(#255),#268,.F.);
#279=ADVANCED_FACE('',(#256),#269,.F.);
#280=ADVANCED_FACE('',(#257),#15,.F.);
#281=ADVANCED_FACE('',(#258),#16,.T.);
#282=ADVANCED_FACE('',(#259),#17,.F.);
#283=ADVANCED_FACE('',(#260),#18,.F.);
#284=ADVANCED_FACE('',(#261),#19,.T.);
#285=ADVANCED_FACE('',(#262),#20,.T.);
#286=CLOSED_SHELL('',(#270,#271,#272,#273,#274,#275,#276,#277,#278,#279,
#280,#281,#282,#283,#284,#285));
#287=STYLED_ITEM('',(#288),#295);
#288=PRESENTATION_STYLE_ASSIGNMENT((#289));
#289=SURFACE_STYLE_USAGE(.BOTH.,#290);
#290=SURFACE_SIDE_STYLE('',(#291));
#291=SURFACE_STYLE_FILL_AREA(#292);
#292=FILL_AREA_STYLE('',(#293));
#293=FILL_AREA_STYLE_COLOUR('',#294);
#294=COLOUR_RGB('',1.,0.756862745098039,0.0549019607843137);
#295=MANIFOLD_SOLID_BREP('Part 1',#286);
#296=SHAPE_DEFINITION_REPRESENTATION(#526,#297);
#297=SHAPE_REPRESENTATION('Part 1',(#298),#521);
#298=AXIS2_PLACEMENT_3D('',#391,#321,#322);
#299=AXIS2_PLACEMENT_3D('',#392,#323,#324);
#300=AXIS2_PLACEMENT_3D('',#428,#326,#327);
#301=AXIS2_PLACEMENT_3D('',#432,#329,#330);
#302=AXIS2_PLACEMENT_3D('',#433,#331,#332);
#303=AXIS2_PLACEMENT_3D('',#434,#333,#334);
#304=AXIS2_PLACEMENT_3D('',#439,#336,#337);
#305=AXIS2_PLACEMENT_3D('',#442,#339,#340);
#306=AXIS2_PLACEMENT_3D('',#475,#341,#342);
#307=AXIS2_PLACEMENT_3D('',#477,#343,#344);
#308=AXIS2_PLACEMENT_3D('',#479,#345,#346);
#309=AXIS2_PLACEMENT_3D('',#490,#353,#354);
#310=AXIS2_PLACEMENT_3D('',#501,#361,#362);
#311=AXIS2_PLACEMENT_3D('',#502,#363,#364);
#312=AXIS2_PLACEMENT_3D('',#505,#367,#368);
#313=AXIS2_PLACEMENT_3D('',#507,#370,#371);
#314=AXIS2_PLACEMENT_3D('',#509,#373,#374);
#315=AXIS2_PLACEMENT_3D('',#510,#375,#376);
#316=AXIS2_PLACEMENT_3D('',#513,#379,#380);
#317=AXIS2_PLACEMENT_3D('',#514,#381,#382);
#318=AXIS2_PLACEMENT_3D('',#515,#383,#384);
#319=AXIS2_PLACEMENT_3D('',#517,#386,#387);
#320=AXIS2_PLACEMENT_3D('',#519,#389,#390);
#321=DIRECTION('',(0.,0.,1.));
#322=DIRECTION('',(1.,0.,0.));
#323=DIRECTION('',(0.,0.,-1.));
#324=DIRECTION('',(-1.,0.,0.));
#325=DIRECTION('',(0.,0.,1.));
#326=DIRECTION('',(0.,0.,1.));
#327=DIRECTION('',(1.,0.,0.));
#328=DIRECTION('',(0.,0.,1.));
#329=DIRECTION('',(0.,0.,1.));
#330=DIRECTION('',(1.,0.,0.));
#331=DIRECTION('',(0.,0.,-1.));
#332=DIRECTION('',(-1.,0.,0.));
#333=DIRECTION('',(0.,0.,1.));
#334=DIRECTION('',(1.,0.,0.));
#335=DIRECTION('',(0.,0.,1.));
#336=DIRECTION('',(0.,0.,1.));
#337=DIRECTION('',(1.,0.,0.));
#338=DIRECTION('',(0.,0.,1.));
#339=DIRECTION('',(0.,0.,-1.));
#340=DIRECTION('',(-1.,0.,0.));
#341=DIRECTION('',(0.,0.,1.));
#342=DIRECTION('',(1.,0.,0.));
#343=DIRECTION('',(0.,0.,1.));
#344=DIRECTION('',(1.,0.,0.));
#345=DIRECTION('',(0.,0.,1.));
#346=DIRECTION('',(1.,0.,0.));
#347=DIRECTION('',(0.,1.,0.));
#348=DIRECTION('',(1.,0.,0.));
#349=DIRECTION('',(0.,1.,0.));
#350=DIRECTION('',(0.,1.,0.));
#351=DIRECTION('',(-1.,0.,0.));
#352=DIRECTION('',(0.,1.,0.));
#353=DIRECTION('',(0.,0.,1.));
#354=DIRECTION('',(1.,0.,0.));
#355=DIRECTION('',(0.,1.,0.));
#356=DIRECTION('',(1.,0.,0.));
#357=DIRECTION('',(0.,1.,0.));
#358=DIRECTION('',(0.,1.,0.));
#359=DIRECTION('',(-1.,0.,0.));
#360=DIRECTION('',(0.,1.,0.));
#361=DIRECTION('',(0.,0.,1.));
#362=DIRECTION('',(1.,0.,0.));
#363=DIRECTION('',(0.,-1.,0.));
#364=DIRECTION('',(0.,0.,-1.));
#365=DIRECTION('',(0.,-1.,0.));
#366=DIRECTION('',(0.,-1.,0.));
#367=DIRECTION('',(0.,-1.,0.));
#368=DIRECTION('',(0.,0.,-1.));
#369=DIRECTION('',(0.,-1.,0.));
#370=DIRECTION('',(0.,-1.,0.));
#371=DIRECTION('',(0.,0.,-1.));
#372=DIRECTION('',(0.,-1.,0.));
#373=DIRECTION('',(0.,-1.,0.));
#374=DIRECTION('',(0.,0.,-1.));
#375=DIRECTION('',(0.,1.,0.));
#376=DIRECTION('',(0.,0.,1.));
#377=DIRECTION('',(0.,0.,1.));
#378=DIRECTION('',(0.,0.,1.));
#379=DIRECTION('',(1.,0.,0.));
#380=DIRECTION('',(0.,0.,-1.));
#381=DIRECTION('',(1.,0.,0.));
#382=DIRECTION('',(0.,0.,-1.));
#383=DIRECTION('',(1.,0.,0.));
#384=DIRECTION('',(0.,0.,-1.));
#385=DIRECTION('',(0.,0.,1.));
#386=DIRECTION('',(0.,-1.,0.));
#387=DIRECTION('',(0.,0.,-1.));
#388=DIRECTION('',(0.,0.,1.));
#389=DIRECTION('',(1.,0.,0.));
#390=DIRECTION('',(0.,0.,-1.));
#391=CARTESIAN_POINT('',(0.,0.,0.));
#392=CARTESIAN_POINT('',(0.,3.42901103761259E-18,0.02));
#393=CARTESIAN_POINT('',(-0.0015,-0.055979907109605,0.0125865490083299));
#394=CARTESIAN_POINT('',(-0.00058385063469272,-0.0560044556327969,0.0131154880910079));
#395=CARTESIAN_POINT('',(0.000583853730792829,-0.0560044555498359,0.0131154863034737));
#396=CARTESIAN_POINT('',(0.0015,-0.055979907109605,0.0125865490083299));
#397=CARTESIAN_POINT('',(-0.0015,-0.055979907109605,0.0125865490083299));
#398=CARTESIAN_POINT('',(0.0015,-0.055979907109605,0.0125865490083299));
#399=CARTESIAN_POINT('',(0.0015,-0.055979907109605,0.0125865490083299));
#400=CARTESIAN_POINT('',(0.00195817100777234,-0.0559676302669458,0.0128510741630021));
#401=CARTESIAN_POINT('',(0.00299804861642071,-0.0559276613962814,0.0131276774264275));
#402=CARTESIAN_POINT('',(0.00457084582267223,-0.0558191821633219,0.0127073544998813));
#403=CARTESIAN_POINT('',(0.00571675272417435,-0.0557091779446453,0.0115632465867125));
#404=CARTESIAN_POINT('',(0.00614064533290319,-0.05566204485278,0.00998771689323543));
#405=CARTESIAN_POINT('',(0.00572066523067637,-0.0557085044909291,0.00842179088754292));
#406=CARTESIAN_POINT('',(0.00418647990672222,-0.0558576799614284,0.00687861072134691));
#407=CARTESIAN_POINT('',(0.00241634274095149,-0.0559553534048492,0.0068613458574649));
#408=CARTESIAN_POINT('',(0.00149999999999998,-0.055979907109605,0.00739039658562321));
#409=CARTESIAN_POINT('',(0.0015,-0.055979907109605,0.00739039658562325));
#410=CARTESIAN_POINT('',(0.0015,-0.055979907109605,0.00739039658562325));
#411=CARTESIAN_POINT('',(0.000583850634692719,-0.0560044556327969,0.00686145750294519));
#412=CARTESIAN_POINT('',(-0.000583853730792834,-0.0560044555498359,0.00686145929047942));
#413=CARTESIAN_POINT('',(-0.0015,-0.055979907109605,0.00739039658562325));
#414=CARTESIAN_POINT('',(-0.0015,-0.055979907109605,0.00739039658562325));
#415=CARTESIAN_POINT('',(-0.0015,-0.055979907109605,0.00739039658562325));
#416=CARTESIAN_POINT('',(-0.00195817100777234,-0.0559676302669458,0.00712587143095101));
#417=CARTESIAN_POINT('',(-0.0029980486164207,-0.0559276613962814,0.00684926816752568));
#418=CARTESIAN_POINT('',(-0.00457084582267222,-0.0558191821633219,0.00726959109407178));
#419=CARTESIAN_POINT('',(-0.00571675272417435,-0.0557091779446453,0.00841369900724063));
#420=CARTESIAN_POINT('',(-0.00614064533290319,-0.05566204485278,0.00998922870071771));
#421=CARTESIAN_POINT('',(-0.00572066523067637,-0.0557085044909291,0.0115551547064102));
#422=CARTESIAN_POINT('',(-0.00418647990672221,-0.0558576799614284,0.0130983348726062));
#423=CARTESIAN_POINT('',(-0.00241634274095149,-0.0559553534048492,0.0131155997364882));
#424=CARTESIAN_POINT('',(-0.00149999999999999,-0.055979907109605,0.0125865490083299));
#425=CARTESIAN_POINT('',(-0.0136,-0.0543234755883679,0.));
#426=CARTESIAN_POINT('',(-0.0136,-0.0543234755883679,0.));
#427=CARTESIAN_POINT('',(-0.0136,-0.0543234755883679,0.02));
#428=CARTESIAN_POINT('',(0.,3.42901103761259E-18,0.));
#429=CARTESIAN_POINT('',(0.0136,-0.0543234755883679,0.));
#430=CARTESIAN_POINT('',(0.0136,-0.0543234755883679,0.));
#431=CARTESIAN_POINT('',(0.0136,-0.0543234755883679,0.02));
#432=CARTESIAN_POINT('',(0.,3.42901103761259E-18,0.02));
#433=CARTESIAN_POINT('',(0.,3.42901103761259E-18,0.02));
#434=CARTESIAN_POINT('',(0.,3.42901103761259E-18,0.));
#435=CARTESIAN_POINT('',(0.0164,-0.0535447476415755,0.));
#436=CARTESIAN_POINT('',(-0.0164,-0.0535447476415755,0.));
#437=CARTESIAN_POINT('',(-0.0164,-0.0535447476415755,0.));
#438=CARTESIAN_POINT('',(-0.0164,-0.0535447476415755,0.02));
#439=CARTESIAN_POINT('',(0.,3.42901103761259E-18,0.02));
#440=CARTESIAN_POINT('',(0.0164,-0.0535447476415755,0.02));
#441=CARTESIAN_POINT('',(0.0164,-0.0535447476415755,0.));
#442=CARTESIAN_POINT('',(0.,3.12284933782575E-18,0.02));
#443=CARTESIAN_POINT('',(0.0015,-0.0509779364038993,0.0125865490083299));
#444=CARTESIAN_POINT('',(0.00195827279762734,-0.05096445195857,0.0128511329314023));
#445=CARTESIAN_POINT('',(0.00299833654462789,-0.0509205460063693,0.0131276690169099));
#446=CARTESIAN_POINT('',(0.00457077121181571,-0.050801401538294,0.012707295671081));
#447=CARTESIAN_POINT('',(0.00571652613192585,-0.0506805256372203,0.0115636271662747));
#448=CARTESIAN_POINT('',(0.00614075744907274,-0.0506286659682962,0.00998775431974163));
#449=CARTESIAN_POINT('',(0.00572044331672066,-0.0506797848694613,0.00842140599660253));
#450=CARTESIAN_POINT('',(0.0041864724309994,-0.0508437029626644,0.00687880755298287));
#451=CARTESIAN_POINT('',(0.00241654688972369,-0.0509509674751515,0.00686122799211632));
#452=CARTESIAN_POINT('',(0.00149999999999998,-0.0509779364038993,0.00739039658562321));
#453=CARTESIAN_POINT('',(0.0015,-0.0509779364038993,0.0125865490083299));
#454=CARTESIAN_POINT('',(0.0015,-0.0509779364038993,0.00739039658562325));
#455=CARTESIAN_POINT('',(-0.0015,-0.0509779364038993,0.0125865490083299));
#456=CARTESIAN_POINT('',(-0.000583879001313427,-0.0510048928010187,0.0131154717135318));
#457=CARTESIAN_POINT('',(0.000583882754105516,-0.0510048926905947,0.0131154695468563));
#458=CARTESIAN_POINT('',(0.0015,-0.0509779364038993,0.0125865490083299));
#459=CARTESIAN_POINT('',(-0.0015,-0.0509779364038993,0.0125865490083299));
#460=CARTESIAN_POINT('',(-0.0015,-0.0509779364038993,0.00739039658562325));
#461=CARTESIAN_POINT('',(-0.00195827279762734,-0.05096445195857,0.00712581266255083));
#462=CARTESIAN_POINT('',(-0.00299833654462788,-0.0509205460063693,0.00684927657704321));
#463=CARTESIAN_POINT('',(-0.00457077121181571,-0.050801401538294,0.00726964992287213));
#464=CARTESIAN_POINT('',(-0.00571652613192585,-0.0506805256372203,0.00841331842767848));
#465=CARTESIAN_POINT('',(-0.00614075744907274,-0.0506286659682962,0.0099891912742115));
#466=CARTESIAN_POINT('',(-0.00572044331672066,-0.0506797848694613,0.0115555395973506));
#467=CARTESIAN_POINT('',(-0.00418647243099939,-0.0508437029626644,0.0130981380409703));
#468=CARTESIAN_POINT('',(-0.00241654688972369,-0.0509509674751515,0.0131157176018368));
#469=CARTESIAN_POINT('',(-0.00149999999999998,-0.0509779364038993,0.0125865490083299));
#470=CARTESIAN_POINT('',(-0.0015,-0.0509779364038993,0.00739039658562325));
#471=CARTESIAN_POINT('',(0.0015,-0.0509779364038993,0.00739039658562325));
#472=CARTESIAN_POINT('',(0.000583879001313426,-0.0510048928010187,0.00686147388042129));
#473=CARTESIAN_POINT('',(-0.000583882754105516,-0.0510048926905947,0.00686147604709681));
#474=CARTESIAN_POINT('',(-0.0015,-0.0509779364038993,0.00739039658562325));
#475=CARTESIAN_POINT('',(0.,3.12284933782575E-18,0.004));
#476=CARTESIAN_POINT('',(0.051,3.12284933782575E-18,0.004));
#477=CARTESIAN_POINT('',(0.,3.12284933782575E-18,0.02));
#478=CARTESIAN_POINT('',(0.051,3.12284933782575E-18,0.02));
#479=CARTESIAN_POINT('',(0.,0.,0.02));
#480=CARTESIAN_POINT('',(-0.0164,-0.0534956753253937,0.02));
#481=CARTESIAN_POINT('',(-0.0164,-0.0573956753253937,0.02));
#482=CARTESIAN_POINT('',(-0.015,-0.0573956753253937,0.02));
#483=CARTESIAN_POINT('',(-0.0136,-0.0573956753253937,0.02));
#484=CARTESIAN_POINT('',(-0.0136,-0.0534956753253937,0.02));
#485=CARTESIAN_POINT('',(0.0136,-0.0554456753253937,0.02));
#486=CARTESIAN_POINT('',(0.0136,-0.0573956753253937,0.02));
#487=CARTESIAN_POINT('',(0.015,-0.0573956753253937,0.02));
#488=CARTESIAN_POINT('',(0.0164,-0.0573956753253937,0.02));
#489=CARTESIAN_POINT('',(0.0164,-0.0534956753253937,0.02));
#490=CARTESIAN_POINT('',(0.,0.,0.));
#491=CARTESIAN_POINT('',(-0.0136,-0.0534956753253937,0.));
#492=CARTESIAN_POINT('',(-0.0136,-0.0573956753253937,0.));
#493=CARTESIAN_POINT('',(-0.015,-0.0573956753253937,0.));
#494=CARTESIAN_POINT('',(-0.0164,-0.0573956753253937,0.));
#495=CARTESIAN_POINT('',(-0.0164,-0.0534956753253937,0.));
#496=CARTESIAN_POINT('',(0.0164,-0.0534956753253937,0.));
#497=CARTESIAN_POINT('',(0.0164,-0.0573956753253937,0.));
#498=CARTESIAN_POINT('',(0.015,-0.0573956753253937,0.));
#499=CARTESIAN_POINT('',(0.0136,-0.0573956753253937,0.));
#500=CARTESIAN_POINT('',(0.0136,-0.0554456753253937,0.));
#501=CARTESIAN_POINT('',(0.,0.,0.004));
#502=CARTESIAN_POINT('',(0.003,-0.0304,0.00998847279697657));
#503=CARTESIAN_POINT('',(0.0015,-0.0304,0.00739039658562325));
#504=CARTESIAN_POINT('',(0.0015,-0.0304,0.0125865490083299));
#505=CARTESIAN_POINT('',(-2.16840434497101E-19,-0.0304,0.00998847279697657));
#506=CARTESIAN_POINT('',(-0.0015,-0.0304,0.0125865490083299));
#507=CARTESIAN_POINT('',(-0.003,-0.0304,0.00998847279697657));
#508=CARTESIAN_POINT('',(-0.0015,-0.0304,0.00739039658562325));
#509=CARTESIAN_POINT('',(-2.16840434497101E-19,-0.0304,0.00998847279697657));
#510=CARTESIAN_POINT('',(0.015,-0.0573956753253937,0.));
#511=CARTESIAN_POINT('',(0.0136,-0.0573956753253937,0.));
#512=CARTESIAN_POINT('',(0.0164,-0.0573956753253937,0.));
#513=CARTESIAN_POINT('',(0.0164,-0.0534956753253937,0.));
#514=CARTESIAN_POINT('',(0.0136,-0.0554456753253937,0.));
#515=CARTESIAN_POINT('',(-0.0164,-0.0534956753253937,0.));
#516=CARTESIAN_POINT('',(-0.0164,-0.0573956753253937,0.));
#517=CARTESIAN_POINT('',(-0.015,-0.0573956753253937,0.));
#518=CARTESIAN_POINT('',(-0.0136,-0.0573956753253937,0.));
#519=CARTESIAN_POINT('',(-0.0136,-0.0534956753253937,0.));
#520=MECHANICAL_DESIGN_GEOMETRIC_PRESENTATION_REPRESENTATION('',(#287),
#521);
#521=(
GEOMETRIC_REPRESENTATION_CONTEXT(3)
GLOBAL_UNCERTAINTY_ASSIGNED_CONTEXT((#522))
GLOBAL_UNIT_ASSIGNED_CONTEXT((#525,#524,#523))
REPRESENTATION_CONTEXT('Part 1','TOP_LEVEL_ASSEMBLY_PART')
);
#522=UNCERTAINTY_MEASURE_WITH_UNIT(LENGTH_MEASURE(2.E-5),#525,
'DISTANCE_ACCURACY_VALUE','Maximum Tolerance applied to model');
#523=(
NAMED_UNIT(*)
SI_UNIT($,.STERADIAN.)
SOLID_ANGLE_UNIT()
);
#524=(
NAMED_UNIT(*)
PLANE_ANGLE_UNIT()
SI_UNIT($,.RADIAN.)
);
#525=(
LENGTH_UNIT()
NAMED_UNIT(*)
SI_UNIT($,.METRE.)
);
#526=PRODUCT_DEFINITION_SHAPE('','',#527);
#527=PRODUCT_DEFINITION('','',#529,#528);
#528=PRODUCT_DEFINITION_CONTEXT('',#535,'design');
#529=PRODUCT_DEFINITION_FORMATION_WITH_SPECIFIED_SOURCE('','',#531,
 .NOT_KNOWN.);
#530=PRODUCT_RELATED_PRODUCT_CATEGORY('','',(#531));
#531=PRODUCT('Part 1','Part 1','Part 1',(#533));
#532=PRODUCT_CATEGORY('','');
#533=PRODUCT_CONTEXT('',#535,'mechanical');
#534=APPLICATION_PROTOCOL_DEFINITION('international standard',
'ap242_managed_model_based_3d_engineering',2020,#535);
#535=APPLICATION_CONTEXT('managed model based 3d engineering');
ENDSEC;
END-ISO-10303-21;
