ISO-10303-21;
HEADER;
/* Generated by software containing ST-Developer
 * from STEP Tools, Inc. (www.steptools.com) 
 */
/* OPTION: using custom renumber hook */

FILE_DESCRIPTION(
/* description */ ('STEP AP242 Edition 2',
'CAx-IF Rec.Pracs.---Representation and Presentation of Product Manufa
cturing Information (PMI)---4.0---2014-10-13',
'CAx-IF Rec.Pracs.---3D Tessellated Geometry---0.4---2014-09-14','2;1',
'CAx-IF Rec.Pracs.---User Defined Attributes---1.5---2016-08-15'),
/* implementation_level */ '2;1');

FILE_NAME(
/* name */ 'Part Studio 4',
/* time_stamp */ '2026-05-30T05:20:37Z',
/* author */ (''),
/* organization */ (''),
/* preprocessor_version */ 'ST-DEVELOPER v20',
/* originating_system */ 'ONSHAPE BY PTC INC, 1.215',
/* authorisation */ '  ');

FILE_SCHEMA (('AP242_MANAGED_MODEL_BASED_3D_ENGINEERING_MIM_LF { 1 0 10303 442 3 1 4 }'));
ENDSEC;

DATA;
#10=SHAPE_REPRESENTATION_RELATIONSHIP('','',#233,#12);
#11=SHAPE_REPRESENTATION_RELATIONSHIP('','',#234,#13);
#12=ADVANCED_BREP_SHAPE_REPRESENTATION('',(#229),#394);
#13=ADVANCED_BREP_SHAPE_REPRESENTATION('',(#230),#395);
#14=PLANE('',#242);
#15=PLANE('',#243);
#16=PLANE('',#244);
#17=PLANE('',#245);
#18=PLANE('',#250);
#19=PLANE('',#252);
#20=PLANE('',#256);
#21=PLANE('',#257);
#22=PLANE('',#258);
#23=PLANE('',#262);
#24=PLANE('',#263);
#25=LINE('',#344,#37);
#26=LINE('',#348,#38);
#27=LINE('',#350,#39);
#28=LINE('',#351,#40);
#29=LINE('',#365,#41);
#30=LINE('',#368,#42);
#31=LINE('',#370,#43);
#32=LINE('',#372,#44);
#33=LINE('',#379,#45);
#34=LINE('',#384,#46);
#35=LINE('',#386,#47);
#36=LINE('',#390,#48);
#37=VECTOR('',#276,1.);
#38=VECTOR('',#279,1.);
#39=VECTOR('',#282,1.);
#40=VECTOR('',#283,1.);
#41=VECTOR('',#304,1.);
#42=VECTOR('',#305,1.);
#43=VECTOR('',#306,1.);
#44=VECTOR('',#307,1.);
#45=VECTOR('',#320,1.);
#46=VECTOR('',#325,1.);
#47=VECTOR('',#326,1.);
#48=VECTOR('',#331,1.);
#49=ORIENTED_EDGE('',*,*,#95,.T.);
#50=ORIENTED_EDGE('',*,*,#96,.F.);
#51=ORIENTED_EDGE('',*,*,#97,.T.);
#52=ORIENTED_EDGE('',*,*,#98,.F.);
#53=ORIENTED_EDGE('',*,*,#99,.F.);
#54=ORIENTED_EDGE('',*,*,#100,.T.);
#55=ORIENTED_EDGE('',*,*,#101,.F.);
#56=ORIENTED_EDGE('',*,*,#100,.F.);
#57=ORIENTED_EDGE('',*,*,#102,.T.);
#58=ORIENTED_EDGE('',*,*,#98,.T.);
#59=ORIENTED_EDGE('',*,*,#99,.T.);
#60=ORIENTED_EDGE('',*,*,#102,.F.);
#61=ORIENTED_EDGE('',*,*,#95,.F.);
#62=ORIENTED_EDGE('',*,*,#97,.F.);
#63=ORIENTED_EDGE('',*,*,#101,.T.);
#64=ORIENTED_EDGE('',*,*,#96,.T.);
#65=ORIENTED_EDGE('',*,*,#103,.T.);
#66=ORIENTED_EDGE('',*,*,#104,.F.);
#67=ORIENTED_EDGE('',*,*,#103,.F.);
#68=ORIENTED_EDGE('',*,*,#105,.F.);
#69=ORIENTED_EDGE('',*,*,#106,.F.);
#70=ORIENTED_EDGE('',*,*,#107,.F.);
#71=ORIENTED_EDGE('',*,*,#108,.T.);
#72=ORIENTED_EDGE('',*,*,#109,.T.);
#73=ORIENTED_EDGE('',*,*,#105,.T.);
#74=ORIENTED_EDGE('',*,*,#110,.F.);
#75=ORIENTED_EDGE('',*,*,#109,.F.);
#76=ORIENTED_EDGE('',*,*,#111,.F.);
#77=ORIENTED_EDGE('',*,*,#107,.T.);
#78=ORIENTED_EDGE('',*,*,#108,.F.);
#79=ORIENTED_EDGE('',*,*,#111,.T.);
#80=ORIENTED_EDGE('',*,*,#110,.T.);
#81=ORIENTED_EDGE('',*,*,#106,.T.);
#82=ORIENTED_EDGE('',*,*,#112,.F.);
#83=ORIENTED_EDGE('',*,*,#113,.F.);
#84=ORIENTED_EDGE('',*,*,#104,.T.);
#85=ORIENTED_EDGE('',*,*,#114,.F.);
#86=ORIENTED_EDGE('',*,*,#113,.T.);
#87=ORIENTED_EDGE('',*,*,#115,.T.);
#88=ORIENTED_EDGE('',*,*,#116,.F.);
#89=ORIENTED_EDGE('',*,*,#115,.F.);
#90=ORIENTED_EDGE('',*,*,#112,.T.);
#91=ORIENTED_EDGE('',*,*,#114,.T.);
#92=ORIENTED_EDGE('',*,*,#117,.F.);
#93=ORIENTED_EDGE('',*,*,#116,.T.);
#94=ORIENTED_EDGE('',*,*,#117,.T.);
#95=EDGE_CURVE('',#118,#118,#135,.T.);
#96=EDGE_CURVE('',#119,#119,#136,.T.);
#97=EDGE_CURVE('',#120,#121,#137,.T.);
#98=EDGE_CURVE('',#122,#121,#25,.T.);
#99=EDGE_CURVE('',#123,#122,#138,.T.);
#100=EDGE_CURVE('',#123,#120,#26,.T.);
#101=EDGE_CURVE('',#120,#121,#27,.T.);
#102=EDGE_CURVE('',#123,#122,#28,.T.);
#103=EDGE_CURVE('',#124,#124,#139,.T.);
#104=EDGE_CURVE('',#125,#125,#140,.T.);
#105=EDGE_CURVE('',#126,#126,#141,.T.);
#106=EDGE_CURVE('',#127,#128,#29,.T.);
#107=EDGE_CURVE('',#129,#127,#30,.T.);
#108=EDGE_CURVE('',#129,#130,#31,.T.);
#109=EDGE_CURVE('',#130,#128,#32,.T.);
#110=EDGE_CURVE('',#128,#127,#142,.T.);
#111=EDGE_CURVE('',#129,#130,#143,.T.);
#112=EDGE_CURVE('',#131,#132,#33,.T.);
#113=EDGE_CURVE('',#132,#131,#144,.T.);
#114=EDGE_CURVE('',#132,#133,#34,.T.);
#115=EDGE_CURVE('',#131,#134,#35,.T.);
#116=EDGE_CURVE('',#133,#134,#145,.T.);
#117=EDGE_CURVE('',#134,#133,#36,.T.);
#118=VERTEX_POINT('',#337);
#119=VERTEX_POINT('',#339);
#120=VERTEX_POINT('',#342);
#121=VERTEX_POINT('',#343);
#122=VERTEX_POINT('',#345);
#123=VERTEX_POINT('',#347);
#124=VERTEX_POINT('',#358);
#125=VERTEX_POINT('',#360);
#126=VERTEX_POINT('',#363);
#127=VERTEX_POINT('',#366);
#128=VERTEX_POINT('',#367);
#129=VERTEX_POINT('',#369);
#130=VERTEX_POINT('',#371);
#131=VERTEX_POINT('',#380);
#132=VERTEX_POINT('',#381);
#133=VERTEX_POINT('',#385);
#134=VERTEX_POINT('',#387);
#135=CIRCLE('',#237,0.004);
#136=CIRCLE('',#238,0.004);
#137=CIRCLE('',#240,0.0025);
#138=CIRCLE('',#241,0.0025);
#139=CIRCLE('',#248,0.004);
#140=CIRCLE('',#249,0.004);
#141=CIRCLE('',#251,0.0025);
#142=CIRCLE('',#254,0.0025);
#143=CIRCLE('',#255,0.0025);
#144=CIRCLE('',#259,0.003);
#145=CIRCLE('',#261,0.003);
#146=EDGE_LOOP('',(#49));
#147=EDGE_LOOP('',(#50));
#148=EDGE_LOOP('',(#51,#52,#53,#54));
#149=EDGE_LOOP('',(#55,#56,#57,#58));
#150=EDGE_LOOP('',(#59,#60));
#151=EDGE_LOOP('',(#61));
#152=EDGE_LOOP('',(#62,#63));
#153=EDGE_LOOP('',(#64));
#154=EDGE_LOOP('',(#65));
#155=EDGE_LOOP('',(#66));
#156=EDGE_LOOP('',(#67));
#157=EDGE_LOOP('',(#68));
#158=EDGE_LOOP('',(#69,#70,#71,#72));
#159=EDGE_LOOP('',(#73));
#160=EDGE_LOOP('',(#74,#75,#76,#77));
#161=EDGE_LOOP('',(#78,#79));
#162=EDGE_LOOP('',(#80,#81));
#163=EDGE_LOOP('',(#82,#83));
#164=EDGE_LOOP('',(#84));
#165=EDGE_LOOP('',(#85,#86,#87,#88));
#166=EDGE_LOOP('',(#89,#90,#91,#92));
#167=EDGE_LOOP('',(#93,#94));
#168=FACE_BOUND('',#146,.T.);
#169=FACE_BOUND('',#147,.T.);
#170=FACE_BOUND('',#148,.T.);
#171=FACE_BOUND('',#149,.T.);
#172=FACE_BOUND('',#150,.T.);
#173=FACE_BOUND('',#151,.T.);
#174=FACE_BOUND('',#152,.T.);
#175=FACE_BOUND('',#153,.T.);
#176=FACE_BOUND('',#154,.T.);
#177=FACE_BOUND('',#155,.T.);
#178=FACE_BOUND('',#156,.T.);
#179=FACE_BOUND('',#157,.T.);
#180=FACE_BOUND('',#158,.T.);
#181=FACE_BOUND('',#159,.T.);
#182=FACE_BOUND('',#160,.T.);
#183=FACE_BOUND('',#161,.T.);
#184=FACE_BOUND('',#162,.T.);
#185=FACE_BOUND('',#163,.T.);
#186=FACE_BOUND('',#164,.T.);
#187=FACE_BOUND('',#165,.T.);
#188=FACE_BOUND('',#166,.T.);
#189=FACE_BOUND('',#167,.T.);
#190=CYLINDRICAL_SURFACE('',#236,0.004);
#191=CYLINDRICAL_SURFACE('',#239,0.0025);
#192=CYLINDRICAL_SURFACE('',#247,0.004);
#193=CYLINDRICAL_SURFACE('',#253,0.0025);
#194=CYLINDRICAL_SURFACE('',#260,0.003);
#195=ADVANCED_FACE('',(#168,#169),#190,.T.);
#196=ADVANCED_FACE('',(#170),#191,.F.);
#197=ADVANCED_FACE('',(#171),#14,.T.);
#198=ADVANCED_FACE('',(#172,#173),#15,.F.);
#199=ADVANCED_FACE('',(#174),#16,.F.);
#200=ADVANCED_FACE('',(#175),#17,.T.);
#201=ADVANCED_FACE('',(#176,#177),#192,.T.);
#202=ADVANCED_FACE('',(#178,#179),#18,.T.);
#203=ADVANCED_FACE('',(#180),#19,.T.);
#204=ADVANCED_FACE('',(#181,#182),#193,.T.);
#205=ADVANCED_FACE('',(#183),#20,.T.);
#206=ADVANCED_FACE('',(#184),#21,.T.);
#207=ADVANCED_FACE('',(#185,#186),#22,.T.);
#208=ADVANCED_FACE('',(#187),#194,.F.);
#209=ADVANCED_FACE('',(#188),#23,.T.);
#210=ADVANCED_FACE('',(#189),#24,.F.);
#211=CLOSED_SHELL('',(#195,#196,#197,#198,#199,#200));
#212=CLOSED_SHELL('',(#201,#202,#203,#204,#205,#206,#207,#208,#209,#210));
#213=STYLED_ITEM('',(#215),#229);
#214=STYLED_ITEM('',(#216),#230);
#215=PRESENTATION_STYLE_ASSIGNMENT((#217));
#216=PRESENTATION_STYLE_ASSIGNMENT((#218));
#217=SURFACE_STYLE_USAGE(.BOTH.,#219);
#218=SURFACE_STYLE_USAGE(.BOTH.,#220);
#219=SURFACE_SIDE_STYLE('',(#221));
#220=SURFACE_SIDE_STYLE('',(#222));
#221=SURFACE_STYLE_FILL_AREA(#223);
#222=SURFACE_STYLE_FILL_AREA(#224);
#223=FILL_AREA_STYLE('',(#225));
#224=FILL_AREA_STYLE('',(#226));
#225=FILL_AREA_STYLE_COLOUR('',#227);
#226=FILL_AREA_STYLE_COLOUR('',#228);
#227=COLOUR_RGB('',0.647058823529412,0.647058823529412,0.647058823529412);
#228=COLOUR_RGB('',0.615686274509804,0.811764705882353,0.929411764705882);
#229=MANIFOLD_SOLID_BREP('Part 2',#211);
#230=MANIFOLD_SOLID_BREP('Part 1',#212);
#231=SHAPE_DEFINITION_REPRESENTATION(#404,#233);
#232=SHAPE_DEFINITION_REPRESENTATION(#405,#234);
#233=SHAPE_REPRESENTATION('Part 2',(#235),#394);
#234=SHAPE_REPRESENTATION('Part 1',(#246),#395);
#235=AXIS2_PLACEMENT_3D('',#334,#264,#265);
#236=AXIS2_PLACEMENT_3D('',#335,#266,#267);
#237=AXIS2_PLACEMENT_3D('',#336,#268,#269);
#238=AXIS2_PLACEMENT_3D('',#338,#270,#271);
#239=AXIS2_PLACEMENT_3D('',#340,#272,#273);
#240=AXIS2_PLACEMENT_3D('',#341,#274,#275);
#241=AXIS2_PLACEMENT_3D('',#346,#277,#278);
#242=AXIS2_PLACEMENT_3D('',#349,#280,#281);
#243=AXIS2_PLACEMENT_3D('',#352,#284,#285);
#244=AXIS2_PLACEMENT_3D('',#353,#286,#287);
#245=AXIS2_PLACEMENT_3D('',#354,#288,#289);
#246=AXIS2_PLACEMENT_3D('',#355,#290,#291);
#247=AXIS2_PLACEMENT_3D('',#356,#292,#293);
#248=AXIS2_PLACEMENT_3D('',#357,#294,#295);
#249=AXIS2_PLACEMENT_3D('',#359,#296,#297);
#250=AXIS2_PLACEMENT_3D('',#361,#298,#299);
#251=AXIS2_PLACEMENT_3D('',#362,#300,#301);
#252=AXIS2_PLACEMENT_3D('',#364,#302,#303);
#253=AXIS2_PLACEMENT_3D('',#373,#308,#309);
#254=AXIS2_PLACEMENT_3D('',#374,#310,#311);
#255=AXIS2_PLACEMENT_3D('',#375,#312,#313);
#256=AXIS2_PLACEMENT_3D('',#376,#314,#315);
#257=AXIS2_PLACEMENT_3D('',#377,#316,#317);
#258=AXIS2_PLACEMENT_3D('',#378,#318,#319);
#259=AXIS2_PLACEMENT_3D('',#382,#321,#322);
#260=AXIS2_PLACEMENT_3D('',#383,#323,#324);
#261=AXIS2_PLACEMENT_3D('',#388,#327,#328);
#262=AXIS2_PLACEMENT_3D('',#389,#329,#330);
#263=AXIS2_PLACEMENT_3D('',#391,#332,#333);
#264=DIRECTION('',(0.,0.,1.));
#265=DIRECTION('',(1.,0.,0.));
#266=DIRECTION('',(0.,0.,1.));
#267=DIRECTION('',(1.,0.,0.));
#268=DIRECTION('',(0.,0.,-1.));
#269=DIRECTION('',(-1.,0.,0.));
#270=DIRECTION('',(0.,0.,-1.));
#271=DIRECTION('',(-1.,0.,0.));
#272=DIRECTION('',(0.,0.,-1.));
#273=DIRECTION('',(-1.,0.,0.));
#274=DIRECTION('',(0.,0.,-1.));
#275=DIRECTION('',(-1.,0.,0.));
#276=DIRECTION('',(0.,0.,-1.));
#277=DIRECTION('',(0.,0.,-1.));
#278=DIRECTION('',(-1.,0.,0.));
#279=DIRECTION('',(0.,0.,-1.));
#280=DIRECTION('',(0.,1.,0.));
#281=DIRECTION('',(0.,0.,1.));
#282=DIRECTION('',(1.,0.,0.));
#283=DIRECTION('',(1.,0.,0.));
#284=DIRECTION('',(0.,0.,-1.));
#285=DIRECTION('',(1.,0.,0.));
#286=DIRECTION('',(0.,0.,-1.));
#287=DIRECTION('',(1.,0.,0.));
#288=DIRECTION('',(0.,0.,-1.));
#289=DIRECTION('',(1.,0.,0.));
#290=DIRECTION('',(0.,0.,1.));
#291=DIRECTION('',(1.,0.,0.));
#292=DIRECTION('',(0.,0.,-1.));
#293=DIRECTION('',(-1.,0.,0.));
#294=DIRECTION('',(0.,0.,1.));
#295=DIRECTION('',(1.,0.,0.));
#296=DIRECTION('',(0.,0.,1.));
#297=DIRECTION('',(1.,0.,0.));
#298=DIRECTION('',(0.,0.,-1.));
#299=DIRECTION('',(1.,0.,0.));
#300=DIRECTION('',(0.,0.,-1.));
#301=DIRECTION('',(-1.,0.,0.));
#302=DIRECTION('',(0.,-1.,0.));
#303=DIRECTION('',(0.,0.,-1.));
#304=DIRECTION('',(1.,0.,0.));
#305=DIRECTION('',(0.,0.,1.));
#306=DIRECTION('',(1.,0.,0.));
#307=DIRECTION('',(0.,0.,1.));
#308=DIRECTION('',(0.,0.,1.));
#309=DIRECTION('',(1.,0.,0.));
#310=DIRECTION('',(0.,0.,-1.));
#311=DIRECTION('',(-1.,0.,0.));
#312=DIRECTION('',(0.,0.,-1.));
#313=DIRECTION('',(-1.,0.,0.));
#314=DIRECTION('',(0.,0.,-1.));
#315=DIRECTION('',(1.,0.,0.));
#316=DIRECTION('',(0.,0.,-1.));
#317=DIRECTION('',(1.,0.,0.));
#318=DIRECTION('',(0.,0.,1.));
#319=DIRECTION('',(1.,0.,0.));
#320=DIRECTION('',(-1.,0.,0.));
#321=DIRECTION('',(0.,0.,1.));
#322=DIRECTION('',(1.,0.,0.));
#323=DIRECTION('',(0.,0.,-1.));
#324=DIRECTION('',(-1.,0.,0.));
#325=DIRECTION('',(0.,0.,-1.));
#326=DIRECTION('',(0.,0.,-1.));
#327=DIRECTION('',(0.,0.,1.));
#328=DIRECTION('',(1.,0.,0.));
#329=DIRECTION('',(0.,-1.,0.));
#330=DIRECTION('',(0.,0.,-1.));
#331=DIRECTION('',(-1.,0.,0.));
#332=DIRECTION('',(0.,0.,-1.));
#333=DIRECTION('',(1.,0.,0.));
#334=CARTESIAN_POINT('',(0.,0.,0.));
#335=CARTESIAN_POINT('',(-0.000214939308030691,-2.4492935982947E-19,-0.113));
#336=CARTESIAN_POINT('',(-0.000214939308030691,-2.4492935982947E-19,-0.01));
#337=CARTESIAN_POINT('',(-0.00421493930803069,-2.4492935982947E-19,-0.01));
#338=CARTESIAN_POINT('',(-0.000214939308030691,-2.4492935982947E-19,-0.099));
#339=CARTESIAN_POINT('',(-0.00421493930803069,-2.4492935982947E-19,-0.099));
#340=CARTESIAN_POINT('',(2.72737577280551E-20,-3.25260651745652E-19,-0.01));
#341=CARTESIAN_POINT('',(2.72737577280551E-20,-3.25260651745652E-19,-0.013));
#342=CARTESIAN_POINT('',(-0.00220811159110736,-0.00117228119545497,-0.013));
#343=CARTESIAN_POINT('',(0.00220811159110736,-0.00117228119545497,-0.013));
#344=CARTESIAN_POINT('',(0.00220811159110736,-0.00117228119545497,-0.01));
#345=CARTESIAN_POINT('',(0.00220811159110736,-0.00117228119545497,-0.01));
#346=CARTESIAN_POINT('',(2.72737577280551E-20,-3.25260651745652E-19,-0.01));
#347=CARTESIAN_POINT('',(-0.00220811159110736,-0.00117228119545497,-0.01));
#348=CARTESIAN_POINT('',(-0.00220811159110736,-0.00117228119545497,-0.01));
#349=CARTESIAN_POINT('',(0.,-0.00117228119545497,-0.01));
#350=CARTESIAN_POINT('',(0.,-0.00117228119545497,-0.013));
#351=CARTESIAN_POINT('',(0.,-0.00117228119545497,-0.01));
#352=CARTESIAN_POINT('',(-0.000214939308030692,0.,-0.01));
#353=CARTESIAN_POINT('',(-0.000214939308030692,0.,-0.013));
#354=CARTESIAN_POINT('',(-0.000214939308030692,0.,-0.099));
#355=CARTESIAN_POINT('',(0.,0.,0.));
#356=CARTESIAN_POINT('',(0.,2.4492935982947E-19,0.0065));
#357=CARTESIAN_POINT('',(0.,2.4492935982947E-19,-0.007));
#358=CARTESIAN_POINT('',(0.004,2.4492935982947E-19,-0.007));
#359=CARTESIAN_POINT('',(0.,2.4492935982947E-19,0.0035));
#360=CARTESIAN_POINT('',(0.004,2.4492935982947E-19,0.0035));
#361=CARTESIAN_POINT('',(0.,0.,-0.007));
#362=CARTESIAN_POINT('',(2.72737577280551E-20,-3.25260651745652E-19,-0.007));
#363=CARTESIAN_POINT('',(-0.0025,-3.25260651745652E-19,-0.007));
#364=CARTESIAN_POINT('',(0.,-0.00117228119545497,-0.013));
#365=CARTESIAN_POINT('',(0.,-0.00117228119545497,-0.01));
#366=CARTESIAN_POINT('',(-0.00220811159110736,-0.00117228119545497,-0.01));
#367=CARTESIAN_POINT('',(0.00220811159110736,-0.00117228119545497,-0.01));
#368=CARTESIAN_POINT('',(-0.00220811159110736,-0.00117228119545497,-0.013));
#369=CARTESIAN_POINT('',(-0.00220811159110736,-0.00117228119545497,-0.013));
#370=CARTESIAN_POINT('',(0.,-0.00117228119545497,-0.013));
#371=CARTESIAN_POINT('',(0.00220811159110736,-0.00117228119545497,-0.013));
#372=CARTESIAN_POINT('',(0.00220811159110736,-0.00117228119545497,-0.013));
#373=CARTESIAN_POINT('',(2.72737577280551E-20,-3.25260651745652E-19,-0.013));
#374=CARTESIAN_POINT('',(0.,2.16840434497101E-19,-0.01));
#375=CARTESIAN_POINT('',(2.72737577280551E-20,-3.25260651745652E-19,-0.013));
#376=CARTESIAN_POINT('',(0.,0.,-0.013));
#377=CARTESIAN_POINT('',(0.,0.,-0.01));
#378=CARTESIAN_POINT('',(0.,0.,0.0035));
#379=CARTESIAN_POINT('',(-0.00111803398874989,0.002,0.0035));
#380=CARTESIAN_POINT('',(0.00223606797749979,0.002,0.0035));
#381=CARTESIAN_POINT('',(-0.00223606797749979,0.002,0.0035));
#382=CARTESIAN_POINT('',(-4.92385964305255E-19,8.67361737988404E-19,0.0035));
#383=CARTESIAN_POINT('',(-4.92385964305255E-19,8.67361737988404E-19,0.0065));
#384=CARTESIAN_POINT('',(-0.00223606797749979,0.002,0.0065));
#385=CARTESIAN_POINT('',(-0.00223606797749979,0.002,-0.003));
#386=CARTESIAN_POINT('',(0.00223606797749979,0.002,0.0065));
#387=CARTESIAN_POINT('',(0.00223606797749979,0.002,-0.003));
#388=CARTESIAN_POINT('',(-4.92385964305255E-19,8.67361737988404E-19,-0.003));
#389=CARTESIAN_POINT('',(-0.00111803398874989,0.002,0.0065));
#390=CARTESIAN_POINT('',(-0.00111803398874989,0.002,-0.003));
#391=CARTESIAN_POINT('',(0.,0.,-0.003));
#392=MECHANICAL_DESIGN_GEOMETRIC_PRESENTATION_REPRESENTATION('',(#213),
#394);
#393=MECHANICAL_DESIGN_GEOMETRIC_PRESENTATION_REPRESENTATION('',(#214),
#395);
#394=(
GEOMETRIC_REPRESENTATION_CONTEXT(3)
GLOBAL_UNCERTAINTY_ASSIGNED_CONTEXT((#396))
GLOBAL_UNIT_ASSIGNED_CONTEXT((#402,#400,#398))
REPRESENTATION_CONTEXT('Part 2','TOP_LEVEL_ASSEMBLY_PART')
);
#395=(
GEOMETRIC_REPRESENTATION_CONTEXT(3)
GLOBAL_UNCERTAINTY_ASSIGNED_CONTEXT((#397))
GLOBAL_UNIT_ASSIGNED_CONTEXT((#403,#401,#399))
REPRESENTATION_CONTEXT('Part 1','TOP_LEVEL_ASSEMBLY_PART')
);
#396=UNCERTAINTY_MEASURE_WITH_UNIT(LENGTH_MEASURE(1.E-8),#402,
'DISTANCE_ACCURACY_VALUE','Maximum Tolerance applied to model');
#397=UNCERTAINTY_MEASURE_WITH_UNIT(LENGTH_MEASURE(1.E-8),#403,
'DISTANCE_ACCURACY_VALUE','Maximum Tolerance applied to model');
#398=(
NAMED_UNIT(*)
SI_UNIT($,.STERADIAN.)
SOLID_ANGLE_UNIT()
);
#399=(
NAMED_UNIT(*)
SI_UNIT($,.STERADIAN.)
SOLID_ANGLE_UNIT()
);
#400=(
NAMED_UNIT(*)
PLANE_ANGLE_UNIT()
SI_UNIT($,.RADIAN.)
);
#401=(
NAMED_UNIT(*)
PLANE_ANGLE_UNIT()
SI_UNIT($,.RADIAN.)
);
#402=(
LENGTH_UNIT()
NAMED_UNIT(*)
SI_UNIT($,.METRE.)
);
#403=(
LENGTH_UNIT()
NAMED_UNIT(*)
SI_UNIT($,.METRE.)
);
#404=PRODUCT_DEFINITION_SHAPE('','',#406);
#405=PRODUCT_DEFINITION_SHAPE('','',#407);
#406=PRODUCT_DEFINITION('','',#410,#408);
#407=PRODUCT_DEFINITION('','',#411,#409);
#408=PRODUCT_DEFINITION_CONTEXT('',#422,'design');
#409=PRODUCT_DEFINITION_CONTEXT('',#423,'design');
#410=PRODUCT_DEFINITION_FORMATION_WITH_SPECIFIED_SOURCE('','',#414,
 .NOT_KNOWN.);
#411=PRODUCT_DEFINITION_FORMATION_WITH_SPECIFIED_SOURCE('','',#415,
 .NOT_KNOWN.);
#412=PRODUCT_RELATED_PRODUCT_CATEGORY('','',(#414));
#413=PRODUCT_RELATED_PRODUCT_CATEGORY('','',(#415));
#414=PRODUCT('Part 2','Part 2','Part 2',(#418));
#415=PRODUCT('Part 1','Part 1','Part 1',(#419));
#416=PRODUCT_CATEGORY('','');
#417=PRODUCT_CATEGORY('','');
#418=PRODUCT_CONTEXT('',#422,'mechanical');
#419=PRODUCT_CONTEXT('',#423,'mechanical');
#420=APPLICATION_PROTOCOL_DEFINITION('international standard',
'ap242_managed_model_based_3d_engineering',2020,#422);
#421=APPLICATION_PROTOCOL_DEFINITION('international standard',
'ap242_managed_model_based_3d_engineering',2020,#423);
#422=APPLICATION_CONTEXT('managed model based 3d engineering');
#423=APPLICATION_CONTEXT('managed model based 3d engineering');
ENDSEC;
END-ISO-10303-21;
