ISO-10303-21;
HEADER;
/* Generated by software containing ST-Developer
 * from STEP Tools, Inc. (www.steptools.com) 
 */
/* OPTION: using custom renumber hook */

FILE_DESCRIPTION(
/* description */ ('STEP AP242 Edition 2',
'CAx-IF Rec.Pracs.---Representation and Presentation of Product Manufa
cturing Information (PMI)---4.0---2014-10-13',
'CAx-IF Rec.Pracs.---3D Tessellated Geometry---0.4---2014-09-14','2;1',
'CAx-IF Rec.Pracs.---User Defined Attributes---1.5---2016-08-15'),
/* implementation_level */ '2;1');

FILE_NAME(
/* name */ 'Part Studio 2',
/* time_stamp */ '2026-05-30T05:20:09Z',
/* author */ (''),
/* organization */ (''),
/* preprocessor_version */ 'ST-DEVELOPER v20',
/* originating_system */ 'ONSHAPE BY PTC INC, 1.215',
/* authorisation */ '  ');

FILE_SCHEMA (('AP242_MANAGED_MODEL_BASED_3D_ENGINEERING_MIM_LF { 1 0 10303 442 3 1 4 }'));
ENDSEC;

DATA;
#10=SHAPE_REPRESENTATION_RELATIONSHIP('','',#353,#11);
#11=ADVANCED_BREP_SHAPE_REPRESENTATION('',(#351),#611);
#12=PLANE('',#361);
#13=PLANE('',#373);
#14=PLANE('',#381);
#15=PLANE('',#391);
#16=LINE('',#524,#22);
#17=LINE('',#528,#23);
#18=LINE('',#530,#24);
#19=LINE('',#535,#25);
#20=LINE('',#607,#26);
#21=LINE('',#608,#27);
#22=VECTOR('',#413,1.);
#23=VECTOR('',#416,1.);
#24=VECTOR('',#419,1.);
#25=VECTOR('',#422,1.);
#26=VECTOR('',#515,1.);
#27=VECTOR('',#516,1.);
#28=ORIENTED_EDGE('',*,*,#104,.T.);
#29=ORIENTED_EDGE('',*,*,#105,.T.);
#30=ORIENTED_EDGE('',*,*,#106,.F.);
#31=ORIENTED_EDGE('',*,*,#107,.F.);
#32=ORIENTED_EDGE('',*,*,#108,.F.);
#33=ORIENTED_EDGE('',*,*,#109,.T.);
#34=ORIENTED_EDGE('',*,*,#110,.T.);
#35=ORIENTED_EDGE('',*,*,#111,.F.);
#36=ORIENTED_EDGE('',*,*,#112,.F.);
#37=ORIENTED_EDGE('',*,*,#113,.F.);
#38=ORIENTED_EDGE('',*,*,#114,.F.);
#39=ORIENTED_EDGE('',*,*,#115,.F.);
#40=ORIENTED_EDGE('',*,*,#116,.F.);
#41=ORIENTED_EDGE('',*,*,#117,.T.);
#42=ORIENTED_EDGE('',*,*,#118,.F.);
#43=ORIENTED_EDGE('',*,*,#119,.T.);
#44=ORIENTED_EDGE('',*,*,#120,.T.);
#45=ORIENTED_EDGE('',*,*,#116,.T.);
#46=ORIENTED_EDGE('',*,*,#121,.T.);
#47=ORIENTED_EDGE('',*,*,#122,.T.);
#48=ORIENTED_EDGE('',*,*,#104,.F.);
#49=ORIENTED_EDGE('',*,*,#123,.F.);
#50=ORIENTED_EDGE('',*,*,#109,.F.);
#51=ORIENTED_EDGE('',*,*,#124,.F.);
#52=ORIENTED_EDGE('',*,*,#125,.T.);
#53=ORIENTED_EDGE('',*,*,#126,.T.);
#54=ORIENTED_EDGE('',*,*,#127,.T.);
#55=ORIENTED_EDGE('',*,*,#118,.T.);
#56=ORIENTED_EDGE('',*,*,#128,.F.);
#57=ORIENTED_EDGE('',*,*,#129,.F.);
#58=ORIENTED_EDGE('',*,*,#130,.T.);
#59=ORIENTED_EDGE('',*,*,#106,.T.);
#60=ORIENTED_EDGE('',*,*,#131,.T.);
#61=ORIENTED_EDGE('',*,*,#111,.T.);
#62=ORIENTED_EDGE('',*,*,#132,.F.);
#63=ORIENTED_EDGE('',*,*,#133,.F.);
#64=ORIENTED_EDGE('',*,*,#134,.F.);
#65=ORIENTED_EDGE('',*,*,#120,.F.);
#66=ORIENTED_EDGE('',*,*,#135,.F.);
#67=ORIENTED_EDGE('',*,*,#117,.F.);
#68=ORIENTED_EDGE('',*,*,#119,.F.);
#69=ORIENTED_EDGE('',*,*,#136,.F.);
#70=ORIENTED_EDGE('',*,*,#137,.F.);
#71=ORIENTED_EDGE('',*,*,#138,.F.);
#72=ORIENTED_EDGE('',*,*,#139,.F.);
#73=ORIENTED_EDGE('',*,*,#135,.T.);
#74=ORIENTED_EDGE('',*,*,#139,.T.);
#75=ORIENTED_EDGE('',*,*,#115,.T.);
#76=ORIENTED_EDGE('',*,*,#138,.T.);
#77=ORIENTED_EDGE('',*,*,#114,.T.);
#78=ORIENTED_EDGE('',*,*,#137,.T.);
#79=ORIENTED_EDGE('',*,*,#113,.T.);
#80=ORIENTED_EDGE('',*,*,#136,.T.);
#81=ORIENTED_EDGE('',*,*,#112,.T.);
#82=ORIENTED_EDGE('',*,*,#127,.F.);
#83=ORIENTED_EDGE('',*,*,#134,.T.);
#84=ORIENTED_EDGE('',*,*,#126,.F.);
#85=ORIENTED_EDGE('',*,*,#133,.T.);
#86=ORIENTED_EDGE('',*,*,#125,.F.);
#87=ORIENTED_EDGE('',*,*,#132,.T.);
#88=ORIENTED_EDGE('',*,*,#130,.F.);
#89=ORIENTED_EDGE('',*,*,#110,.F.);
#90=ORIENTED_EDGE('',*,*,#123,.T.);
#91=ORIENTED_EDGE('',*,*,#107,.T.);
#92=ORIENTED_EDGE('',*,*,#131,.F.);
#93=ORIENTED_EDGE('',*,*,#105,.F.);
#94=ORIENTED_EDGE('',*,*,#124,.T.);
#95=ORIENTED_EDGE('',*,*,#108,.T.);
#96=ORIENTED_EDGE('',*,*,#128,.T.);
#97=ORIENTED_EDGE('',*,*,#140,.F.);
#98=ORIENTED_EDGE('',*,*,#122,.F.);
#99=ORIENTED_EDGE('',*,*,#141,.T.);
#100=ORIENTED_EDGE('',*,*,#129,.T.);
#101=ORIENTED_EDGE('',*,*,#141,.F.);
#102=ORIENTED_EDGE('',*,*,#121,.F.);
#103=ORIENTED_EDGE('',*,*,#140,.T.);
#104=EDGE_CURVE('',#142,#143,#174,.T.);
#105=EDGE_CURVE('',#143,#144,#16,.T.);
#106=EDGE_CURVE('',#145,#144,#175,.T.);
#107=EDGE_CURVE('',#142,#145,#17,.T.);
#108=EDGE_CURVE('',#146,#147,#18,.T.);
#109=EDGE_CURVE('',#146,#148,#176,.T.);
#110=EDGE_CURVE('',#148,#149,#19,.T.);
#111=EDGE_CURVE('',#147,#149,#177,.T.);
#112=EDGE_CURVE('',#150,#150,#178,.T.);
#113=EDGE_CURVE('',#151,#151,#179,.T.);
#114=EDGE_CURVE('',#152,#152,#180,.T.);
#115=EDGE_CURVE('',#153,#153,#181,.T.);
#116=EDGE_CURVE('',#154,#154,#182,.F.);
#117=EDGE_CURVE('',#155,#155,#183,.T.);
#118=EDGE_CURVE('',#156,#156,#184,.T.);
#119=EDGE_CURVE('',#157,#157,#185,.T.);
#120=EDGE_CURVE('',#158,#158,#186,.T.);
#121=EDGE_CURVE('',#159,#160,#187,.T.);
#122=EDGE_CURVE('',#160,#159,#188,.T.);
#123=EDGE_CURVE('',#148,#142,#189,.T.);
#124=EDGE_CURVE('',#143,#146,#190,.T.);
#125=EDGE_CURVE('',#161,#161,#191,.T.);
#126=EDGE_CURVE('',#162,#162,#192,.T.);
#127=EDGE_CURVE('',#163,#163,#193,.T.);
#128=EDGE_CURVE('',#164,#165,#194,.T.);
#129=EDGE_CURVE('',#165,#164,#195,.T.);
#130=EDGE_CURVE('',#149,#145,#196,.T.);
#131=EDGE_CURVE('',#144,#147,#197,.T.);
#132=EDGE_CURVE('',#166,#166,#198,.T.);
#133=EDGE_CURVE('',#167,#167,#199,.T.);
#134=EDGE_CURVE('',#168,#168,#200,.T.);
#135=EDGE_CURVE('',#169,#169,#201,.T.);
#136=EDGE_CURVE('',#170,#170,#202,.T.);
#137=EDGE_CURVE('',#171,#171,#203,.T.);
#138=EDGE_CURVE('',#172,#172,#204,.T.);
#139=EDGE_CURVE('',#173,#173,#205,.T.);
#140=EDGE_CURVE('',#159,#165,#20,.T.);
#141=EDGE_CURVE('',#160,#164,#21,.T.);
#142=VERTEX_POINT('',#522);
#143=VERTEX_POINT('',#523);
#144=VERTEX_POINT('',#525);
#145=VERTEX_POINT('',#527);
#146=VERTEX_POINT('',#531);
#147=VERTEX_POINT('',#532);
#148=VERTEX_POINT('',#534);
#149=VERTEX_POINT('',#536);
#150=VERTEX_POINT('',#540);
#151=VERTEX_POINT('',#542);
#152=VERTEX_POINT('',#544);
#153=VERTEX_POINT('',#546);
#154=VERTEX_POINT('',#548);
#155=VERTEX_POINT('',#550);
#156=VERTEX_POINT('',#553);
#157=VERTEX_POINT('',#555);
#158=VERTEX_POINT('',#558);
#159=VERTEX_POINT('',#561);
#160=VERTEX_POINT('',#562);
#161=VERTEX_POINT('',#567);
#162=VERTEX_POINT('',#569);
#163=VERTEX_POINT('',#571);
#164=VERTEX_POINT('',#574);
#165=VERTEX_POINT('',#575);
#166=VERTEX_POINT('',#580);
#167=VERTEX_POINT('',#582);
#168=VERTEX_POINT('',#584);
#169=VERTEX_POINT('',#587);
#170=VERTEX_POINT('',#590);
#171=VERTEX_POINT('',#592);
#172=VERTEX_POINT('',#594);
#173=VERTEX_POINT('',#596);
#174=CIRCLE('',#356,0.0185);
#175=CIRCLE('',#357,0.0185);
#176=CIRCLE('',#359,0.0185);
#177=CIRCLE('',#360,0.0185);
#178=CIRCLE('',#362,0.0015);
#179=CIRCLE('',#363,0.0015);
#180=CIRCLE('',#364,0.0015);
#181=CIRCLE('',#365,0.0015);
#182=CIRCLE('',#366,0.008);
#183=CIRCLE('',#367,0.0135);
#184=CIRCLE('',#369,0.004);
#185=CIRCLE('',#370,0.004);
#186=CIRCLE('',#372,0.008);
#187=CIRCLE('',#374,0.0015);
#188=CIRCLE('',#375,0.0185);
#189=CIRCLE('',#376,0.0022);
#190=CIRCLE('',#377,0.0022);
#191=CIRCLE('',#378,0.0015);
#192=CIRCLE('',#379,0.0015);
#193=CIRCLE('',#380,0.0015);
#194=CIRCLE('',#382,0.0185);
#195=CIRCLE('',#383,0.0015);
#196=CIRCLE('',#384,0.0022);
#197=CIRCLE('',#385,0.0022);
#198=CIRCLE('',#386,0.0015);
#199=CIRCLE('',#387,0.0015);
#200=CIRCLE('',#388,0.0015);
#201=CIRCLE('',#390,0.0135);
#202=CIRCLE('',#392,0.0015);
#203=CIRCLE('',#393,0.0015);
#204=CIRCLE('',#394,0.0015);
#205=CIRCLE('',#395,0.0015);
#206=EDGE_LOOP('',(#28,#29,#30,#31));
#207=EDGE_LOOP('',(#32,#33,#34,#35));
#208=EDGE_LOOP('',(#36));
#209=EDGE_LOOP('',(#37));
#210=EDGE_LOOP('',(#38));
#211=EDGE_LOOP('',(#39));
#212=EDGE_LOOP('',(#40));
#213=EDGE_LOOP('',(#41));
#214=EDGE_LOOP('',(#42));
#215=EDGE_LOOP('',(#43));
#216=EDGE_LOOP('',(#44));
#217=EDGE_LOOP('',(#45));
#218=EDGE_LOOP('',(#46,#47));
#219=EDGE_LOOP('',(#48,#49,#50,#51));
#220=EDGE_LOOP('',(#52));
#221=EDGE_LOOP('',(#53));
#222=EDGE_LOOP('',(#54));
#223=EDGE_LOOP('',(#55));
#224=EDGE_LOOP('',(#56,#57));
#225=EDGE_LOOP('',(#58,#59,#60,#61));
#226=EDGE_LOOP('',(#62));
#227=EDGE_LOOP('',(#63));
#228=EDGE_LOOP('',(#64));
#229=EDGE_LOOP('',(#65));
#230=EDGE_LOOP('',(#66));
#231=EDGE_LOOP('',(#67));
#232=EDGE_LOOP('',(#68));
#233=EDGE_LOOP('',(#69));
#234=EDGE_LOOP('',(#70));
#235=EDGE_LOOP('',(#71));
#236=EDGE_LOOP('',(#72));
#237=EDGE_LOOP('',(#73));
#238=EDGE_LOOP('',(#74));
#239=EDGE_LOOP('',(#75));
#240=EDGE_LOOP('',(#76));
#241=EDGE_LOOP('',(#77));
#242=EDGE_LOOP('',(#78));
#243=EDGE_LOOP('',(#79));
#244=EDGE_LOOP('',(#80));
#245=EDGE_LOOP('',(#81));
#246=EDGE_LOOP('',(#82));
#247=EDGE_LOOP('',(#83));
#248=EDGE_LOOP('',(#84));
#249=EDGE_LOOP('',(#85));
#250=EDGE_LOOP('',(#86));
#251=EDGE_LOOP('',(#87));
#252=EDGE_LOOP('',(#88,#89,#90,#91));
#253=EDGE_LOOP('',(#92,#93,#94,#95));
#254=EDGE_LOOP('',(#96,#97,#98,#99));
#255=EDGE_LOOP('',(#100,#101,#102,#103));
#256=FACE_BOUND('',#206,.T.);
#257=FACE_BOUND('',#207,.T.);
#258=FACE_BOUND('',#208,.T.);
#259=FACE_BOUND('',#209,.T.);
#260=FACE_BOUND('',#210,.T.);
#261=FACE_BOUND('',#211,.T.);
#262=FACE_BOUND('',#212,.T.);
#263=FACE_BOUND('',#213,.T.);
#264=FACE_BOUND('',#214,.T.);
#265=FACE_BOUND('',#215,.T.);
#266=FACE_BOUND('',#216,.T.);
#267=FACE_BOUND('',#217,.T.);
#268=FACE_BOUND('',#218,.T.);
#269=FACE_BOUND('',#219,.T.);
#270=FACE_BOUND('',#220,.T.);
#271=FACE_BOUND('',#221,.T.);
#272=FACE_BOUND('',#222,.T.);
#273=FACE_BOUND('',#223,.T.);
#274=FACE_BOUND('',#224,.T.);
#275=FACE_BOUND('',#225,.T.);
#276=FACE_BOUND('',#226,.T.);
#277=FACE_BOUND('',#227,.T.);
#278=FACE_BOUND('',#228,.T.);
#279=FACE_BOUND('',#229,.T.);
#280=FACE_BOUND('',#230,.T.);
#281=FACE_BOUND('',#231,.T.);
#282=FACE_BOUND('',#232,.T.);
#283=FACE_BOUND('',#233,.T.);
#284=FACE_BOUND('',#234,.T.);
#285=FACE_BOUND('',#235,.T.);
#286=FACE_BOUND('',#236,.T.);
#287=FACE_BOUND('',#237,.T.);
#288=FACE_BOUND('',#238,.T.);
#289=FACE_BOUND('',#239,.T.);
#290=FACE_BOUND('',#240,.T.);
#291=FACE_BOUND('',#241,.T.);
#292=FACE_BOUND('',#242,.T.);
#293=FACE_BOUND('',#243,.T.);
#294=FACE_BOUND('',#244,.T.);
#295=FACE_BOUND('',#245,.T.);
#296=FACE_BOUND('',#246,.T.);
#297=FACE_BOUND('',#247,.T.);
#298=FACE_BOUND('',#248,.T.);
#299=FACE_BOUND('',#249,.T.);
#300=FACE_BOUND('',#250,.T.);
#301=FACE_BOUND('',#251,.T.);
#302=FACE_BOUND('',#252,.T.);
#303=FACE_BOUND('',#253,.T.);
#304=FACE_BOUND('',#254,.T.);
#305=FACE_BOUND('',#255,.T.);
#306=CYLINDRICAL_SURFACE('',#355,0.0185);
#307=CYLINDRICAL_SURFACE('',#358,0.0185);
#308=CYLINDRICAL_SURFACE('',#368,0.004);
#309=CYLINDRICAL_SURFACE('',#371,0.008);
#310=CYLINDRICAL_SURFACE('',#389,0.0135);
#311=CYLINDRICAL_SURFACE('',#396,0.0015);
#312=CYLINDRICAL_SURFACE('',#397,0.0015);
#313=CYLINDRICAL_SURFACE('',#398,0.0015);
#314=CYLINDRICAL_SURFACE('',#399,0.0015);
#315=CYLINDRICAL_SURFACE('',#400,0.0015);
#316=CYLINDRICAL_SURFACE('',#401,0.0015);
#317=CYLINDRICAL_SURFACE('',#402,0.0015);
#318=CYLINDRICAL_SURFACE('',#403,0.0022);
#319=CYLINDRICAL_SURFACE('',#404,0.0022);
#320=CYLINDRICAL_SURFACE('',#405,0.0185);
#321=CYLINDRICAL_SURFACE('',#406,0.0015);
#322=ADVANCED_FACE('',(#256),#306,.T.);
#323=ADVANCED_FACE('',(#257),#307,.T.);
#324=ADVANCED_FACE('',(#258,#259,#260,#261,#262,#263),#12,.F.);
#325=ADVANCED_FACE('',(#264,#265),#308,.F.);
#326=ADVANCED_FACE('',(#266,#267),#309,.T.);
#327=ADVANCED_FACE('',(#268,#269,#270,#271,#272,#273),#13,.F.);
#328=ADVANCED_FACE('',(#274,#275,#276,#277,#278,#279),#14,.T.);
#329=ADVANCED_FACE('',(#280,#281),#310,.T.);
#330=ADVANCED_FACE('',(#282,#283,#284,#285,#286,#287),#15,.T.);
#331=ADVANCED_FACE('',(#288,#289),#311,.F.);
#332=ADVANCED_FACE('',(#290,#291),#312,.F.);
#333=ADVANCED_FACE('',(#292,#293),#313,.F.);
#334=ADVANCED_FACE('',(#294,#295),#314,.F.);
#335=ADVANCED_FACE('',(#296,#297),#315,.F.);
#336=ADVANCED_FACE('',(#298,#299),#316,.F.);
#337=ADVANCED_FACE('',(#300,#301),#317,.F.);
#338=ADVANCED_FACE('',(#302),#318,.T.);
#339=ADVANCED_FACE('',(#303),#319,.T.);
#340=ADVANCED_FACE('',(#304),#320,.F.);
#341=ADVANCED_FACE('',(#305),#321,.F.);
#342=CLOSED_SHELL('',(#322,#323,#324,#325,#326,#327,#328,#329,#330,#331,
#332,#333,#334,#335,#336,#337,#338,#339,#340,#341));
#343=STYLED_ITEM('',(#344),#351);
#344=PRESENTATION_STYLE_ASSIGNMENT((#345));
#345=SURFACE_STYLE_USAGE(.BOTH.,#346);
#346=SURFACE_SIDE_STYLE('',(#347));
#347=SURFACE_STYLE_FILL_AREA(#348);
#348=FILL_AREA_STYLE('',(#349));
#349=FILL_AREA_STYLE_COLOUR('',#350);
#350=COLOUR_RGB('',0.615686274509804,0.811764705882353,0.929411764705882);
#351=MANIFOLD_SOLID_BREP('Part 1',#342);
#352=SHAPE_DEFINITION_REPRESENTATION(#616,#353);
#353=SHAPE_REPRESENTATION('Part 1',(#354),#611);
#354=AXIS2_PLACEMENT_3D('',#519,#407,#408);
#355=AXIS2_PLACEMENT_3D('',#520,#409,#410);
#356=AXIS2_PLACEMENT_3D('',#521,#411,#412);
#357=AXIS2_PLACEMENT_3D('',#526,#414,#415);
#358=AXIS2_PLACEMENT_3D('',#529,#417,#418);
#359=AXIS2_PLACEMENT_3D('',#533,#420,#421);
#360=AXIS2_PLACEMENT_3D('',#537,#423,#424);
#361=AXIS2_PLACEMENT_3D('',#538,#425,#426);
#362=AXIS2_PLACEMENT_3D('',#539,#427,#428);
#363=AXIS2_PLACEMENT_3D('',#541,#429,#430);
#364=AXIS2_PLACEMENT_3D('',#543,#431,#432);
#365=AXIS2_PLACEMENT_3D('',#545,#433,#434);
#366=AXIS2_PLACEMENT_3D('',#547,#435,#436);
#367=AXIS2_PLACEMENT_3D('',#549,#437,#438);
#368=AXIS2_PLACEMENT_3D('',#551,#439,#440);
#369=AXIS2_PLACEMENT_3D('',#552,#441,#442);
#370=AXIS2_PLACEMENT_3D('',#554,#443,#444);
#371=AXIS2_PLACEMENT_3D('',#556,#445,#446);
#372=AXIS2_PLACEMENT_3D('',#557,#447,#448);
#373=AXIS2_PLACEMENT_3D('',#559,#449,#450);
#374=AXIS2_PLACEMENT_3D('',#560,#451,#452);
#375=AXIS2_PLACEMENT_3D('',#563,#453,#454);
#376=AXIS2_PLACEMENT_3D('',#564,#455,#456);
#377=AXIS2_PLACEMENT_3D('',#565,#457,#458);
#378=AXIS2_PLACEMENT_3D('',#566,#459,#460);
#379=AXIS2_PLACEMENT_3D('',#568,#461,#462);
#380=AXIS2_PLACEMENT_3D('',#570,#463,#464);
#381=AXIS2_PLACEMENT_3D('',#572,#465,#466);
#382=AXIS2_PLACEMENT_3D('',#573,#467,#468);
#383=AXIS2_PLACEMENT_3D('',#576,#469,#470);
#384=AXIS2_PLACEMENT_3D('',#577,#471,#472);
#385=AXIS2_PLACEMENT_3D('',#578,#473,#474);
#386=AXIS2_PLACEMENT_3D('',#579,#475,#476);
#387=AXIS2_PLACEMENT_3D('',#581,#477,#478);
#388=AXIS2_PLACEMENT_3D('',#583,#479,#480);
#389=AXIS2_PLACEMENT_3D('',#585,#481,#482);
#390=AXIS2_PLACEMENT_3D('',#586,#483,#484);
#391=AXIS2_PLACEMENT_3D('',#588,#485,#486);
#392=AXIS2_PLACEMENT_3D('',#589,#487,#488);
#393=AXIS2_PLACEMENT_3D('',#591,#489,#490);
#394=AXIS2_PLACEMENT_3D('',#593,#491,#492);
#395=AXIS2_PLACEMENT_3D('',#595,#493,#494);
#396=AXIS2_PLACEMENT_3D('',#597,#495,#496);
#397=AXIS2_PLACEMENT_3D('',#598,#497,#498);
#398=AXIS2_PLACEMENT_3D('',#599,#499,#500);
#399=AXIS2_PLACEMENT_3D('',#600,#501,#502);
#400=AXIS2_PLACEMENT_3D('',#601,#503,#504);
#401=AXIS2_PLACEMENT_3D('',#602,#505,#506);
#402=AXIS2_PLACEMENT_3D('',#603,#507,#508);
#403=AXIS2_PLACEMENT_3D('',#604,#509,#510);
#404=AXIS2_PLACEMENT_3D('',#605,#511,#512);
#405=AXIS2_PLACEMENT_3D('',#606,#513,#514);
#406=AXIS2_PLACEMENT_3D('',#609,#517,#518);
#407=DIRECTION('',(0.,0.,1.));
#408=DIRECTION('',(1.,0.,0.));
#409=DIRECTION('',(0.,0.,1.));
#410=DIRECTION('',(1.,0.,0.));
#411=DIRECTION('',(0.,0.,1.));
#412=DIRECTION('',(1.,0.,0.));
#413=DIRECTION('',(0.,0.,1.));
#414=DIRECTION('',(0.,0.,1.));
#415=DIRECTION('',(1.,0.,0.));
#416=DIRECTION('',(0.,0.,1.));
#417=DIRECTION('',(0.,0.,1.));
#418=DIRECTION('',(1.,0.,0.));
#419=DIRECTION('',(0.,0.,1.));
#420=DIRECTION('',(0.,0.,1.));
#421=DIRECTION('',(1.,0.,0.));
#422=DIRECTION('',(0.,0.,1.));
#423=DIRECTION('',(0.,0.,1.));
#424=DIRECTION('',(1.,0.,0.));
#425=DIRECTION('',(0.,0.,1.));
#426=DIRECTION('',(1.,0.,0.));
#427=DIRECTION('',(0.,0.,-1.));
#428=DIRECTION('',(-1.,0.,0.));
#429=DIRECTION('',(0.,0.,-1.));
#430=DIRECTION('',(-1.,0.,0.));
#431=DIRECTION('',(0.,0.,-1.));
#432=DIRECTION('',(-1.,0.,0.));
#433=DIRECTION('',(0.,0.,-1.));
#434=DIRECTION('',(-1.,0.,0.));
#435=DIRECTION('',(0.,0.,1.));
#436=DIRECTION('',(1.,0.,0.));
#437=DIRECTION('',(0.,0.,-1.));
#438=DIRECTION('',(-1.,0.,0.));
#439=DIRECTION('',(0.,0.,1.));
#440=DIRECTION('',(1.,0.,0.));
#441=DIRECTION('',(0.,0.,1.));
#442=DIRECTION('',(1.,0.,0.));
#443=DIRECTION('',(0.,0.,1.));
#444=DIRECTION('',(1.,0.,0.));
#445=DIRECTION('',(0.,0.,1.));
#446=DIRECTION('',(1.,0.,0.));
#447=DIRECTION('',(0.,0.,1.));
#448=DIRECTION('',(1.,0.,0.));
#449=DIRECTION('',(0.,0.,1.));
#450=DIRECTION('',(1.,0.,0.));
#451=DIRECTION('',(0.,0.,1.));
#452=DIRECTION('',(1.,0.,0.));
#453=DIRECTION('',(0.,0.,1.));
#454=DIRECTION('',(1.,0.,0.));
#455=DIRECTION('',(0.,0.,1.));
#456=DIRECTION('',(1.,0.,0.));
#457=DIRECTION('',(0.,0.,1.));
#458=DIRECTION('',(1.,0.,0.));
#459=DIRECTION('',(0.,0.,1.));
#460=DIRECTION('',(1.,0.,0.));
#461=DIRECTION('',(0.,0.,1.));
#462=DIRECTION('',(1.,0.,0.));
#463=DIRECTION('',(0.,0.,1.));
#464=DIRECTION('',(1.,0.,0.));
#465=DIRECTION('',(0.,0.,1.));
#466=DIRECTION('',(1.,0.,0.));
#467=DIRECTION('',(0.,0.,1.));
#468=DIRECTION('',(1.,0.,0.));
#469=DIRECTION('',(0.,0.,1.));
#470=DIRECTION('',(1.,0.,0.));
#471=DIRECTION('',(0.,0.,1.));
#472=DIRECTION('',(1.,0.,0.));
#473=DIRECTION('',(0.,0.,1.));
#474=DIRECTION('',(1.,0.,0.));
#475=DIRECTION('',(0.,0.,1.));
#476=DIRECTION('',(1.,0.,0.));
#477=DIRECTION('',(0.,0.,1.));
#478=DIRECTION('',(1.,0.,0.));
#479=DIRECTION('',(0.,0.,1.));
#480=DIRECTION('',(1.,0.,0.));
#481=DIRECTION('',(0.,0.,-1.));
#482=DIRECTION('',(-1.,0.,0.));
#483=DIRECTION('',(0.,0.,1.));
#484=DIRECTION('',(1.,0.,0.));
#485=DIRECTION('',(0.,0.,1.));
#486=DIRECTION('',(1.,0.,0.));
#487=DIRECTION('',(0.,0.,1.));
#488=DIRECTION('',(1.,0.,0.));
#489=DIRECTION('',(0.,0.,1.));
#490=DIRECTION('',(1.,0.,0.));
#491=DIRECTION('',(0.,0.,1.));
#492=DIRECTION('',(1.,0.,0.));
#493=DIRECTION('',(0.,0.,1.));
#494=DIRECTION('',(1.,0.,0.));
#495=DIRECTION('',(0.,0.,-1.));
#496=DIRECTION('',(-1.,0.,0.));
#497=DIRECTION('',(0.,0.,-1.));
#498=DIRECTION('',(-1.,0.,0.));
#499=DIRECTION('',(0.,0.,-1.));
#500=DIRECTION('',(-1.,0.,0.));
#501=DIRECTION('',(0.,0.,-1.));
#502=DIRECTION('',(-1.,0.,0.));
#503=DIRECTION('',(0.,0.,1.));
#504=DIRECTION('',(1.,0.,0.));
#505=DIRECTION('',(0.,0.,1.));
#506=DIRECTION('',(1.,0.,0.));
#507=DIRECTION('',(0.,0.,1.));
#508=DIRECTION('',(1.,0.,0.));
#509=DIRECTION('',(0.,0.,1.));
#510=DIRECTION('',(1.,0.,0.));
#511=DIRECTION('',(0.,0.,1.));
#512=DIRECTION('',(1.,0.,0.));
#513=DIRECTION('',(0.,0.,1.));
#514=DIRECTION('',(1.,0.,0.));
#515=DIRECTION('',(0.,0.,1.));
#516=DIRECTION('',(0.,0.,1.));
#517=DIRECTION('',(0.,0.,1.));
#518=DIRECTION('',(1.,0.,0.));
#519=CARTESIAN_POINT('',(0.,0.,0.));
#520=CARTESIAN_POINT('',(0.,1.1327982892113E-18,-0.025));
#521=CARTESIAN_POINT('',(0.,1.1327982892113E-18,-0.025));
#522=CARTESIAN_POINT('',(0.0160929773326383,0.00912502496277085,-0.025));
#523=CARTESIAN_POINT('',(-0.0160957819524354,0.00912007693715643,-0.025));
#524=CARTESIAN_POINT('',(-0.0160957819524354,0.00912007693715643,-0.025));
#525=CARTESIAN_POINT('',(-0.0160957819524354,0.00912007693715643,-0.021));
#526=CARTESIAN_POINT('',(0.,1.1327982892113E-18,-0.021));
#527=CARTESIAN_POINT('',(0.0160929773326383,0.00912502496277085,-0.021));
#528=CARTESIAN_POINT('',(0.0160929773326383,0.00912502496277085,-0.025));
#529=CARTESIAN_POINT('',(0.,1.1327982892113E-18,-0.025));
#530=CARTESIAN_POINT('',(-0.0174768411740754,0.00606712638537727,-0.025));
#531=CARTESIAN_POINT('',(-0.0174768411740754,0.00606712638537727,-0.025));
#532=CARTESIAN_POINT('',(-0.0174768411740754,0.00606712638537727,-0.021));
#533=CARTESIAN_POINT('',(0.,1.1327982892113E-18,-0.025));
#534=CARTESIAN_POINT('',(0.0174861758602598,0.00604017001284478,-0.025));
#535=CARTESIAN_POINT('',(0.0174861758602598,0.00604017001284478,-0.025));
#536=CARTESIAN_POINT('',(0.0174861758602598,0.00604017001284478,-0.021));
#537=CARTESIAN_POINT('',(0.,1.1327982892113E-18,-0.021));
#538=CARTESIAN_POINT('',(0.,0.,-0.005));
#539=CARTESIAN_POINT('',(-1.88289445368905E-18,0.01075,-0.005));
#540=CARTESIAN_POINT('',(-0.0015,0.01075,-0.005));
#541=CARTESIAN_POINT('',(-0.01075,-1.22464679914735E-18,-0.005));
#542=CARTESIAN_POINT('',(-0.01225,-1.22464679914735E-18,-0.005));
#543=CARTESIAN_POINT('',(5.66399144605651E-19,-0.01075,-0.005));
#544=CARTESIAN_POINT('',(-0.0015,-0.01075,-0.005));
#545=CARTESIAN_POINT('',(0.01075,-9.18485099360515E-20,-0.005));
#546=CARTESIAN_POINT('',(0.00925,-9.18485099360515E-20,-0.005));
#547=CARTESIAN_POINT('',(0.,4.89858719658941E-19,-0.005));
#548=CARTESIAN_POINT('',(0.008,4.89858719658941E-19,-0.005));
#549=CARTESIAN_POINT('',(0.,-3.36777869765522E-19,-0.005));
#550=CARTESIAN_POINT('',(-0.0135,-3.36777869765522E-19,-0.005));
#551=CARTESIAN_POINT('',(0.,2.4492935982947E-19,-0.025));
#552=CARTESIAN_POINT('',(0.,2.4492935982947E-19,-0.025));
#553=CARTESIAN_POINT('',(0.004,2.4492935982947E-19,-0.025));
#554=CARTESIAN_POINT('',(0.,2.4492935982947E-19,0.));
#555=CARTESIAN_POINT('',(0.004,2.4492935982947E-19,0.));
#556=CARTESIAN_POINT('',(0.,4.89858719658941E-19,-0.021));
#557=CARTESIAN_POINT('',(0.,4.89858719658941E-19,-0.021));
#558=CARTESIAN_POINT('',(0.008,4.89858719658941E-19,-0.021));
#559=CARTESIAN_POINT('',(0.,0.,-0.025));
#560=CARTESIAN_POINT('',(0.0155085744336247,0.00700406450778246,-0.025));
#561=CARTESIAN_POINT('',(0.016762748726526,0.00782689307013658,-0.025));
#562=CARTESIAN_POINT('',(0.0169551164161853,0.00740094773077079,-0.025));
#563=CARTESIAN_POINT('',(0.,1.1327982892113E-18,-0.025));
#564=CARTESIAN_POINT('',(0.0155085744336247,0.00700406450778246,-0.025));
#565=CARTESIAN_POINT('',(-0.0154872043058276,0.00700592622160912,-0.025));
#566=CARTESIAN_POINT('',(-0.0154872043058276,0.00700592622160912,-0.025));
#567=CARTESIAN_POINT('',(-0.0139872043058276,0.00700592622160912,-0.025));
#568=CARTESIAN_POINT('',(0.00771990418434143,-0.00641526328399777,-0.025));
#569=CARTESIAN_POINT('',(0.00921990418434143,-0.00641526328399777,-0.025));
#570=CARTESIAN_POINT('',(-0.00773889338597655,-0.00644690822809935,-0.025));
#571=CARTESIAN_POINT('',(-0.00623889338597655,-0.00644690822809935,-0.025));
#572=CARTESIAN_POINT('',(0.,0.,-0.021));
#573=CARTESIAN_POINT('',(0.,1.1327982892113E-18,-0.021));
#574=CARTESIAN_POINT('',(0.0169551164161853,0.0074009477307708,-0.021));
#575=CARTESIAN_POINT('',(0.016762748726526,0.00782689307013657,-0.021));
#576=CARTESIAN_POINT('',(0.0155085744336247,0.00700406450778246,-0.021));
#577=CARTESIAN_POINT('',(0.0155085744336247,0.00700406450778246,-0.021));
#578=CARTESIAN_POINT('',(-0.0154872043058276,0.00700592622160912,-0.021));
#579=CARTESIAN_POINT('',(-0.0154872043058276,0.00700592622160912,-0.021));
#580=CARTESIAN_POINT('',(-0.0139872043058276,0.00700592622160912,-0.021));
#581=CARTESIAN_POINT('',(0.00771990418434143,-0.00641526328399777,-0.021));
#582=CARTESIAN_POINT('',(0.00921990418434143,-0.00641526328399777,-0.021));
#583=CARTESIAN_POINT('',(-0.00773889338597655,-0.00644690822809935,-0.021));
#584=CARTESIAN_POINT('',(-0.00623889338597655,-0.00644690822809935,-0.021));
#585=CARTESIAN_POINT('',(0.,-3.36777869765522E-19,0.02));
#586=CARTESIAN_POINT('',(0.,-3.36777869765522E-19,0.));
#587=CARTESIAN_POINT('',(0.0135,-3.36777869765522E-19,0.));
#588=CARTESIAN_POINT('',(0.,0.,0.));
#589=CARTESIAN_POINT('',(-1.88289445368905E-18,0.01075,0.));
#590=CARTESIAN_POINT('',(0.0015,0.01075,0.));
#591=CARTESIAN_POINT('',(-0.01075,-1.22464679914735E-18,0.));
#592=CARTESIAN_POINT('',(-0.00925,-1.22464679914735E-18,0.));
#593=CARTESIAN_POINT('',(5.66399144605651E-19,-0.01075,0.));
#594=CARTESIAN_POINT('',(0.0015,-0.01075,0.));
#595=CARTESIAN_POINT('',(0.01075,-9.18485099360515E-20,0.));
#596=CARTESIAN_POINT('',(0.01225,-9.18485099360515E-20,0.));
#597=CARTESIAN_POINT('',(0.01075,-9.18485099360515E-20,0.02));
#598=CARTESIAN_POINT('',(5.66399144605651E-19,-0.01075,0.02));
#599=CARTESIAN_POINT('',(-0.01075,-1.22464679914735E-18,0.02));
#600=CARTESIAN_POINT('',(-1.88289445368905E-18,0.01075,0.02));
#601=CARTESIAN_POINT('',(-0.00773889338597655,-0.00644690822809935,-0.025));
#602=CARTESIAN_POINT('',(0.00771990418434143,-0.00641526328399777,-0.025));
#603=CARTESIAN_POINT('',(-0.0154872043058276,0.00700592622160912,-0.025));
#604=CARTESIAN_POINT('',(0.0155085744336247,0.00700406450778246,-0.025));
#605=CARTESIAN_POINT('',(-0.0154872043058276,0.00700592622160912,-0.025));
#606=CARTESIAN_POINT('',(0.,1.1327982892113E-18,-0.025));
#607=CARTESIAN_POINT('',(0.016762748726526,0.00782689307013658,-0.025));
#608=CARTESIAN_POINT('',(0.0169551164161853,0.0074009477307708,-0.025));
#609=CARTESIAN_POINT('',(0.0155085744336247,0.00700406450778246,-0.025));
#610=MECHANICAL_DESIGN_GEOMETRIC_PRESENTATION_REPRESENTATION('',(#343),
#611);
#611=(
GEOMETRIC_REPRESENTATION_CONTEXT(3)
GLOBAL_UNCERTAINTY_ASSIGNED_CONTEXT((#612))
GLOBAL_UNIT_ASSIGNED_CONTEXT((#615,#614,#613))
REPRESENTATION_CONTEXT('Part 1','TOP_LEVEL_ASSEMBLY_PART')
);
#612=UNCERTAINTY_MEASURE_WITH_UNIT(LENGTH_MEASURE(1.E-8),#615,
'DISTANCE_ACCURACY_VALUE','Maximum Tolerance applied to model');
#613=(
NAMED_UNIT(*)
SI_UNIT($,.STERADIAN.)
SOLID_ANGLE_UNIT()
);
#614=(
NAMED_UNIT(*)
PLANE_ANGLE_UNIT()
SI_UNIT($,.RADIAN.)
);
#615=(
LENGTH_UNIT()
NAMED_UNIT(*)
SI_UNIT($,.METRE.)
);
#616=PRODUCT_DEFINITION_SHAPE('','',#617);
#617=PRODUCT_DEFINITION('','',#619,#618);
#618=PRODUCT_DEFINITION_CONTEXT('',#625,'design');
#619=PRODUCT_DEFINITION_FORMATION_WITH_SPECIFIED_SOURCE('','',#621,
 .NOT_KNOWN.);
#620=PRODUCT_RELATED_PRODUCT_CATEGORY('','',(#621));
#621=PRODUCT('Part 1','Part 1','Part 1',(#623));
#622=PRODUCT_CATEGORY('','');
#623=PRODUCT_CONTEXT('',#625,'mechanical');
#624=APPLICATION_PROTOCOL_DEFINITION('international standard',
'ap242_managed_model_based_3d_engineering',2020,#625);
#625=APPLICATION_CONTEXT('managed model based 3d engineering');
ENDSEC;
END-ISO-10303-21;
