ISO-10303-21;
HEADER;
/* Generated by software containing ST-Developer
 * from STEP Tools, Inc. (www.steptools.com) 
 */
/* OPTION: using custom renumber hook */

FILE_DESCRIPTION(
/* description */ ('STEP AP242 Edition 2',
'CAx-IF Rec.Pracs.---Representation and Presentation of Product Manufa
cturing Information (PMI)---4.0---2014-10-13',
'CAx-IF Rec.Pracs.---3D Tessellated Geometry---0.4---2014-09-14','2;1',
'CAx-IF Rec.Pracs.---User Defined Attributes---1.5---2016-08-15'),
/* implementation_level */ '2;1');

FILE_NAME(
/* name */ 'Part Studio 5',
/* time_stamp */ '2026-05-30T05:14:49Z',
/* author */ (''),
/* organization */ (''),
/* preprocessor_version */ 'ST-DEVELOPER v20',
/* originating_system */ 'ONSHAPE BY PTC INC, 1.215',
/* authorisation */ '  ');

FILE_SCHEMA (('AP242_MANAGED_MODEL_BASED_3D_ENGINEERING_MIM_LF { 1 0 10303 442 3 1 4 }'));
ENDSEC;

DATA;
#10=SHAPE_REPRESENTATION_RELATIONSHIP('','',#943,#12);
#11=SHAPE_REPRESENTATION_RELATIONSHIP('','',#944,#13);
#12=ADVANCED_BREP_SHAPE_REPRESENTATION('',(#939),#1602);
#13=ADVANCED_BREP_SHAPE_REPRESENTATION('',(#940),#1603);
#14=CONICAL_SURFACE('',#978,0.0008,0.785398163397449);
#15=CONICAL_SURFACE('',#979,0.0008,0.785398163397449);
#16=CONICAL_SURFACE('',#982,0.0008,0.785398163397449);
#17=CONICAL_SURFACE('',#983,0.0008,0.785398163397449);
#18=CONICAL_SURFACE('',#1037,0.0008,0.785398163397449);
#19=CONICAL_SURFACE('',#1038,0.0008,0.785398163397449);
#20=CONICAL_SURFACE('',#1041,0.0008,0.785398163397449);
#21=CONICAL_SURFACE('',#1042,0.0008,0.785398163397449);
#22=B_SPLINE_CURVE_WITH_KNOTS('',3,(#1380,#1381,#1382,#1383,#1384,#1385,
#1386),.UNSPECIFIED.,.F.,.F.,(4,1,1,1,4),(0.,0.00119365531270361,0.00238731062540721,
0.00358096593811082,0.00477462125081443),.UNSPECIFIED.);
#23=B_SPLINE_CURVE_WITH_KNOTS('',3,(#1390,#1391,#1392,#1393,#1394,#1395,
#1396),.UNSPECIFIED.,.F.,.F.,(4,1,1,1,4),(0.,0.00119365531270361,0.00238731062540721,
0.00358096593811082,0.00477462125081443),.UNSPECIFIED.);
#24=CYLINDRICAL_SURFACE('',#956,0.0029);
#25=CYLINDRICAL_SURFACE('',#967,0.0015);
#26=CYLINDRICAL_SURFACE('',#968,0.0015);
#27=CYLINDRICAL_SURFACE('',#969,0.0012);
#28=CYLINDRICAL_SURFACE('',#971,0.0012);
#29=CYLINDRICAL_SURFACE('',#973,0.0012);
#30=CYLINDRICAL_SURFACE('',#975,0.0012);
#31=CYLINDRICAL_SURFACE('',#1004,0.0015);
#32=CYLINDRICAL_SURFACE('',#1005,0.0015);
#33=CYLINDRICAL_SURFACE('',#1016,0.00125);
#34=CYLINDRICAL_SURFACE('',#1018,0.00125);
#35=CYLINDRICAL_SURFACE('',#1020,0.00125);
#36=CYLINDRICAL_SURFACE('',#1025,0.00125);
#37=CYLINDRICAL_SURFACE('',#1028,0.0012);
#38=CYLINDRICAL_SURFACE('',#1030,0.0012);
#39=CYLINDRICAL_SURFACE('',#1032,0.0012);
#40=CYLINDRICAL_SURFACE('',#1034,0.0012);
#41=CIRCLE('',#947,0.0012);
#42=CIRCLE('',#948,0.0012);
#43=CIRCLE('',#949,0.0029);
#44=CIRCLE('',#951,0.0015);
#45=CIRCLE('',#954,0.0015);
#46=CIRCLE('',#957,0.0029);
#47=CIRCLE('',#958,0.0029);
#48=CIRCLE('',#960,0.0008);
#49=CIRCLE('',#961,0.0008);
#50=CIRCLE('',#962,0.0008);
#51=CIRCLE('',#963,0.0008);
#52=CIRCLE('',#965,0.0012);
#53=CIRCLE('',#966,0.0012);
#54=CIRCLE('',#970,0.0012);
#55=CIRCLE('',#972,0.0012);
#56=CIRCLE('',#974,0.0012);
#57=CIRCLE('',#976,0.0012);
#58=CIRCLE('',#987,0.0015);
#59=CIRCLE('',#989,0.0012);
#60=CIRCLE('',#990,0.0012);
#61=CIRCLE('',#992,0.0015);
#62=CIRCLE('',#996,0.0015);
#63=CIRCLE('',#999,0.0015);
#64=CIRCLE('',#1002,0.0012);
#65=CIRCLE('',#1003,0.0012);
#66=CIRCLE('',#1007,0.0008);
#67=CIRCLE('',#1008,0.0008);
#68=CIRCLE('',#1009,0.0008);
#69=CIRCLE('',#1010,0.0008);
#70=CIRCLE('',#1012,0.00125);
#71=CIRCLE('',#1013,0.00125);
#72=CIRCLE('',#1014,0.00125);
#73=CIRCLE('',#1015,0.00125);
#74=CIRCLE('',#1017,0.00125);
#75=CIRCLE('',#1019,0.00125);
#76=CIRCLE('',#1021,0.00125);
#77=CIRCLE('',#1026,0.00125);
#78=CIRCLE('',#1029,0.0012);
#79=CIRCLE('',#1031,0.0012);
#80=CIRCLE('',#1033,0.0012);
#81=CIRCLE('',#1035,0.0012);
#82=ORIENTED_EDGE('',*,*,#332,.F.);
#83=ORIENTED_EDGE('',*,*,#333,.T.);
#84=ORIENTED_EDGE('',*,*,#334,.T.);
#85=ORIENTED_EDGE('',*,*,#335,.T.);
#86=ORIENTED_EDGE('',*,*,#336,.T.);
#87=ORIENTED_EDGE('',*,*,#337,.F.);
#88=ORIENTED_EDGE('',*,*,#338,.F.);
#89=ORIENTED_EDGE('',*,*,#339,.F.);
#90=ORIENTED_EDGE('',*,*,#340,.T.);
#91=ORIENTED_EDGE('',*,*,#341,.T.);
#92=ORIENTED_EDGE('',*,*,#342,.T.);
#93=ORIENTED_EDGE('',*,*,#332,.T.);
#94=ORIENTED_EDGE('',*,*,#343,.T.);
#95=ORIENTED_EDGE('',*,*,#344,.T.);
#96=ORIENTED_EDGE('',*,*,#345,.T.);
#97=ORIENTED_EDGE('',*,*,#346,.T.);
#98=ORIENTED_EDGE('',*,*,#347,.T.);
#99=ORIENTED_EDGE('',*,*,#334,.F.);
#100=ORIENTED_EDGE('',*,*,#348,.T.);
#101=ORIENTED_EDGE('',*,*,#349,.T.);
#102=ORIENTED_EDGE('',*,*,#350,.T.);
#103=ORIENTED_EDGE('',*,*,#351,.F.);
#104=ORIENTED_EDGE('',*,*,#352,.F.);
#105=ORIENTED_EDGE('',*,*,#336,.F.);
#106=ORIENTED_EDGE('',*,*,#353,.T.);
#107=ORIENTED_EDGE('',*,*,#354,.T.);
#108=ORIENTED_EDGE('',*,*,#355,.T.);
#109=ORIENTED_EDGE('',*,*,#356,.T.);
#110=ORIENTED_EDGE('',*,*,#357,.F.);
#111=ORIENTED_EDGE('',*,*,#338,.T.);
#112=ORIENTED_EDGE('',*,*,#358,.T.);
#113=ORIENTED_EDGE('',*,*,#359,.T.);
#114=ORIENTED_EDGE('',*,*,#360,.T.);
#115=ORIENTED_EDGE('',*,*,#361,.T.);
#116=ORIENTED_EDGE('',*,*,#362,.T.);
#117=ORIENTED_EDGE('',*,*,#363,.T.);
#118=ORIENTED_EDGE('',*,*,#364,.T.);
#119=ORIENTED_EDGE('',*,*,#365,.T.);
#120=ORIENTED_EDGE('',*,*,#366,.T.);
#121=ORIENTED_EDGE('',*,*,#367,.T.);
#122=ORIENTED_EDGE('',*,*,#368,.T.);
#123=ORIENTED_EDGE('',*,*,#357,.T.);
#124=ORIENTED_EDGE('',*,*,#351,.T.);
#125=ORIENTED_EDGE('',*,*,#369,.T.);
#126=ORIENTED_EDGE('',*,*,#356,.F.);
#127=ORIENTED_EDGE('',*,*,#370,.T.);
#128=ORIENTED_EDGE('',*,*,#344,.F.);
#129=ORIENTED_EDGE('',*,*,#371,.F.);
#130=ORIENTED_EDGE('',*,*,#359,.F.);
#131=ORIENTED_EDGE('',*,*,#372,.F.);
#132=ORIENTED_EDGE('',*,*,#339,.T.);
#133=ORIENTED_EDGE('',*,*,#360,.F.);
#134=ORIENTED_EDGE('',*,*,#371,.T.);
#135=ORIENTED_EDGE('',*,*,#343,.F.);
#136=ORIENTED_EDGE('',*,*,#337,.T.);
#137=ORIENTED_EDGE('',*,*,#352,.T.);
#138=ORIENTED_EDGE('',*,*,#372,.T.);
#139=ORIENTED_EDGE('',*,*,#358,.F.);
#140=ORIENTED_EDGE('',*,*,#342,.F.);
#141=ORIENTED_EDGE('',*,*,#373,.T.);
#142=ORIENTED_EDGE('',*,*,#345,.F.);
#143=ORIENTED_EDGE('',*,*,#333,.F.);
#144=ORIENTED_EDGE('',*,*,#347,.F.);
#145=ORIENTED_EDGE('',*,*,#374,.T.);
#146=ORIENTED_EDGE('',*,*,#348,.F.);
#147=ORIENTED_EDGE('',*,*,#335,.F.);
#148=ORIENTED_EDGE('',*,*,#350,.F.);
#149=ORIENTED_EDGE('',*,*,#375,.T.);
#150=ORIENTED_EDGE('',*,*,#353,.F.);
#151=ORIENTED_EDGE('',*,*,#369,.F.);
#152=ORIENTED_EDGE('',*,*,#355,.F.);
#153=ORIENTED_EDGE('',*,*,#376,.T.);
#154=ORIENTED_EDGE('',*,*,#340,.F.);
#155=ORIENTED_EDGE('',*,*,#370,.F.);
#156=ORIENTED_EDGE('',*,*,#377,.F.);
#157=ORIENTED_EDGE('',*,*,#346,.F.);
#158=ORIENTED_EDGE('',*,*,#378,.F.);
#159=ORIENTED_EDGE('',*,*,#366,.F.);
#160=ORIENTED_EDGE('',*,*,#378,.T.);
#161=ORIENTED_EDGE('',*,*,#373,.F.);
#162=ORIENTED_EDGE('',*,*,#379,.F.);
#163=ORIENTED_EDGE('',*,*,#367,.F.);
#164=ORIENTED_EDGE('',*,*,#377,.T.);
#165=ORIENTED_EDGE('',*,*,#365,.F.);
#166=ORIENTED_EDGE('',*,*,#380,.F.);
#167=ORIENTED_EDGE('',*,*,#374,.F.);
#168=ORIENTED_EDGE('',*,*,#379,.T.);
#169=ORIENTED_EDGE('',*,*,#341,.F.);
#170=ORIENTED_EDGE('',*,*,#381,.F.);
#171=ORIENTED_EDGE('',*,*,#368,.F.);
#172=ORIENTED_EDGE('',*,*,#380,.T.);
#173=ORIENTED_EDGE('',*,*,#364,.F.);
#174=ORIENTED_EDGE('',*,*,#382,.F.);
#175=ORIENTED_EDGE('',*,*,#349,.F.);
#176=ORIENTED_EDGE('',*,*,#381,.T.);
#177=ORIENTED_EDGE('',*,*,#376,.F.);
#178=ORIENTED_EDGE('',*,*,#383,.F.);
#179=ORIENTED_EDGE('',*,*,#361,.F.);
#180=ORIENTED_EDGE('',*,*,#382,.T.);
#181=ORIENTED_EDGE('',*,*,#363,.F.);
#182=ORIENTED_EDGE('',*,*,#384,.F.);
#183=ORIENTED_EDGE('',*,*,#375,.F.);
#184=ORIENTED_EDGE('',*,*,#383,.T.);
#185=ORIENTED_EDGE('',*,*,#354,.F.);
#186=ORIENTED_EDGE('',*,*,#384,.T.);
#187=ORIENTED_EDGE('',*,*,#362,.F.);
#188=ORIENTED_EDGE('',*,*,#385,.T.);
#189=ORIENTED_EDGE('',*,*,#386,.T.);
#190=ORIENTED_EDGE('',*,*,#387,.T.);
#191=ORIENTED_EDGE('',*,*,#388,.T.);
#192=ORIENTED_EDGE('',*,*,#389,.F.);
#193=ORIENTED_EDGE('',*,*,#390,.T.);
#194=ORIENTED_EDGE('',*,*,#391,.F.);
#195=ORIENTED_EDGE('',*,*,#392,.T.);
#196=ORIENTED_EDGE('',*,*,#393,.T.);
#197=ORIENTED_EDGE('',*,*,#394,.T.);
#198=ORIENTED_EDGE('',*,*,#395,.F.);
#199=ORIENTED_EDGE('',*,*,#396,.T.);
#200=ORIENTED_EDGE('',*,*,#397,.T.);
#201=ORIENTED_EDGE('',*,*,#398,.T.);
#202=ORIENTED_EDGE('',*,*,#388,.F.);
#203=ORIENTED_EDGE('',*,*,#399,.T.);
#204=ORIENTED_EDGE('',*,*,#400,.T.);
#205=ORIENTED_EDGE('',*,*,#401,.T.);
#206=ORIENTED_EDGE('',*,*,#402,.T.);
#207=ORIENTED_EDGE('',*,*,#403,.F.);
#208=ORIENTED_EDGE('',*,*,#404,.F.);
#209=ORIENTED_EDGE('',*,*,#393,.F.);
#210=ORIENTED_EDGE('',*,*,#405,.T.);
#211=ORIENTED_EDGE('',*,*,#406,.T.);
#212=ORIENTED_EDGE('',*,*,#407,.T.);
#213=ORIENTED_EDGE('',*,*,#391,.T.);
#214=ORIENTED_EDGE('',*,*,#396,.F.);
#215=ORIENTED_EDGE('',*,*,#408,.F.);
#216=ORIENTED_EDGE('',*,*,#409,.T.);
#217=ORIENTED_EDGE('',*,*,#410,.T.);
#218=ORIENTED_EDGE('',*,*,#395,.T.);
#219=ORIENTED_EDGE('',*,*,#411,.T.);
#220=ORIENTED_EDGE('',*,*,#412,.T.);
#221=ORIENTED_EDGE('',*,*,#413,.F.);
#222=ORIENTED_EDGE('',*,*,#414,.F.);
#223=ORIENTED_EDGE('',*,*,#408,.T.);
#224=ORIENTED_EDGE('',*,*,#415,.T.);
#225=ORIENTED_EDGE('',*,*,#416,.F.);
#226=ORIENTED_EDGE('',*,*,#417,.F.);
#227=ORIENTED_EDGE('',*,*,#413,.T.);
#228=ORIENTED_EDGE('',*,*,#418,.F.);
#229=ORIENTED_EDGE('',*,*,#397,.F.);
#230=ORIENTED_EDGE('',*,*,#410,.F.);
#231=ORIENTED_EDGE('',*,*,#419,.T.);
#232=ORIENTED_EDGE('',*,*,#416,.T.);
#233=ORIENTED_EDGE('',*,*,#420,.F.);
#234=ORIENTED_EDGE('',*,*,#421,.T.);
#235=ORIENTED_EDGE('',*,*,#422,.T.);
#236=ORIENTED_EDGE('',*,*,#423,.T.);
#237=ORIENTED_EDGE('',*,*,#424,.F.);
#238=ORIENTED_EDGE('',*,*,#424,.T.);
#239=ORIENTED_EDGE('',*,*,#425,.T.);
#240=ORIENTED_EDGE('',*,*,#390,.F.);
#241=ORIENTED_EDGE('',*,*,#426,.T.);
#242=ORIENTED_EDGE('',*,*,#420,.T.);
#243=ORIENTED_EDGE('',*,*,#415,.F.);
#244=ORIENTED_EDGE('',*,*,#412,.F.);
#245=ORIENTED_EDGE('',*,*,#427,.T.);
#246=ORIENTED_EDGE('',*,*,#403,.T.);
#247=ORIENTED_EDGE('',*,*,#428,.T.);
#248=ORIENTED_EDGE('',*,*,#404,.T.);
#249=ORIENTED_EDGE('',*,*,#427,.F.);
#250=ORIENTED_EDGE('',*,*,#411,.F.);
#251=ORIENTED_EDGE('',*,*,#394,.F.);
#252=ORIENTED_EDGE('',*,*,#418,.T.);
#253=ORIENTED_EDGE('',*,*,#426,.F.);
#254=ORIENTED_EDGE('',*,*,#389,.T.);
#255=ORIENTED_EDGE('',*,*,#398,.F.);
#256=ORIENTED_EDGE('',*,*,#429,.T.);
#257=ORIENTED_EDGE('',*,*,#430,.T.);
#258=ORIENTED_EDGE('',*,*,#431,.T.);
#259=ORIENTED_EDGE('',*,*,#432,.T.);
#260=ORIENTED_EDGE('',*,*,#433,.T.);
#261=ORIENTED_EDGE('',*,*,#434,.T.);
#262=ORIENTED_EDGE('',*,*,#435,.T.);
#263=ORIENTED_EDGE('',*,*,#436,.T.);
#264=ORIENTED_EDGE('',*,*,#437,.T.);
#265=ORIENTED_EDGE('',*,*,#438,.T.);
#266=ORIENTED_EDGE('',*,*,#409,.F.);
#267=ORIENTED_EDGE('',*,*,#414,.T.);
#268=ORIENTED_EDGE('',*,*,#417,.T.);
#269=ORIENTED_EDGE('',*,*,#419,.F.);
#270=ORIENTED_EDGE('',*,*,#439,.F.);
#271=ORIENTED_EDGE('',*,*,#440,.F.);
#272=ORIENTED_EDGE('',*,*,#440,.T.);
#273=ORIENTED_EDGE('',*,*,#441,.F.);
#274=ORIENTED_EDGE('',*,*,#439,.T.);
#275=ORIENTED_EDGE('',*,*,#442,.F.);
#276=ORIENTED_EDGE('',*,*,#438,.F.);
#277=ORIENTED_EDGE('',*,*,#443,.T.);
#278=ORIENTED_EDGE('',*,*,#441,.T.);
#279=ORIENTED_EDGE('',*,*,#442,.T.);
#280=ORIENTED_EDGE('',*,*,#443,.F.);
#281=ORIENTED_EDGE('',*,*,#437,.F.);
#282=ORIENTED_EDGE('',*,*,#444,.T.);
#283=ORIENTED_EDGE('',*,*,#444,.F.);
#284=ORIENTED_EDGE('',*,*,#407,.F.);
#285=ORIENTED_EDGE('',*,*,#445,.T.);
#286=ORIENTED_EDGE('',*,*,#400,.F.);
#287=ORIENTED_EDGE('',*,*,#392,.F.);
#288=ORIENTED_EDGE('',*,*,#387,.F.);
#289=ORIENTED_EDGE('',*,*,#446,.T.);
#290=ORIENTED_EDGE('',*,*,#405,.F.);
#291=ORIENTED_EDGE('',*,*,#399,.F.);
#292=ORIENTED_EDGE('',*,*,#423,.F.);
#293=ORIENTED_EDGE('',*,*,#447,.T.);
#294=ORIENTED_EDGE('',*,*,#385,.F.);
#295=ORIENTED_EDGE('',*,*,#425,.F.);
#296=ORIENTED_EDGE('',*,*,#402,.F.);
#297=ORIENTED_EDGE('',*,*,#448,.T.);
#298=ORIENTED_EDGE('',*,*,#421,.F.);
#299=ORIENTED_EDGE('',*,*,#428,.F.);
#300=ORIENTED_EDGE('',*,*,#449,.F.);
#301=ORIENTED_EDGE('',*,*,#434,.F.);
#302=ORIENTED_EDGE('',*,*,#450,.F.);
#303=ORIENTED_EDGE('',*,*,#406,.F.);
#304=ORIENTED_EDGE('',*,*,#450,.T.);
#305=ORIENTED_EDGE('',*,*,#433,.F.);
#306=ORIENTED_EDGE('',*,*,#451,.F.);
#307=ORIENTED_EDGE('',*,*,#445,.F.);
#308=ORIENTED_EDGE('',*,*,#449,.T.);
#309=ORIENTED_EDGE('',*,*,#446,.F.);
#310=ORIENTED_EDGE('',*,*,#452,.F.);
#311=ORIENTED_EDGE('',*,*,#435,.F.);
#312=ORIENTED_EDGE('',*,*,#451,.T.);
#313=ORIENTED_EDGE('',*,*,#432,.F.);
#314=ORIENTED_EDGE('',*,*,#453,.F.);
#315=ORIENTED_EDGE('',*,*,#401,.F.);
#316=ORIENTED_EDGE('',*,*,#452,.T.);
#317=ORIENTED_EDGE('',*,*,#386,.F.);
#318=ORIENTED_EDGE('',*,*,#454,.F.);
#319=ORIENTED_EDGE('',*,*,#436,.F.);
#320=ORIENTED_EDGE('',*,*,#453,.T.);
#321=ORIENTED_EDGE('',*,*,#431,.F.);
#322=ORIENTED_EDGE('',*,*,#455,.F.);
#323=ORIENTED_EDGE('',*,*,#448,.F.);
#324=ORIENTED_EDGE('',*,*,#454,.T.);
#325=ORIENTED_EDGE('',*,*,#447,.F.);
#326=ORIENTED_EDGE('',*,*,#456,.F.);
#327=ORIENTED_EDGE('',*,*,#429,.F.);
#328=ORIENTED_EDGE('',*,*,#455,.T.);
#329=ORIENTED_EDGE('',*,*,#430,.F.);
#330=ORIENTED_EDGE('',*,*,#456,.T.);
#331=ORIENTED_EDGE('',*,*,#422,.F.);
#332=EDGE_CURVE('',#457,#458,#538,.T.);
#333=EDGE_CURVE('',#457,#459,#41,.T.);
#334=EDGE_CURVE('',#459,#460,#539,.T.);
#335=EDGE_CURVE('',#460,#461,#42,.T.);
#336=EDGE_CURVE('',#461,#462,#540,.T.);
#337=EDGE_CURVE('',#463,#462,#541,.T.);
#338=EDGE_CURVE('',#464,#463,#43,.T.);
#339=EDGE_CURVE('',#458,#464,#542,.T.);
#340=EDGE_CURVE('',#465,#466,#543,.F.);
#341=EDGE_CURVE('',#466,#467,#544,.T.);
#342=EDGE_CURVE('',#467,#457,#545,.T.);
#343=EDGE_CURVE('',#458,#468,#44,.T.);
#344=EDGE_CURVE('',#468,#465,#546,.T.);
#345=EDGE_CURVE('',#459,#469,#547,.F.);
#346=EDGE_CURVE('',#469,#470,#548,.T.);
#347=EDGE_CURVE('',#470,#460,#549,.T.);
#348=EDGE_CURVE('',#461,#471,#550,.F.);
#349=EDGE_CURVE('',#471,#472,#551,.T.);
#350=EDGE_CURVE('',#472,#473,#552,.T.);
#351=EDGE_CURVE('',#474,#473,#553,.T.);
#352=EDGE_CURVE('',#462,#474,#45,.T.);
#353=EDGE_CURVE('',#475,#476,#554,.F.);
#354=EDGE_CURVE('',#476,#477,#555,.T.);
#355=EDGE_CURVE('',#477,#478,#556,.T.);
#356=EDGE_CURVE('',#478,#475,#557,.T.);
#357=EDGE_CURVE('',#479,#479,#46,.T.);
#358=EDGE_CURVE('',#463,#480,#22,.T.);
#359=EDGE_CURVE('',#480,#481,#47,.T.);
#360=EDGE_CURVE('',#481,#464,#23,.T.);
#361=EDGE_CURVE('',#482,#483,#48,.F.);
#362=EDGE_CURVE('',#483,#484,#558,.T.);
#363=EDGE_CURVE('',#484,#485,#49,.F.);
#364=EDGE_CURVE('',#485,#486,#559,.T.);
#365=EDGE_CURVE('',#486,#487,#50,.F.);
#366=EDGE_CURVE('',#487,#488,#560,.T.);
#367=EDGE_CURVE('',#488,#489,#51,.F.);
#368=EDGE_CURVE('',#489,#482,#561,.T.);
#369=EDGE_CURVE('',#473,#475,#52,.T.);
#370=EDGE_CURVE('',#478,#465,#53,.T.);
#371=EDGE_CURVE('',#481,#468,#562,.F.);
#372=EDGE_CURVE('',#474,#480,#563,.F.);
#373=EDGE_CURVE('',#467,#469,#54,.T.);
#374=EDGE_CURVE('',#470,#471,#55,.T.);
#375=EDGE_CURVE('',#472,#476,#56,.T.);
#376=EDGE_CURVE('',#477,#466,#57,.T.);
#377=EDGE_CURVE('',#470,#487,#564,.T.);
#378=EDGE_CURVE('',#488,#469,#565,.T.);
#379=EDGE_CURVE('',#489,#467,#566,.T.);
#380=EDGE_CURVE('',#471,#486,#567,.T.);
#381=EDGE_CURVE('',#482,#466,#568,.T.);
#382=EDGE_CURVE('',#472,#485,#569,.T.);
#383=EDGE_CURVE('',#483,#477,#570,.T.);
#384=EDGE_CURVE('',#476,#484,#571,.T.);
#385=EDGE_CURVE('',#490,#491,#572,.F.);
#386=EDGE_CURVE('',#491,#492,#573,.T.);
#387=EDGE_CURVE('',#492,#493,#574,.T.);
#388=EDGE_CURVE('',#493,#494,#575,.T.);
#389=EDGE_CURVE('',#495,#494,#58,.T.);
#390=EDGE_CURVE('',#495,#490,#576,.T.);
#391=EDGE_CURVE('',#496,#497,#577,.T.);
#392=EDGE_CURVE('',#496,#498,#59,.F.);
#393=EDGE_CURVE('',#498,#499,#578,.T.);
#394=EDGE_CURVE('',#499,#500,#579,.T.);
#395=EDGE_CURVE('',#501,#500,#580,.T.);
#396=EDGE_CURVE('',#501,#502,#581,.T.);
#397=EDGE_CURVE('',#502,#503,#582,.T.);
#398=EDGE_CURVE('',#503,#494,#583,.T.);
#399=EDGE_CURVE('',#493,#497,#60,.F.);
#400=EDGE_CURVE('',#498,#504,#584,.F.);
#401=EDGE_CURVE('',#504,#505,#585,.T.);
#402=EDGE_CURVE('',#505,#506,#586,.T.);
#403=EDGE_CURVE('',#507,#506,#587,.T.);
#404=EDGE_CURVE('',#499,#507,#61,.T.);
#405=EDGE_CURVE('',#497,#508,#588,.F.);
#406=EDGE_CURVE('',#508,#509,#589,.T.);
#407=EDGE_CURVE('',#509,#496,#590,.T.);
#408=EDGE_CURVE('',#510,#501,#591,.T.);
#409=EDGE_CURVE('',#510,#511,#592,.T.);
#410=EDGE_CURVE('',#511,#502,#593,.T.);
#411=EDGE_CURVE('',#500,#512,#62,.T.);
#412=EDGE_CURVE('',#512,#513,#594,.T.);
#413=EDGE_CURVE('',#514,#513,#595,.T.);
#414=EDGE_CURVE('',#510,#514,#596,.T.);
#415=EDGE_CURVE('',#513,#515,#597,.T.);
#416=EDGE_CURVE('',#516,#515,#598,.T.);
#417=EDGE_CURVE('',#514,#516,#599,.T.);
#418=EDGE_CURVE('',#503,#517,#63,.T.);
#419=EDGE_CURVE('',#511,#516,#600,.T.);
#420=EDGE_CURVE('',#517,#515,#601,.T.);
#421=EDGE_CURVE('',#518,#519,#602,.F.);
#422=EDGE_CURVE('',#519,#520,#603,.T.);
#423=EDGE_CURVE('',#520,#521,#604,.T.);
#424=EDGE_CURVE('',#518,#521,#605,.T.);
#425=EDGE_CURVE('',#521,#490,#64,.F.);
#426=EDGE_CURVE('',#495,#517,#606,.F.);
#427=EDGE_CURVE('',#512,#507,#607,.F.);
#428=EDGE_CURVE('',#506,#518,#65,.F.);
#429=EDGE_CURVE('',#522,#523,#66,.T.);
#430=EDGE_CURVE('',#523,#524,#608,.T.);
#431=EDGE_CURVE('',#524,#525,#67,.T.);
#432=EDGE_CURVE('',#525,#526,#609,.T.);
#433=EDGE_CURVE('',#526,#527,#68,.T.);
#434=EDGE_CURVE('',#527,#528,#610,.T.);
#435=EDGE_CURVE('',#528,#529,#69,.T.);
#436=EDGE_CURVE('',#529,#522,#611,.T.);
#437=EDGE_CURVE('',#530,#530,#70,.T.);
#438=EDGE_CURVE('',#531,#531,#71,.T.);
#439=EDGE_CURVE('',#532,#532,#72,.T.);
#440=EDGE_CURVE('',#533,#533,#73,.T.);
#441=EDGE_CURVE('',#534,#534,#74,.T.);
#442=EDGE_CURVE('',#535,#535,#75,.T.);
#443=EDGE_CURVE('',#536,#536,#76,.T.);
#444=EDGE_CURVE('',#537,#537,#77,.T.);
#445=EDGE_CURVE('',#509,#504,#78,.F.);
#446=EDGE_CURVE('',#492,#508,#79,.F.);
#447=EDGE_CURVE('',#520,#491,#80,.F.);
#448=EDGE_CURVE('',#505,#519,#81,.F.);
#449=EDGE_CURVE('',#528,#508,#612,.T.);
#450=EDGE_CURVE('',#509,#527,#613,.T.);
#451=EDGE_CURVE('',#504,#526,#614,.T.);
#452=EDGE_CURVE('',#529,#492,#615,.T.);
#453=EDGE_CURVE('',#505,#525,#616,.T.);
#454=EDGE_CURVE('',#522,#491,#617,.T.);
#455=EDGE_CURVE('',#519,#524,#618,.T.);
#456=EDGE_CURVE('',#523,#520,#619,.T.);
#457=VERTEX_POINT('',#1327);
#458=VERTEX_POINT('',#1328);
#459=VERTEX_POINT('',#1330);
#460=VERTEX_POINT('',#1332);
#461=VERTEX_POINT('',#1334);
#462=VERTEX_POINT('',#1336);
#463=VERTEX_POINT('',#1338);
#464=VERTEX_POINT('',#1340);
#465=VERTEX_POINT('',#1344);
#466=VERTEX_POINT('',#1345);
#467=VERTEX_POINT('',#1347);
#468=VERTEX_POINT('',#1350);
#469=VERTEX_POINT('',#1354);
#470=VERTEX_POINT('',#1356);
#471=VERTEX_POINT('',#1360);
#472=VERTEX_POINT('',#1362);
#473=VERTEX_POINT('',#1364);
#474=VERTEX_POINT('',#1366);
#475=VERTEX_POINT('',#1370);
#476=VERTEX_POINT('',#1371);
#477=VERTEX_POINT('',#1373);
#478=VERTEX_POINT('',#1375);
#479=VERTEX_POINT('',#1379);
#480=VERTEX_POINT('',#1387);
#481=VERTEX_POINT('',#1389);
#482=VERTEX_POINT('',#1399);
#483=VERTEX_POINT('',#1400);
#484=VERTEX_POINT('',#1402);
#485=VERTEX_POINT('',#1404);
#486=VERTEX_POINT('',#1406);
#487=VERTEX_POINT('',#1408);
#488=VERTEX_POINT('',#1410);
#489=VERTEX_POINT('',#1412);
#490=VERTEX_POINT('',#1448);
#491=VERTEX_POINT('',#1449);
#492=VERTEX_POINT('',#1451);
#493=VERTEX_POINT('',#1453);
#494=VERTEX_POINT('',#1455);
#495=VERTEX_POINT('',#1457);
#496=VERTEX_POINT('',#1461);
#497=VERTEX_POINT('',#1462);
#498=VERTEX_POINT('',#1464);
#499=VERTEX_POINT('',#1466);
#500=VERTEX_POINT('',#1468);
#501=VERTEX_POINT('',#1470);
#502=VERTEX_POINT('',#1472);
#503=VERTEX_POINT('',#1474);
#504=VERTEX_POINT('',#1479);
#505=VERTEX_POINT('',#1481);
#506=VERTEX_POINT('',#1483);
#507=VERTEX_POINT('',#1485);
#508=VERTEX_POINT('',#1489);
#509=VERTEX_POINT('',#1491);
#510=VERTEX_POINT('',#1495);
#511=VERTEX_POINT('',#1497);
#512=VERTEX_POINT('',#1501);
#513=VERTEX_POINT('',#1503);
#514=VERTEX_POINT('',#1505);
#515=VERTEX_POINT('',#1509);
#516=VERTEX_POINT('',#1511);
#517=VERTEX_POINT('',#1515);
#518=VERTEX_POINT('',#1520);
#519=VERTEX_POINT('',#1521);
#520=VERTEX_POINT('',#1523);
#521=VERTEX_POINT('',#1525);
#522=VERTEX_POINT('',#1536);
#523=VERTEX_POINT('',#1537);
#524=VERTEX_POINT('',#1539);
#525=VERTEX_POINT('',#1541);
#526=VERTEX_POINT('',#1543);
#527=VERTEX_POINT('',#1545);
#528=VERTEX_POINT('',#1547);
#529=VERTEX_POINT('',#1549);
#530=VERTEX_POINT('',#1553);
#531=VERTEX_POINT('',#1555);
#532=VERTEX_POINT('',#1557);
#533=VERTEX_POINT('',#1559);
#534=VERTEX_POINT('',#1562);
#535=VERTEX_POINT('',#1565);
#536=VERTEX_POINT('',#1568);
#537=VERTEX_POINT('',#1574);
#538=LINE('',#1326,#620);
#539=LINE('',#1331,#621);
#540=LINE('',#1335,#622);
#541=LINE('',#1337,#623);
#542=LINE('',#1341,#624);
#543=LINE('',#1343,#625);
#544=LINE('',#1346,#626);
#545=LINE('',#1348,#627);
#546=LINE('',#1351,#628);
#547=LINE('',#1353,#629);
#548=LINE('',#1355,#630);
#549=LINE('',#1357,#631);
#550=LINE('',#1359,#632);
#551=LINE('',#1361,#633);
#552=LINE('',#1363,#634);
#553=LINE('',#1365,#635);
#554=LINE('',#1369,#636);
#555=LINE('',#1372,#637);
#556=LINE('',#1374,#638);
#557=LINE('',#1376,#639);
#558=LINE('',#1401,#640);
#559=LINE('',#1405,#641);
#560=LINE('',#1409,#642);
#561=LINE('',#1413,#643);
#562=LINE('',#1417,#644);
#563=LINE('',#1418,#645);
#564=LINE('',#1430,#646);
#565=LINE('',#1431,#647);
#566=LINE('',#1433,#648);
#567=LINE('',#1435,#649);
#568=LINE('',#1437,#650);
#569=LINE('',#1439,#651);
#570=LINE('',#1441,#652);
#571=LINE('',#1443,#653);
#572=LINE('',#1447,#654);
#573=LINE('',#1450,#655);
#574=LINE('',#1452,#656);
#575=LINE('',#1454,#657);
#576=LINE('',#1458,#658);
#577=LINE('',#1460,#659);
#578=LINE('',#1465,#660);
#579=LINE('',#1467,#661);
#580=LINE('',#1469,#662);
#581=LINE('',#1471,#663);
#582=LINE('',#1473,#664);
#583=LINE('',#1475,#665);
#584=LINE('',#1478,#666);
#585=LINE('',#1480,#667);
#586=LINE('',#1482,#668);
#587=LINE('',#1484,#669);
#588=LINE('',#1488,#670);
#589=LINE('',#1490,#671);
#590=LINE('',#1492,#672);
#591=LINE('',#1494,#673);
#592=LINE('',#1496,#674);
#593=LINE('',#1498,#675);
#594=LINE('',#1502,#676);
#595=LINE('',#1504,#677);
#596=LINE('',#1506,#678);
#597=LINE('',#1508,#679);
#598=LINE('',#1510,#680);
#599=LINE('',#1512,#681);
#600=LINE('',#1516,#682);
#601=LINE('',#1517,#683);
#602=LINE('',#1519,#684);
#603=LINE('',#1522,#685);
#604=LINE('',#1524,#686);
#605=LINE('',#1526,#687);
#606=LINE('',#1529,#688);
#607=LINE('',#1530,#689);
#608=LINE('',#1538,#690);
#609=LINE('',#1542,#691);
#610=LINE('',#1546,#692);
#611=LINE('',#1550,#693);
#612=LINE('',#1585,#694);
#613=LINE('',#1586,#695);
#614=LINE('',#1588,#696);
#615=LINE('',#1590,#697);
#616=LINE('',#1592,#698);
#617=LINE('',#1594,#699);
#618=LINE('',#1596,#700);
#619=LINE('',#1598,#701);
#620=VECTOR('',#1048,1.);
#621=VECTOR('',#1051,1.);
#622=VECTOR('',#1054,1.);
#623=VECTOR('',#1055,1.);
#624=VECTOR('',#1058,1.);
#625=VECTOR('',#1061,1.);
#626=VECTOR('',#1062,1.);
#627=VECTOR('',#1063,1.);
#628=VECTOR('',#1066,1.);
#629=VECTOR('',#1069,1.);
#630=VECTOR('',#1070,1.);
#631=VECTOR('',#1071,1.);
#632=VECTOR('',#1074,1.);
#633=VECTOR('',#1075,1.);
#634=VECTOR('',#1076,1.);
#635=VECTOR('',#1077,1.);
#636=VECTOR('',#1082,1.);
#637=VECTOR('',#1083,1.);
#638=VECTOR('',#1084,1.);
#639=VECTOR('',#1085,1.);
#640=VECTOR('',#1096,1.);
#641=VECTOR('',#1099,1.);
#642=VECTOR('',#1102,1.);
#643=VECTOR('',#1105,1.);
#644=VECTOR('',#1112,1.);
#645=VECTOR('',#1113,1.);
#646=VECTOR('',#1136,1.);
#647=VECTOR('',#1137,1.);
#648=VECTOR('',#1140,1.);
#649=VECTOR('',#1143,1.);
#650=VECTOR('',#1146,1.);
#651=VECTOR('',#1149,1.);
#652=VECTOR('',#1152,1.);
#653=VECTOR('',#1155,1.);
#654=VECTOR('',#1162,1.);
#655=VECTOR('',#1163,1.);
#656=VECTOR('',#1164,1.);
#657=VECTOR('',#1165,1.);
#658=VECTOR('',#1168,1.);
#659=VECTOR('',#1171,1.);
#660=VECTOR('',#1174,1.);
#661=VECTOR('',#1175,1.);
#662=VECTOR('',#1176,1.);
#663=VECTOR('',#1177,1.);
#664=VECTOR('',#1178,1.);
#665=VECTOR('',#1179,1.);
#666=VECTOR('',#1184,1.);
#667=VECTOR('',#1185,1.);
#668=VECTOR('',#1186,1.);
#669=VECTOR('',#1187,1.);
#670=VECTOR('',#1192,1.);
#671=VECTOR('',#1193,1.);
#672=VECTOR('',#1194,1.);
#673=VECTOR('',#1197,1.);
#674=VECTOR('',#1198,1.);
#675=VECTOR('',#1199,1.);
#676=VECTOR('',#1204,1.);
#677=VECTOR('',#1205,1.);
#678=VECTOR('',#1206,1.);
#679=VECTOR('',#1209,1.);
#680=VECTOR('',#1210,1.);
#681=VECTOR('',#1211,1.);
#682=VECTOR('',#1216,1.);
#683=VECTOR('',#1217,1.);
#684=VECTOR('',#1220,1.);
#685=VECTOR('',#1221,1.);
#686=VECTOR('',#1222,1.);
#687=VECTOR('',#1223,1.);
#688=VECTOR('',#1228,1.);
#689=VECTOR('',#1229,1.);
#690=VECTOR('',#1240,1.);
#691=VECTOR('',#1243,1.);
#692=VECTOR('',#1246,1.);
#693=VECTOR('',#1249,1.);
#694=VECTOR('',#1302,1.);
#695=VECTOR('',#1303,1.);
#696=VECTOR('',#1306,1.);
#697=VECTOR('',#1309,1.);
#698=VECTOR('',#1312,1.);
#699=VECTOR('',#1315,1.);
#700=VECTOR('',#1318,1.);
#701=VECTOR('',#1321,1.);
#702=EDGE_LOOP('',(#82,#83,#84,#85,#86,#87,#88,#89));
#703=EDGE_LOOP('',(#90,#91,#92,#93,#94,#95));
#704=EDGE_LOOP('',(#96,#97,#98,#99));
#705=EDGE_LOOP('',(#100,#101,#102,#103,#104,#105));
#706=EDGE_LOOP('',(#106,#107,#108,#109));
#707=EDGE_LOOP('',(#110));
#708=EDGE_LOOP('',(#111,#112,#113,#114));
#709=EDGE_LOOP('',(#115,#116,#117,#118,#119,#120,#121,#122));
#710=EDGE_LOOP('',(#123));
#711=EDGE_LOOP('',(#124,#125,#126,#127,#128,#129,#130,#131));
#712=EDGE_LOOP('',(#132,#133,#134,#135));
#713=EDGE_LOOP('',(#136,#137,#138,#139));
#714=EDGE_LOOP('',(#140,#141,#142,#143));
#715=EDGE_LOOP('',(#144,#145,#146,#147));
#716=EDGE_LOOP('',(#148,#149,#150,#151));
#717=EDGE_LOOP('',(#152,#153,#154,#155));
#718=EDGE_LOOP('',(#156,#157,#158,#159));
#719=EDGE_LOOP('',(#160,#161,#162,#163));
#720=EDGE_LOOP('',(#164,#165,#166,#167));
#721=EDGE_LOOP('',(#168,#169,#170,#171));
#722=EDGE_LOOP('',(#172,#173,#174,#175));
#723=EDGE_LOOP('',(#176,#177,#178,#179));
#724=EDGE_LOOP('',(#180,#181,#182,#183));
#725=EDGE_LOOP('',(#184,#185,#186,#187));
#726=EDGE_LOOP('',(#188,#189,#190,#191,#192,#193));
#727=EDGE_LOOP('',(#194,#195,#196,#197,#198,#199,#200,#201,#202,#203));
#728=EDGE_LOOP('',(#204,#205,#206,#207,#208,#209));
#729=EDGE_LOOP('',(#210,#211,#212,#213));
#730=EDGE_LOOP('',(#214,#215,#216,#217));
#731=EDGE_LOOP('',(#218,#219,#220,#221,#222,#223));
#732=EDGE_LOOP('',(#224,#225,#226,#227));
#733=EDGE_LOOP('',(#228,#229,#230,#231,#232,#233));
#734=EDGE_LOOP('',(#234,#235,#236,#237));
#735=EDGE_LOOP('',(#238,#239,#240,#241,#242,#243,#244,#245,#246,#247));
#736=EDGE_LOOP('',(#248,#249,#250,#251));
#737=EDGE_LOOP('',(#252,#253,#254,#255));
#738=EDGE_LOOP('',(#256,#257,#258,#259,#260,#261,#262,#263));
#739=EDGE_LOOP('',(#264));
#740=EDGE_LOOP('',(#265));
#741=EDGE_LOOP('',(#266,#267,#268,#269));
#742=EDGE_LOOP('',(#270));
#743=EDGE_LOOP('',(#271));
#744=EDGE_LOOP('',(#272));
#745=EDGE_LOOP('',(#273));
#746=EDGE_LOOP('',(#274));
#747=EDGE_LOOP('',(#275));
#748=EDGE_LOOP('',(#276));
#749=EDGE_LOOP('',(#277));
#750=EDGE_LOOP('',(#278));
#751=EDGE_LOOP('',(#279));
#752=EDGE_LOOP('',(#280));
#753=EDGE_LOOP('',(#281));
#754=EDGE_LOOP('',(#282));
#755=EDGE_LOOP('',(#283));
#756=EDGE_LOOP('',(#284,#285,#286,#287));
#757=EDGE_LOOP('',(#288,#289,#290,#291));
#758=EDGE_LOOP('',(#292,#293,#294,#295));
#759=EDGE_LOOP('',(#296,#297,#298,#299));
#760=EDGE_LOOP('',(#300,#301,#302,#303));
#761=EDGE_LOOP('',(#304,#305,#306,#307));
#762=EDGE_LOOP('',(#308,#309,#310,#311));
#763=EDGE_LOOP('',(#312,#313,#314,#315));
#764=EDGE_LOOP('',(#316,#317,#318,#319));
#765=EDGE_LOOP('',(#320,#321,#322,#323));
#766=EDGE_LOOP('',(#324,#325,#326,#327));
#767=EDGE_LOOP('',(#328,#329,#330,#331));
#768=FACE_BOUND('',#702,.T.);
#769=FACE_BOUND('',#703,.T.);
#770=FACE_BOUND('',#704,.T.);
#771=FACE_BOUND('',#705,.T.);
#772=FACE_BOUND('',#706,.T.);
#773=FACE_BOUND('',#707,.T.);
#774=FACE_BOUND('',#708,.T.);
#775=FACE_BOUND('',#709,.T.);
#776=FACE_BOUND('',#710,.T.);
#777=FACE_BOUND('',#711,.T.);
#778=FACE_BOUND('',#712,.T.);
#779=FACE_BOUND('',#713,.T.);
#780=FACE_BOUND('',#714,.T.);
#781=FACE_BOUND('',#715,.T.);
#782=FACE_BOUND('',#716,.T.);
#783=FACE_BOUND('',#717,.T.);
#784=FACE_BOUND('',#718,.T.);
#785=FACE_BOUND('',#719,.T.);
#786=FACE_BOUND('',#720,.T.);
#787=FACE_BOUND('',#721,.T.);
#788=FACE_BOUND('',#722,.T.);
#789=FACE_BOUND('',#723,.T.);
#790=FACE_BOUND('',#724,.T.);
#791=FACE_BOUND('',#725,.T.);
#792=FACE_BOUND('',#726,.T.);
#793=FACE_BOUND('',#727,.T.);
#794=FACE_BOUND('',#728,.T.);
#795=FACE_BOUND('',#729,.T.);
#796=FACE_BOUND('',#730,.T.);
#797=FACE_BOUND('',#731,.T.);
#798=FACE_BOUND('',#732,.T.);
#799=FACE_BOUND('',#733,.T.);
#800=FACE_BOUND('',#734,.T.);
#801=FACE_BOUND('',#735,.T.);
#802=FACE_BOUND('',#736,.T.);
#803=FACE_BOUND('',#737,.T.);
#804=FACE_BOUND('',#738,.T.);
#805=FACE_BOUND('',#739,.T.);
#806=FACE_BOUND('',#740,.T.);
#807=FACE_BOUND('',#741,.T.);
#808=FACE_BOUND('',#742,.T.);
#809=FACE_BOUND('',#743,.T.);
#810=FACE_BOUND('',#744,.T.);
#811=FACE_BOUND('',#745,.T.);
#812=FACE_BOUND('',#746,.T.);
#813=FACE_BOUND('',#747,.T.);
#814=FACE_BOUND('',#748,.T.);
#815=FACE_BOUND('',#749,.T.);
#816=FACE_BOUND('',#750,.T.);
#817=FACE_BOUND('',#751,.T.);
#818=FACE_BOUND('',#752,.T.);
#819=FACE_BOUND('',#753,.T.);
#820=FACE_BOUND('',#754,.T.);
#821=FACE_BOUND('',#755,.T.);
#822=FACE_BOUND('',#756,.T.);
#823=FACE_BOUND('',#757,.T.);
#824=FACE_BOUND('',#758,.T.);
#825=FACE_BOUND('',#759,.T.);
#826=FACE_BOUND('',#760,.T.);
#827=FACE_BOUND('',#761,.T.);
#828=FACE_BOUND('',#762,.T.);
#829=FACE_BOUND('',#763,.T.);
#830=FACE_BOUND('',#764,.T.);
#831=FACE_BOUND('',#765,.T.);
#832=FACE_BOUND('',#766,.T.);
#833=FACE_BOUND('',#767,.T.);
#834=PLANE('',#946);
#835=PLANE('',#950);
#836=PLANE('',#952);
#837=PLANE('',#953);
#838=PLANE('',#955);
#839=PLANE('',#959);
#840=PLANE('',#964);
#841=PLANE('',#977);
#842=PLANE('',#980);
#843=PLANE('',#981);
#844=PLANE('',#984);
#845=PLANE('',#986);
#846=PLANE('',#988);
#847=PLANE('',#991);
#848=PLANE('',#993);
#849=PLANE('',#994);
#850=PLANE('',#995);
#851=PLANE('',#997);
#852=PLANE('',#998);
#853=PLANE('',#1000);
#854=PLANE('',#1001);
#855=PLANE('',#1006);
#856=PLANE('',#1011);
#857=PLANE('',#1022);
#858=PLANE('',#1023);
#859=PLANE('',#1024);
#860=PLANE('',#1027);
#861=PLANE('',#1036);
#862=PLANE('',#1039);
#863=PLANE('',#1040);
#864=PLANE('',#1043);
#865=ADVANCED_FACE('',(#768),#834,.T.);
#866=ADVANCED_FACE('',(#769),#835,.F.);
#867=ADVANCED_FACE('',(#770),#836,.T.);
#868=ADVANCED_FACE('',(#771),#837,.T.);
#869=ADVANCED_FACE('',(#772),#838,.F.);
#870=ADVANCED_FACE('',(#773,#774),#24,.F.);
#871=ADVANCED_FACE('',(#775,#776),#839,.F.);
#872=ADVANCED_FACE('',(#777),#840,.T.);
#873=ADVANCED_FACE('',(#778),#25,.F.);
#874=ADVANCED_FACE('',(#779),#26,.F.);
#875=ADVANCED_FACE('',(#780),#27,.T.);
#876=ADVANCED_FACE('',(#781),#28,.T.);
#877=ADVANCED_FACE('',(#782),#29,.T.);
#878=ADVANCED_FACE('',(#783),#30,.T.);
#879=ADVANCED_FACE('',(#784),#841,.T.);
#880=ADVANCED_FACE('',(#785),#14,.T.);
#881=ADVANCED_FACE('',(#786),#15,.T.);
#882=ADVANCED_FACE('',(#787),#842,.F.);
#883=ADVANCED_FACE('',(#788),#843,.T.);
#884=ADVANCED_FACE('',(#789),#16,.T.);
#885=ADVANCED_FACE('',(#790),#17,.T.);
#886=ADVANCED_FACE('',(#791),#844,.F.);
#887=ADVANCED_FACE('',(#792),#845,.F.);
#888=ADVANCED_FACE('',(#793),#846,.F.);
#889=ADVANCED_FACE('',(#794),#847,.T.);
#890=ADVANCED_FACE('',(#795),#848,.F.);
#891=ADVANCED_FACE('',(#796),#849,.T.);
#892=ADVANCED_FACE('',(#797),#850,.F.);
#893=ADVANCED_FACE('',(#798),#851,.F.);
#894=ADVANCED_FACE('',(#799),#852,.T.);
#895=ADVANCED_FACE('',(#800),#853,.T.);
#896=ADVANCED_FACE('',(#801),#854,.F.);
#897=ADVANCED_FACE('',(#802),#31,.F.);
#898=ADVANCED_FACE('',(#803),#32,.F.);
#899=ADVANCED_FACE('',(#804),#855,.T.);
#900=ADVANCED_FACE('',(#805,#806,#807,#808,#809),#856,.F.);
#901=ADVANCED_FACE('',(#810,#811),#33,.F.);
#902=ADVANCED_FACE('',(#812,#813),#34,.F.);
#903=ADVANCED_FACE('',(#814,#815),#35,.F.);
#904=ADVANCED_FACE('',(#816),#857,.T.);
#905=ADVANCED_FACE('',(#817),#858,.T.);
#906=ADVANCED_FACE('',(#818),#859,.T.);
#907=ADVANCED_FACE('',(#819,#820),#36,.F.);
#908=ADVANCED_FACE('',(#821),#860,.T.);
#909=ADVANCED_FACE('',(#822),#37,.T.);
#910=ADVANCED_FACE('',(#823),#38,.T.);
#911=ADVANCED_FACE('',(#824),#39,.T.);
#912=ADVANCED_FACE('',(#825),#40,.T.);
#913=ADVANCED_FACE('',(#826),#861,.T.);
#914=ADVANCED_FACE('',(#827),#18,.T.);
#915=ADVANCED_FACE('',(#828),#19,.T.);
#916=ADVANCED_FACE('',(#829),#862,.F.);
#917=ADVANCED_FACE('',(#830),#863,.T.);
#918=ADVANCED_FACE('',(#831),#20,.T.);
#919=ADVANCED_FACE('',(#832),#21,.T.);
#920=ADVANCED_FACE('',(#833),#864,.F.);
#921=CLOSED_SHELL('',(#865,#866,#867,#868,#869,#870,#871,#872,#873,#874,
#875,#876,#877,#878,#879,#880,#881,#882,#883,#884,#885,#886));
#922=CLOSED_SHELL('',(#887,#888,#889,#890,#891,#892,#893,#894,#895,#896,
#897,#898,#899,#900,#901,#902,#903,#904,#905,#906,#907,#908,#909,#910,#911,
#912,#913,#914,#915,#916,#917,#918,#919,#920));
#923=STYLED_ITEM('',(#925),#939);
#924=STYLED_ITEM('',(#926),#940);
#925=PRESENTATION_STYLE_ASSIGNMENT((#927));
#926=PRESENTATION_STYLE_ASSIGNMENT((#928));
#927=SURFACE_STYLE_USAGE(.BOTH.,#929);
#928=SURFACE_STYLE_USAGE(.BOTH.,#930);
#929=SURFACE_SIDE_STYLE('',(#931));
#930=SURFACE_SIDE_STYLE('',(#932));
#931=SURFACE_STYLE_FILL_AREA(#933);
#932=SURFACE_STYLE_FILL_AREA(#934);
#933=FILL_AREA_STYLE('',(#935));
#934=FILL_AREA_STYLE('',(#936));
#935=FILL_AREA_STYLE_COLOUR('',#937);
#936=FILL_AREA_STYLE_COLOUR('',#938);
#937=COLOUR_RGB('',0.647058823529412,0.647058823529412,0.647058823529412);
#938=COLOUR_RGB('',0.615686274509804,0.811764705882353,0.929411764705882);
#939=MANIFOLD_SOLID_BREP('Part 2',#921);
#940=MANIFOLD_SOLID_BREP('Part 1',#922);
#941=SHAPE_DEFINITION_REPRESENTATION(#1612,#943);
#942=SHAPE_DEFINITION_REPRESENTATION(#1613,#944);
#943=SHAPE_REPRESENTATION('Part 2',(#945),#1602);
#944=SHAPE_REPRESENTATION('Part 1',(#985),#1603);
#945=AXIS2_PLACEMENT_3D('',#1324,#1044,#1045);
#946=AXIS2_PLACEMENT_3D('',#1325,#1046,#1047);
#947=AXIS2_PLACEMENT_3D('',#1329,#1049,#1050);
#948=AXIS2_PLACEMENT_3D('',#1333,#1052,#1053);
#949=AXIS2_PLACEMENT_3D('',#1339,#1056,#1057);
#950=AXIS2_PLACEMENT_3D('',#1342,#1059,#1060);
#951=AXIS2_PLACEMENT_3D('',#1349,#1064,#1065);
#952=AXIS2_PLACEMENT_3D('',#1352,#1067,#1068);
#953=AXIS2_PLACEMENT_3D('',#1358,#1072,#1073);
#954=AXIS2_PLACEMENT_3D('',#1367,#1078,#1079);
#955=AXIS2_PLACEMENT_3D('',#1368,#1080,#1081);
#956=AXIS2_PLACEMENT_3D('',#1377,#1086,#1087);
#957=AXIS2_PLACEMENT_3D('',#1378,#1088,#1089);
#958=AXIS2_PLACEMENT_3D('',#1388,#1090,#1091);
#959=AXIS2_PLACEMENT_3D('',#1397,#1092,#1093);
#960=AXIS2_PLACEMENT_3D('',#1398,#1094,#1095);
#961=AXIS2_PLACEMENT_3D('',#1403,#1097,#1098);
#962=AXIS2_PLACEMENT_3D('',#1407,#1100,#1101);
#963=AXIS2_PLACEMENT_3D('',#1411,#1103,#1104);
#964=AXIS2_PLACEMENT_3D('',#1414,#1106,#1107);
#965=AXIS2_PLACEMENT_3D('',#1415,#1108,#1109);
#966=AXIS2_PLACEMENT_3D('',#1416,#1110,#1111);
#967=AXIS2_PLACEMENT_3D('',#1419,#1114,#1115);
#968=AXIS2_PLACEMENT_3D('',#1420,#1116,#1117);
#969=AXIS2_PLACEMENT_3D('',#1421,#1118,#1119);
#970=AXIS2_PLACEMENT_3D('',#1422,#1120,#1121);
#971=AXIS2_PLACEMENT_3D('',#1423,#1122,#1123);
#972=AXIS2_PLACEMENT_3D('',#1424,#1124,#1125);
#973=AXIS2_PLACEMENT_3D('',#1425,#1126,#1127);
#974=AXIS2_PLACEMENT_3D('',#1426,#1128,#1129);
#975=AXIS2_PLACEMENT_3D('',#1427,#1130,#1131);
#976=AXIS2_PLACEMENT_3D('',#1428,#1132,#1133);
#977=AXIS2_PLACEMENT_3D('',#1429,#1134,#1135);
#978=AXIS2_PLACEMENT_3D('',#1432,#1138,#1139);
#979=AXIS2_PLACEMENT_3D('',#1434,#1141,#1142);
#980=AXIS2_PLACEMENT_3D('',#1436,#1144,#1145);
#981=AXIS2_PLACEMENT_3D('',#1438,#1147,#1148);
#982=AXIS2_PLACEMENT_3D('',#1440,#1150,#1151);
#983=AXIS2_PLACEMENT_3D('',#1442,#1153,#1154);
#984=AXIS2_PLACEMENT_3D('',#1444,#1156,#1157);
#985=AXIS2_PLACEMENT_3D('',#1445,#1158,#1159);
#986=AXIS2_PLACEMENT_3D('',#1446,#1160,#1161);
#987=AXIS2_PLACEMENT_3D('',#1456,#1166,#1167);
#988=AXIS2_PLACEMENT_3D('',#1459,#1169,#1170);
#989=AXIS2_PLACEMENT_3D('',#1463,#1172,#1173);
#990=AXIS2_PLACEMENT_3D('',#1476,#1180,#1181);
#991=AXIS2_PLACEMENT_3D('',#1477,#1182,#1183);
#992=AXIS2_PLACEMENT_3D('',#1486,#1188,#1189);
#993=AXIS2_PLACEMENT_3D('',#1487,#1190,#1191);
#994=AXIS2_PLACEMENT_3D('',#1493,#1195,#1196);
#995=AXIS2_PLACEMENT_3D('',#1499,#1200,#1201);
#996=AXIS2_PLACEMENT_3D('',#1500,#1202,#1203);
#997=AXIS2_PLACEMENT_3D('',#1507,#1207,#1208);
#998=AXIS2_PLACEMENT_3D('',#1513,#1212,#1213);
#999=AXIS2_PLACEMENT_3D('',#1514,#1214,#1215);
#1000=AXIS2_PLACEMENT_3D('',#1518,#1218,#1219);
#1001=AXIS2_PLACEMENT_3D('',#1527,#1224,#1225);
#1002=AXIS2_PLACEMENT_3D('',#1528,#1226,#1227);
#1003=AXIS2_PLACEMENT_3D('',#1531,#1230,#1231);
#1004=AXIS2_PLACEMENT_3D('',#1532,#1232,#1233);
#1005=AXIS2_PLACEMENT_3D('',#1533,#1234,#1235);
#1006=AXIS2_PLACEMENT_3D('',#1534,#1236,#1237);
#1007=AXIS2_PLACEMENT_3D('',#1535,#1238,#1239);
#1008=AXIS2_PLACEMENT_3D('',#1540,#1241,#1242);
#1009=AXIS2_PLACEMENT_3D('',#1544,#1244,#1245);
#1010=AXIS2_PLACEMENT_3D('',#1548,#1247,#1248);
#1011=AXIS2_PLACEMENT_3D('',#1551,#1250,#1251);
#1012=AXIS2_PLACEMENT_3D('',#1552,#1252,#1253);
#1013=AXIS2_PLACEMENT_3D('',#1554,#1254,#1255);
#1014=AXIS2_PLACEMENT_3D('',#1556,#1256,#1257);
#1015=AXIS2_PLACEMENT_3D('',#1558,#1258,#1259);
#1016=AXIS2_PLACEMENT_3D('',#1560,#1260,#1261);
#1017=AXIS2_PLACEMENT_3D('',#1561,#1262,#1263);
#1018=AXIS2_PLACEMENT_3D('',#1563,#1264,#1265);
#1019=AXIS2_PLACEMENT_3D('',#1564,#1266,#1267);
#1020=AXIS2_PLACEMENT_3D('',#1566,#1268,#1269);
#1021=AXIS2_PLACEMENT_3D('',#1567,#1270,#1271);
#1022=AXIS2_PLACEMENT_3D('',#1569,#1272,#1273);
#1023=AXIS2_PLACEMENT_3D('',#1570,#1274,#1275);
#1024=AXIS2_PLACEMENT_3D('',#1571,#1276,#1277);
#1025=AXIS2_PLACEMENT_3D('',#1572,#1278,#1279);
#1026=AXIS2_PLACEMENT_3D('',#1573,#1280,#1281);
#1027=AXIS2_PLACEMENT_3D('',#1575,#1282,#1283);
#1028=AXIS2_PLACEMENT_3D('',#1576,#1284,#1285);
#1029=AXIS2_PLACEMENT_3D('',#1577,#1286,#1287);
#1030=AXIS2_PLACEMENT_3D('',#1578,#1288,#1289);
#1031=AXIS2_PLACEMENT_3D('',#1579,#1290,#1291);
#1032=AXIS2_PLACEMENT_3D('',#1580,#1292,#1293);
#1033=AXIS2_PLACEMENT_3D('',#1581,#1294,#1295);
#1034=AXIS2_PLACEMENT_3D('',#1582,#1296,#1297);
#1035=AXIS2_PLACEMENT_3D('',#1583,#1298,#1299);
#1036=AXIS2_PLACEMENT_3D('',#1584,#1300,#1301);
#1037=AXIS2_PLACEMENT_3D('',#1587,#1304,#1305);
#1038=AXIS2_PLACEMENT_3D('',#1589,#1307,#1308);
#1039=AXIS2_PLACEMENT_3D('',#1591,#1310,#1311);
#1040=AXIS2_PLACEMENT_3D('',#1593,#1313,#1314);
#1041=AXIS2_PLACEMENT_3D('',#1595,#1316,#1317);
#1042=AXIS2_PLACEMENT_3D('',#1597,#1319,#1320);
#1043=AXIS2_PLACEMENT_3D('',#1599,#1322,#1323);
#1044=DIRECTION('',(0.,0.,1.));
#1045=DIRECTION('',(1.,0.,0.));
#1046=DIRECTION('',(1.,0.,0.));
#1047=DIRECTION('',(0.,1.,0.));
#1048=DIRECTION('',(0.,-1.,-1.5770213417971E-16));
#1049=DIRECTION('',(1.,0.,0.));
#1050=DIRECTION('',(0.,0.,-1.));
#1051=DIRECTION('',(0.,0.,1.));
#1052=DIRECTION('',(1.,0.,0.));
#1053=DIRECTION('',(0.,0.,-1.));
#1054=DIRECTION('',(0.,-1.,-1.5770213417971E-16));
#1055=DIRECTION('',(0.,-1.5770213417971E-16,1.));
#1056=DIRECTION('',(1.,0.,0.));
#1057=DIRECTION('',(0.,0.,-1.));
#1058=DIRECTION('',(0.,-1.5770213417971E-16,1.));
#1059=DIRECTION('',(0.,-1.5770213417971E-16,1.));
#1060=DIRECTION('',(0.,-1.,-1.5770213417971E-16));
#1061=DIRECTION('',(1.,0.,0.));
#1062=DIRECTION('',(0.,1.,1.5770213417971E-16));
#1063=DIRECTION('',(1.,0.,0.));
#1064=DIRECTION('',(0.,-1.5770213417971E-16,1.));
#1065=DIRECTION('',(0.,-1.,-1.5770213417971E-16));
#1066=DIRECTION('',(0.,-1.,-1.5770213417971E-16));
#1067=DIRECTION('',(0.,1.,0.));
#1068=DIRECTION('',(0.,0.,1.));
#1069=DIRECTION('',(1.,0.,0.));
#1070=DIRECTION('',(0.,0.,1.));
#1071=DIRECTION('',(1.,0.,0.));
#1072=DIRECTION('',(0.,-1.5770213417971E-16,1.));
#1073=DIRECTION('',(0.,-1.,-1.5770213417971E-16));
#1074=DIRECTION('',(1.,0.,0.));
#1075=DIRECTION('',(0.,-1.,-1.5770213417971E-16));
#1076=DIRECTION('',(1.,0.,0.));
#1077=DIRECTION('',(0.,-1.,-1.5770213417971E-16));
#1078=DIRECTION('',(0.,-1.5770213417971E-16,1.));
#1079=DIRECTION('',(0.,-1.,-1.5770213417971E-16));
#1080=DIRECTION('',(0.,1.,0.));
#1081=DIRECTION('',(0.,0.,1.));
#1082=DIRECTION('',(1.,0.,0.));
#1083=DIRECTION('',(0.,0.,-1.));
#1084=DIRECTION('',(1.,0.,0.));
#1085=DIRECTION('',(0.,0.,1.));
#1086=DIRECTION('',(1.,0.,0.));
#1087=DIRECTION('',(0.,0.,-1.));
#1088=DIRECTION('',(1.,0.,0.));
#1089=DIRECTION('',(0.,0.,-1.));
#1090=DIRECTION('',(1.,0.,0.));
#1091=DIRECTION('',(0.,0.,-1.));
#1092=DIRECTION('',(1.,0.,0.));
#1093=DIRECTION('',(0.,1.,0.));
#1094=DIRECTION('',(1.,0.,0.));
#1095=DIRECTION('',(0.,0.,-1.));
#1096=DIRECTION('',(0.,0.,1.));
#1097=DIRECTION('',(1.,0.,0.));
#1098=DIRECTION('',(0.,0.,-1.));
#1099=DIRECTION('',(0.,1.,1.5770213417971E-16));
#1100=DIRECTION('',(1.,0.,0.));
#1101=DIRECTION('',(0.,0.,-1.));
#1102=DIRECTION('',(0.,0.,-1.));
#1103=DIRECTION('',(1.,0.,0.));
#1104=DIRECTION('',(0.,0.,-1.));
#1105=DIRECTION('',(0.,-1.,-1.5770213417971E-16));
#1106=DIRECTION('',(1.,0.,0.));
#1107=DIRECTION('',(0.,1.,0.));
#1108=DIRECTION('',(1.,0.,0.));
#1109=DIRECTION('',(0.,0.,-1.));
#1110=DIRECTION('',(1.,0.,0.));
#1111=DIRECTION('',(0.,0.,-1.));
#1112=DIRECTION('',(0.,-1.5770213417971E-16,1.));
#1113=DIRECTION('',(0.,-1.5770213417971E-16,1.));
#1114=DIRECTION('',(0.,-1.5770213417971E-16,1.));
#1115=DIRECTION('',(0.,-1.,-1.5770213417971E-16));
#1116=DIRECTION('',(0.,-1.5770213417971E-16,1.));
#1117=DIRECTION('',(0.,-1.,-1.5770213417971E-16));
#1118=DIRECTION('',(-1.,0.,0.));
#1119=DIRECTION('',(0.,0.,1.));
#1120=DIRECTION('',(1.,0.,0.));
#1121=DIRECTION('',(0.,0.,-1.));
#1122=DIRECTION('',(1.,0.,0.));
#1123=DIRECTION('',(0.,0.,-1.));
#1124=DIRECTION('',(1.,0.,0.));
#1125=DIRECTION('',(0.,0.,-1.));
#1126=DIRECTION('',(-1.,0.,0.));
#1127=DIRECTION('',(0.,0.,1.));
#1128=DIRECTION('',(1.,0.,0.));
#1129=DIRECTION('',(0.,0.,-1.));
#1130=DIRECTION('',(1.,0.,0.));
#1131=DIRECTION('',(0.,0.,-1.));
#1132=DIRECTION('',(1.,0.,0.));
#1133=DIRECTION('',(0.,0.,-1.));
#1134=DIRECTION('',(-0.707106781186548,0.707106781186548,0.));
#1135=DIRECTION('',(0.,0.,-1.));
#1136=DIRECTION('',(-0.707106781186548,-0.707106781186548,0.));
#1137=DIRECTION('',(0.707106781186548,0.707106781186548,0.));
#1138=DIRECTION('',(1.,0.,0.));
#1139=DIRECTION('',(0.,0.,-1.));
#1140=DIRECTION('',(0.707106781186548,0.,-0.707106781186548));
#1141=DIRECTION('',(1.,0.,0.));
#1142=DIRECTION('',(0.,0.,-1.));
#1143=DIRECTION('',(-0.707106781186548,0.,-0.707106781186548));
#1144=DIRECTION('',(0.707106781186548,-1.11512248486064E-16,0.707106781186548));
#1145=DIRECTION('',(0.,-1.,-1.5770213417971E-16));
#1146=DIRECTION('',(0.707106781186548,0.,-0.707106781186548));
#1147=DIRECTION('',(-0.707106781186548,-1.11512248486064E-16,0.707106781186548));
#1148=DIRECTION('',(0.,1.,1.5770213417971E-16));
#1149=DIRECTION('',(-0.707106781186548,0.,-0.707106781186548));
#1150=DIRECTION('',(1.,0.,0.));
#1151=DIRECTION('',(0.,0.,-1.));
#1152=DIRECTION('',(0.707106781186548,-0.707106781186548,0.));
#1153=DIRECTION('',(1.,0.,0.));
#1154=DIRECTION('',(0.,0.,-1.));
#1155=DIRECTION('',(-0.707106781186548,0.707106781186548,0.));
#1156=DIRECTION('',(0.707106781186548,0.707106781186548,0.));
#1157=DIRECTION('',(0.,0.,1.));
#1158=DIRECTION('',(0.,0.,1.));
#1159=DIRECTION('',(1.,0.,0.));
#1160=DIRECTION('',(0.,1.5770213417971E-16,-1.));
#1161=DIRECTION('',(0.,1.,1.5770213417971E-16));
#1162=DIRECTION('',(-1.,0.,0.));
#1163=DIRECTION('',(0.,1.,1.5770213417971E-16));
#1164=DIRECTION('',(-1.,0.,0.));
#1165=DIRECTION('',(0.,-1.,-1.5770213417971E-16));
#1166=DIRECTION('',(0.,-1.5770213417971E-16,1.));
#1167=DIRECTION('',(0.,-1.,-1.5770213417971E-16));
#1168=DIRECTION('',(0.,-1.,-1.5770213417971E-16));
#1169=DIRECTION('',(1.,0.,0.));
#1170=DIRECTION('',(0.,1.,0.));
#1171=DIRECTION('',(0.,0.,1.));
#1172=DIRECTION('',(1.,0.,0.));
#1173=DIRECTION('',(0.,0.,-1.));
#1174=DIRECTION('',(0.,-1.,-1.5770213417971E-16));
#1175=DIRECTION('',(0.,-1.5770213417971E-16,1.));
#1176=DIRECTION('',(0.,-1.,-1.82602471155453E-16));
#1177=DIRECTION('',(0.,0.,1.));
#1178=DIRECTION('',(0.,-1.,-1.82602471155453E-16));
#1179=DIRECTION('',(0.,-1.5770213417971E-16,1.));
#1180=DIRECTION('',(1.,0.,0.));
#1181=DIRECTION('',(0.,0.,-1.));
#1182=DIRECTION('',(0.,1.5770213417971E-16,-1.));
#1183=DIRECTION('',(0.,1.,1.5770213417971E-16));
#1184=DIRECTION('',(-1.,0.,0.));
#1185=DIRECTION('',(0.,-1.,-1.5770213417971E-16));
#1186=DIRECTION('',(-1.,0.,0.));
#1187=DIRECTION('',(0.,-1.,-1.5770213417971E-16));
#1188=DIRECTION('',(0.,1.5770213417971E-16,-1.));
#1189=DIRECTION('',(0.,1.,1.5770213417971E-16));
#1190=DIRECTION('',(0.,-1.,0.));
#1191=DIRECTION('',(0.,0.,-1.));
#1192=DIRECTION('',(-1.,0.,0.));
#1193=DIRECTION('',(0.,0.,-1.));
#1194=DIRECTION('',(-1.,0.,0.));
#1195=DIRECTION('',(0.,-1.,0.));
#1196=DIRECTION('',(0.,0.,-1.));
#1197=DIRECTION('',(-1.,0.,0.));
#1198=DIRECTION('',(0.,0.,1.));
#1199=DIRECTION('',(-1.,0.,0.));
#1200=DIRECTION('',(0.,1.82602471155453E-16,-1.));
#1201=DIRECTION('',(0.,1.,1.82602471155453E-16));
#1202=DIRECTION('',(0.,1.82602471155453E-16,-1.));
#1203=DIRECTION('',(0.,1.,1.82602471155453E-16));
#1204=DIRECTION('',(0.,-1.,-1.82602471155453E-16));
#1205=DIRECTION('',(-1.,0.,0.));
#1206=DIRECTION('',(0.,-1.,-1.82602471155453E-16));
#1207=DIRECTION('',(0.,-1.,0.));
#1208=DIRECTION('',(0.,0.,-1.));
#1209=DIRECTION('',(0.,0.,1.));
#1210=DIRECTION('',(-1.,0.,0.));
#1211=DIRECTION('',(0.,0.,1.));
#1212=DIRECTION('',(0.,1.82602471155453E-16,-1.));
#1213=DIRECTION('',(0.,1.,1.82602471155453E-16));
#1214=DIRECTION('',(0.,1.82602471155453E-16,-1.));
#1215=DIRECTION('',(0.,1.,1.82602471155453E-16));
#1216=DIRECTION('',(0.,-1.,-1.82602471155453E-16));
#1217=DIRECTION('',(0.,-1.,-1.82602471155453E-16));
#1218=DIRECTION('',(0.,-1.,0.));
#1219=DIRECTION('',(0.,0.,-1.));
#1220=DIRECTION('',(-1.,0.,0.));
#1221=DIRECTION('',(0.,0.,1.));
#1222=DIRECTION('',(-1.,0.,0.));
#1223=DIRECTION('',(0.,0.,1.));
#1224=DIRECTION('',(1.,0.,0.));
#1225=DIRECTION('',(0.,1.,0.));
#1226=DIRECTION('',(1.,0.,0.));
#1227=DIRECTION('',(0.,0.,-1.));
#1228=DIRECTION('',(0.,-1.5770213417971E-16,1.));
#1229=DIRECTION('',(0.,-1.5770213417971E-16,1.));
#1230=DIRECTION('',(1.,0.,0.));
#1231=DIRECTION('',(0.,0.,-1.));
#1232=DIRECTION('',(0.,-1.5770213417971E-16,1.));
#1233=DIRECTION('',(0.,-1.,-1.5770213417971E-16));
#1234=DIRECTION('',(0.,-1.5770213417971E-16,1.));
#1235=DIRECTION('',(0.,-1.,-1.5770213417971E-16));
#1236=DIRECTION('',(1.,0.,0.));
#1237=DIRECTION('',(0.,1.,0.));
#1238=DIRECTION('',(1.,0.,0.));
#1239=DIRECTION('',(0.,0.,-1.));
#1240=DIRECTION('',(0.,0.,-1.));
#1241=DIRECTION('',(1.,0.,0.));
#1242=DIRECTION('',(0.,0.,-1.));
#1243=DIRECTION('',(0.,1.,1.5770213417971E-16));
#1244=DIRECTION('',(1.,0.,0.));
#1245=DIRECTION('',(0.,0.,-1.));
#1246=DIRECTION('',(0.,0.,1.));
#1247=DIRECTION('',(1.,0.,0.));
#1248=DIRECTION('',(0.,0.,-1.));
#1249=DIRECTION('',(0.,-1.,-1.5770213417971E-16));
#1250=DIRECTION('',(1.,0.,0.));
#1251=DIRECTION('',(0.,1.,0.));
#1252=DIRECTION('',(1.,0.,0.));
#1253=DIRECTION('',(0.,0.,1.));
#1254=DIRECTION('',(1.,0.,0.));
#1255=DIRECTION('',(0.,0.,1.));
#1256=DIRECTION('',(-1.,0.,0.));
#1257=DIRECTION('',(0.,0.,1.));
#1258=DIRECTION('',(-1.,0.,0.));
#1259=DIRECTION('',(0.,0.,1.));
#1260=DIRECTION('',(-1.,0.,0.));
#1261=DIRECTION('',(0.,0.,1.));
#1262=DIRECTION('',(-1.,0.,0.));
#1263=DIRECTION('',(0.,0.,1.));
#1264=DIRECTION('',(-1.,0.,0.));
#1265=DIRECTION('',(0.,0.,1.));
#1266=DIRECTION('',(-1.,0.,0.));
#1267=DIRECTION('',(0.,0.,1.));
#1268=DIRECTION('',(-1.,0.,0.));
#1269=DIRECTION('',(0.,0.,1.));
#1270=DIRECTION('',(1.,0.,0.));
#1271=DIRECTION('',(0.,0.,1.));
#1272=DIRECTION('',(-1.,0.,0.));
#1273=DIRECTION('',(0.,-1.,0.));
#1274=DIRECTION('',(-1.,0.,0.));
#1275=DIRECTION('',(0.,-1.,0.));
#1276=DIRECTION('',(-1.,0.,0.));
#1277=DIRECTION('',(0.,-1.,0.));
#1278=DIRECTION('',(-1.,0.,0.));
#1279=DIRECTION('',(0.,0.,1.));
#1280=DIRECTION('',(1.,0.,0.));
#1281=DIRECTION('',(0.,0.,1.));
#1282=DIRECTION('',(-1.,0.,0.));
#1283=DIRECTION('',(0.,-1.,0.));
#1284=DIRECTION('',(1.,0.,0.));
#1285=DIRECTION('',(0.,0.,-1.));
#1286=DIRECTION('',(1.,0.,0.));
#1287=DIRECTION('',(0.,0.,-1.));
#1288=DIRECTION('',(-1.,0.,0.));
#1289=DIRECTION('',(0.,0.,1.));
#1290=DIRECTION('',(1.,0.,0.));
#1291=DIRECTION('',(0.,0.,-1.));
#1292=DIRECTION('',(1.,0.,0.));
#1293=DIRECTION('',(0.,0.,-1.));
#1294=DIRECTION('',(1.,0.,0.));
#1295=DIRECTION('',(0.,0.,-1.));
#1296=DIRECTION('',(-1.,0.,0.));
#1297=DIRECTION('',(0.,0.,1.));
#1298=DIRECTION('',(1.,0.,0.));
#1299=DIRECTION('',(0.,0.,-1.));
#1300=DIRECTION('',(0.707106781186548,0.707106781186548,0.));
#1301=DIRECTION('',(0.,0.,-1.));
#1302=DIRECTION('',(-0.707106781186548,0.707106781186548,0.));
#1303=DIRECTION('',(0.707106781186548,-0.707106781186548,0.));
#1304=DIRECTION('',(-1.,0.,0.));
#1305=DIRECTION('',(0.,0.,1.));
#1306=DIRECTION('',(0.707106781186548,0.,0.707106781186548));
#1307=DIRECTION('',(-1.,0.,0.));
#1308=DIRECTION('',(0.,0.,1.));
#1309=DIRECTION('',(-0.707106781186548,0.,0.707106781186548));
#1310=DIRECTION('',(-0.707106781186548,-1.11512248486064E-16,0.707106781186548));
#1311=DIRECTION('',(0.,-1.,-1.5770213417971E-16));
#1312=DIRECTION('',(0.707106781186548,0.,0.707106781186548));
#1313=DIRECTION('',(0.707106781186548,-1.11512248486064E-16,0.707106781186548));
#1314=DIRECTION('',(0.,1.,1.5770213417971E-16));
#1315=DIRECTION('',(-0.707106781186548,0.,0.707106781186548));
#1316=DIRECTION('',(-1.,0.,0.));
#1317=DIRECTION('',(0.,0.,1.));
#1318=DIRECTION('',(0.707106781186548,0.707106781186548,0.));
#1319=DIRECTION('',(-1.,0.,0.));
#1320=DIRECTION('',(0.,0.,1.));
#1321=DIRECTION('',(-0.707106781186548,-0.707106781186548,0.));
#1322=DIRECTION('',(-0.707106781186548,0.707106781186548,0.));
#1323=DIRECTION('',(0.,0.,1.));
#1324=CARTESIAN_POINT('',(0.,0.,0.));
#1325=CARTESIAN_POINT('',(0.,0.,0.));
#1326=CARTESIAN_POINT('',(0.,0.,-0.0125));
#1327=CARTESIAN_POINT('',(0.,0.0098,-0.0125));
#1328=CARTESIAN_POINT('',(0.,0.0015,-0.0125));
#1329=CARTESIAN_POINT('',(0.,0.0098,-0.0113));
#1330=CARTESIAN_POINT('',(0.,0.011,-0.0113));
#1331=CARTESIAN_POINT('',(0.,0.011,1.7347234759768E-18));
#1332=CARTESIAN_POINT('',(0.,0.011,0.0113));
#1333=CARTESIAN_POINT('',(0.,0.0098,0.0113));
#1334=CARTESIAN_POINT('',(0.,0.0098,0.0125));
#1335=CARTESIAN_POINT('',(0.,0.,0.0125));
#1336=CARTESIAN_POINT('',(0.,0.0015,0.0125));
#1337=CARTESIAN_POINT('',(0.,0.0015,-0.0151));
#1338=CARTESIAN_POINT('',(0.,0.0015,0.00248193472919817));
#1339=CARTESIAN_POINT('',(0.,0.,1.77573785876366E-19));
#1340=CARTESIAN_POINT('',(0.,0.0015,-0.00248193472919817));
#1341=CARTESIAN_POINT('',(0.,0.0015,-0.0151));
#1342=CARTESIAN_POINT('',(-0.009,0.,-0.0125));
#1343=CARTESIAN_POINT('',(-0.009,-0.0098,-0.0125));
#1344=CARTESIAN_POINT('',(0.,-0.0098,-0.0125));
#1345=CARTESIAN_POINT('',(-0.0086,-0.0098,-0.0125));
#1346=CARTESIAN_POINT('',(-0.0086,0.,-0.0125));
#1347=CARTESIAN_POINT('',(-0.0086,0.0098,-0.0125));
#1348=CARTESIAN_POINT('',(0.,0.0098,-0.0125));
#1349=CARTESIAN_POINT('',(0.,2.06312518718242E-18,-0.0125));
#1350=CARTESIAN_POINT('',(0.,-0.0015,-0.0125));
#1351=CARTESIAN_POINT('',(0.,0.,-0.0125));
#1352=CARTESIAN_POINT('',(-0.009,0.011,1.7347234759768E-18));
#1353=CARTESIAN_POINT('',(-0.009,0.011,-0.0113));
#1354=CARTESIAN_POINT('',(-0.0086,0.011,-0.0113));
#1355=CARTESIAN_POINT('',(-0.0086,0.011,0.0113));
#1356=CARTESIAN_POINT('',(-0.0086,0.011,0.0113));
#1357=CARTESIAN_POINT('',(-0.009,0.011,0.0113));
#1358=CARTESIAN_POINT('',(-0.009,0.,0.0125));
#1359=CARTESIAN_POINT('',(-0.009,0.0098,0.0125));
#1360=CARTESIAN_POINT('',(-0.0086,0.0098,0.0125));
#1361=CARTESIAN_POINT('',(-0.0086,-0.0098,0.0125));
#1362=CARTESIAN_POINT('',(-0.0086,-0.0098,0.0125));
#1363=CARTESIAN_POINT('',(0.,-0.0098,0.0125));
#1364=CARTESIAN_POINT('',(0.,-0.0098,0.0125));
#1365=CARTESIAN_POINT('',(0.,0.,0.0125));
#1366=CARTESIAN_POINT('',(0.,-0.0015,0.0125));
#1367=CARTESIAN_POINT('',(0.,-1.87942816731032E-18,0.0125));
#1368=CARTESIAN_POINT('',(-0.009,-0.011,-1.7347234759768E-18));
#1369=CARTESIAN_POINT('',(-0.009,-0.011,0.0113));
#1370=CARTESIAN_POINT('',(0.,-0.011,0.0113));
#1371=CARTESIAN_POINT('',(-0.0086,-0.011,0.0113));
#1372=CARTESIAN_POINT('',(-0.0086,-0.011,-1.7347234759768E-18));
#1373=CARTESIAN_POINT('',(-0.0086,-0.011,-0.0113));
#1374=CARTESIAN_POINT('',(-0.009,-0.011,-0.0113));
#1375=CARTESIAN_POINT('',(0.,-0.011,-0.0113));
#1376=CARTESIAN_POINT('',(0.,-0.011,-1.7347234759768E-18));
#1377=CARTESIAN_POINT('',(-0.009,0.,1.77573785876366E-19));
#1378=CARTESIAN_POINT('',(-0.009,0.,1.77573785876366E-19));
#1379=CARTESIAN_POINT('',(-0.009,0.,-0.0029));
#1380=CARTESIAN_POINT('',(0.,0.0015,0.00248193472919817));
#1381=CARTESIAN_POINT('',(-0.000404343966317021,0.0015,0.00248193472919817));
#1382=CARTESIAN_POINT('',(-0.00116717715167971,0.00117603046650772,0.0027064105911102));
#1383=CARTESIAN_POINT('',(-0.0016662375150112,3.93611566087908E-6,0.00299671306620617));
#1384=CARTESIAN_POINT('',(-0.00116786141090744,-0.00117746435627019,0.00270673125922227));
#1385=CARTESIAN_POINT('',(-0.000404652559073352,-0.0015,0.00248193472919817));
#1386=CARTESIAN_POINT('',(1.07133363120365E-19,-0.0015,0.00248193472919817));
#1387=CARTESIAN_POINT('',(0.,-0.0015,0.00248193472919817));
#1388=CARTESIAN_POINT('',(0.,0.,1.77573785876366E-19));
#1389=CARTESIAN_POINT('',(0.,-0.0015,-0.00248193472919817));
#1390=CARTESIAN_POINT('',(0.,-0.0015,-0.00248193472919817));
#1391=CARTESIAN_POINT('',(-0.000404343966317021,-0.0015,-0.00248193472919817));
#1392=CARTESIAN_POINT('',(-0.00116717715167971,-0.00117603046650772,-0.0027064105911102));
#1393=CARTESIAN_POINT('',(-0.0016662375150112,-3.93611566087895E-6,-0.00299671306620617));
#1394=CARTESIAN_POINT('',(-0.00116786141090744,0.0011774643562702,-0.00270673125922227));
#1395=CARTESIAN_POINT('',(-0.000404652559073351,0.0015,-0.00248193472919817));
#1396=CARTESIAN_POINT('',(2.02027523295371E-19,0.0015,-0.00248193472919817));
#1397=CARTESIAN_POINT('',(-0.009,0.,0.));
#1398=CARTESIAN_POINT('',(-0.009,-0.0098,-0.0113));
#1399=CARTESIAN_POINT('',(-0.009,-0.0098,-0.0121));
#1400=CARTESIAN_POINT('',(-0.009,-0.0106,-0.0113));
#1401=CARTESIAN_POINT('',(-0.009,-0.0106,0.));
#1402=CARTESIAN_POINT('',(-0.009,-0.0106,0.0113));
#1403=CARTESIAN_POINT('',(-0.009,-0.0098,0.0113));
#1404=CARTESIAN_POINT('',(-0.009,-0.0098,0.0121));
#1405=CARTESIAN_POINT('',(-0.009,0.0098,0.0121));
#1406=CARTESIAN_POINT('',(-0.009,0.0098,0.0121));
#1407=CARTESIAN_POINT('',(-0.009,0.0098,0.0113));
#1408=CARTESIAN_POINT('',(-0.009,0.0106,0.0113));
#1409=CARTESIAN_POINT('',(-0.009,0.0106,-0.0113));
#1410=CARTESIAN_POINT('',(-0.009,0.0106,-0.0113));
#1411=CARTESIAN_POINT('',(-0.009,0.0098,-0.0113));
#1412=CARTESIAN_POINT('',(-0.009,0.0098,-0.0121));
#1413=CARTESIAN_POINT('',(-0.009,1.90819582357449E-18,-0.0121));
#1414=CARTESIAN_POINT('',(0.,0.,0.));
#1415=CARTESIAN_POINT('',(0.,-0.0098,0.0113));
#1416=CARTESIAN_POINT('',(0.,-0.0098,-0.0113));
#1417=CARTESIAN_POINT('',(0.,-0.0015,-0.0151));
#1418=CARTESIAN_POINT('',(0.,-0.0015,-0.0151));
#1419=CARTESIAN_POINT('',(0.,2.47315073604967E-18,-0.0151));
#1420=CARTESIAN_POINT('',(0.,2.47315073604967E-18,-0.0151));
#1421=CARTESIAN_POINT('',(-0.009,0.0098,-0.0113));
#1422=CARTESIAN_POINT('',(-0.0086,0.0098,-0.0113));
#1423=CARTESIAN_POINT('',(-0.009,0.0098,0.0113));
#1424=CARTESIAN_POINT('',(-0.0086,0.0098,0.0113));
#1425=CARTESIAN_POINT('',(-0.009,-0.0098,0.0113));
#1426=CARTESIAN_POINT('',(-0.0086,-0.0098,0.0113));
#1427=CARTESIAN_POINT('',(-0.009,-0.0098,-0.0113));
#1428=CARTESIAN_POINT('',(-0.0086,-0.0098,-0.0113));
#1429=CARTESIAN_POINT('',(-0.0086,0.011,1.7347234759768E-18));
#1430=CARTESIAN_POINT('',(-0.0086,0.011,0.0113));
#1431=CARTESIAN_POINT('',(-0.009,0.0106,-0.0113));
#1432=CARTESIAN_POINT('',(-0.009,0.0098,-0.0113));
#1433=CARTESIAN_POINT('',(-0.009,0.0098,-0.0121));
#1434=CARTESIAN_POINT('',(-0.009,0.0098,0.0113));
#1435=CARTESIAN_POINT('',(-0.0086,0.0098,0.0125));
#1436=CARTESIAN_POINT('',(-0.009,1.90819582357449E-18,-0.0121));
#1437=CARTESIAN_POINT('',(-0.009,-0.0098,-0.0121));
#1438=CARTESIAN_POINT('',(-0.0086,0.,0.0125));
#1439=CARTESIAN_POINT('',(-0.0086,-0.0098,0.0125));
#1440=CARTESIAN_POINT('',(-0.009,-0.0098,-0.0113));
#1441=CARTESIAN_POINT('',(-0.009,-0.0106,-0.0113));
#1442=CARTESIAN_POINT('',(-0.009,-0.0098,0.0113));
#1443=CARTESIAN_POINT('',(-0.0086,-0.011,0.0113));
#1444=CARTESIAN_POINT('',(-0.009,-0.0106,0.));
#1445=CARTESIAN_POINT('',(0.,0.,0.));
#1446=CARTESIAN_POINT('',(0.004,0.,0.0125));
#1447=CARTESIAN_POINT('',(0.0085,-0.0098,0.0125));
#1448=CARTESIAN_POINT('',(0.,-0.0098,0.0125));
#1449=CARTESIAN_POINT('',(0.0081,-0.0098,0.0125));
#1450=CARTESIAN_POINT('',(0.0081,0.0098,0.0125));
#1451=CARTESIAN_POINT('',(0.0081,0.0098,0.0125));
#1452=CARTESIAN_POINT('',(0.004,0.0098,0.0125));
#1453=CARTESIAN_POINT('',(0.,0.0098,0.0125));
#1454=CARTESIAN_POINT('',(0.,0.,0.0125));
#1455=CARTESIAN_POINT('',(0.,0.0015,0.0125));
#1456=CARTESIAN_POINT('',(0.,-1.87942816731032E-18,0.0125));
#1457=CARTESIAN_POINT('',(0.,-0.0015,0.0125));
#1458=CARTESIAN_POINT('',(0.,0.,0.0125));
#1459=CARTESIAN_POINT('',(0.,0.,0.));
#1460=CARTESIAN_POINT('',(0.,0.011,1.7347234759768E-18));
#1461=CARTESIAN_POINT('',(0.,0.011,-0.0113));
#1462=CARTESIAN_POINT('',(0.,0.011,0.0113));
#1463=CARTESIAN_POINT('',(0.,0.0098,-0.0113));
#1464=CARTESIAN_POINT('',(0.,0.0098,-0.0125));
#1465=CARTESIAN_POINT('',(0.,0.,-0.0125));
#1466=CARTESIAN_POINT('',(0.,0.0015,-0.0125));
#1467=CARTESIAN_POINT('',(0.,0.0015,-0.0151));
#1468=CARTESIAN_POINT('',(0.,0.0015,-0.011));
#1469=CARTESIAN_POINT('',(0.,0.,-0.011));
#1470=CARTESIAN_POINT('',(0.,0.0095,-0.011));
#1471=CARTESIAN_POINT('',(0.,0.0095,1.7347234759768E-18));
#1472=CARTESIAN_POINT('',(0.,0.0095,0.011));
#1473=CARTESIAN_POINT('',(0.,0.,0.011));
#1474=CARTESIAN_POINT('',(0.,0.0015,0.011));
#1475=CARTESIAN_POINT('',(0.,0.0015,-0.0151));
#1476=CARTESIAN_POINT('',(0.,0.0098,0.0113));
#1477=CARTESIAN_POINT('',(0.004,0.,-0.0125));
#1478=CARTESIAN_POINT('',(0.0085,0.0098,-0.0125));
#1479=CARTESIAN_POINT('',(0.0081,0.0098,-0.0125));
#1480=CARTESIAN_POINT('',(0.0081,0.,-0.0125));
#1481=CARTESIAN_POINT('',(0.0081,-0.0098,-0.0125));
#1482=CARTESIAN_POINT('',(0.004,-0.0098,-0.0125));
#1483=CARTESIAN_POINT('',(0.,-0.0098,-0.0125));
#1484=CARTESIAN_POINT('',(0.,0.,-0.0125));
#1485=CARTESIAN_POINT('',(0.,-0.0015,-0.0125));
#1486=CARTESIAN_POINT('',(0.,2.06312518718242E-18,-0.0125));
#1487=CARTESIAN_POINT('',(0.004,0.011,1.7347234759768E-18));
#1488=CARTESIAN_POINT('',(0.004,0.011,0.0113));
#1489=CARTESIAN_POINT('',(0.0081,0.011,0.0113));
#1490=CARTESIAN_POINT('',(0.0081,0.011,-0.0113));
#1491=CARTESIAN_POINT('',(0.0081,0.011,-0.0113));
#1492=CARTESIAN_POINT('',(0.,0.011,-0.0113));
#1493=CARTESIAN_POINT('',(0.004,0.0095,1.7347234759768E-18));
#1494=CARTESIAN_POINT('',(0.004,0.0095,-0.011));
#1495=CARTESIAN_POINT('',(0.0055,0.0095,-0.011));
#1496=CARTESIAN_POINT('',(0.0055,0.0095,1.7347234759768E-18));
#1497=CARTESIAN_POINT('',(0.0055,0.0095,0.011));
#1498=CARTESIAN_POINT('',(0.004,0.0095,0.011));
#1499=CARTESIAN_POINT('',(0.004,0.,-0.011));
#1500=CARTESIAN_POINT('',(0.,1.82657198591286E-18,-0.011));
#1501=CARTESIAN_POINT('',(0.,-0.0015,-0.011));
#1502=CARTESIAN_POINT('',(0.,0.,-0.011));
#1503=CARTESIAN_POINT('',(0.,-0.0095,-0.011));
#1504=CARTESIAN_POINT('',(0.004,-0.0095,-0.011));
#1505=CARTESIAN_POINT('',(0.0055,-0.0095,-0.011));
#1506=CARTESIAN_POINT('',(0.0055,0.,-0.011));
#1507=CARTESIAN_POINT('',(0.004,-0.0095,-1.7347234759768E-18));
#1508=CARTESIAN_POINT('',(0.,-0.0095,-1.7347234759768E-18));
#1509=CARTESIAN_POINT('',(0.,-0.0095,0.011));
#1510=CARTESIAN_POINT('',(0.004,-0.0095,0.011));
#1511=CARTESIAN_POINT('',(0.0055,-0.0095,0.011));
#1512=CARTESIAN_POINT('',(0.0055,-0.0095,-1.7347234759768E-18));
#1513=CARTESIAN_POINT('',(0.004,0.,0.011));
#1514=CARTESIAN_POINT('',(0.,-1.64287496604076E-18,0.011));
#1515=CARTESIAN_POINT('',(0.,-0.0015,0.011));
#1516=CARTESIAN_POINT('',(0.0055,0.,0.011));
#1517=CARTESIAN_POINT('',(0.,0.,0.011));
#1518=CARTESIAN_POINT('',(0.004,-0.011,-1.7347234759768E-18));
#1519=CARTESIAN_POINT('',(0.004,-0.011,-0.0113));
#1520=CARTESIAN_POINT('',(0.,-0.011,-0.0113));
#1521=CARTESIAN_POINT('',(0.0081,-0.011,-0.0113));
#1522=CARTESIAN_POINT('',(0.0081,-0.011,-1.7347234759768E-18));
#1523=CARTESIAN_POINT('',(0.0081,-0.011,0.0113));
#1524=CARTESIAN_POINT('',(0.,-0.011,0.0113));
#1525=CARTESIAN_POINT('',(0.,-0.011,0.0113));
#1526=CARTESIAN_POINT('',(0.,-0.011,-1.7347234759768E-18));
#1527=CARTESIAN_POINT('',(0.,0.,0.));
#1528=CARTESIAN_POINT('',(0.,-0.0098,0.0113));
#1529=CARTESIAN_POINT('',(0.,-0.0015,-0.0151));
#1530=CARTESIAN_POINT('',(0.,-0.0015,-0.0151));
#1531=CARTESIAN_POINT('',(0.,-0.0098,-0.0113));
#1532=CARTESIAN_POINT('',(0.,2.47315073604967E-18,-0.0151));
#1533=CARTESIAN_POINT('',(0.,2.47315073604967E-18,-0.0151));
#1534=CARTESIAN_POINT('',(0.0085,0.,0.));
#1535=CARTESIAN_POINT('',(0.0085,-0.0098,0.0113));
#1536=CARTESIAN_POINT('',(0.0085,-0.0098,0.0121));
#1537=CARTESIAN_POINT('',(0.0085,-0.0106,0.0113));
#1538=CARTESIAN_POINT('',(0.0085,-0.0106,0.));
#1539=CARTESIAN_POINT('',(0.0085,-0.0106,-0.0113));
#1540=CARTESIAN_POINT('',(0.0085,-0.0098,-0.0113));
#1541=CARTESIAN_POINT('',(0.0085,-0.0098,-0.0121));
#1542=CARTESIAN_POINT('',(0.0085,1.90819582357449E-18,-0.0121));
#1543=CARTESIAN_POINT('',(0.0085,0.0098,-0.0121));
#1544=CARTESIAN_POINT('',(0.0085,0.0098,-0.0113));
#1545=CARTESIAN_POINT('',(0.0085,0.0106,-0.0113));
#1546=CARTESIAN_POINT('',(0.0085,0.0106,0.0113));
#1547=CARTESIAN_POINT('',(0.0085,0.0106,0.0113));
#1548=CARTESIAN_POINT('',(0.0085,0.0098,0.0113));
#1549=CARTESIAN_POINT('',(0.0085,0.0098,0.0121));
#1550=CARTESIAN_POINT('',(0.0085,-0.0098,0.0121));
#1551=CARTESIAN_POINT('',(0.0055,0.,0.));
#1552=CARTESIAN_POINT('',(0.0055,-0.007,-0.0085));
#1553=CARTESIAN_POINT('',(0.0055,-0.007,-0.00725));
#1554=CARTESIAN_POINT('',(0.0055,0.007,-0.0085));
#1555=CARTESIAN_POINT('',(0.0055,0.007,-0.00725));
#1556=CARTESIAN_POINT('',(0.0055,0.007,0.0085));
#1557=CARTESIAN_POINT('',(0.0055,0.007,0.00975));
#1558=CARTESIAN_POINT('',(0.0055,-0.007,0.0085));
#1559=CARTESIAN_POINT('',(0.0055,-0.007,0.00975));
#1560=CARTESIAN_POINT('',(0.006,-0.007,0.0085));
#1561=CARTESIAN_POINT('',(0.0075,-0.007,0.0085));
#1562=CARTESIAN_POINT('',(0.0075,-0.007,0.00975));
#1563=CARTESIAN_POINT('',(0.006,0.007,0.0085));
#1564=CARTESIAN_POINT('',(0.0075,0.007,0.0085));
#1565=CARTESIAN_POINT('',(0.0075,0.007,0.00975));
#1566=CARTESIAN_POINT('',(0.006,0.007,-0.0085));
#1567=CARTESIAN_POINT('',(0.0075,0.007,-0.0085));
#1568=CARTESIAN_POINT('',(0.0075,0.007,-0.00725));
#1569=CARTESIAN_POINT('',(0.0075,-0.00437653561681509,0.));
#1570=CARTESIAN_POINT('',(0.0075,-0.00437653561681509,0.));
#1571=CARTESIAN_POINT('',(0.0075,-0.00437653561681509,0.));
#1572=CARTESIAN_POINT('',(0.006,-0.007,-0.0085));
#1573=CARTESIAN_POINT('',(0.0075,-0.007,-0.0085));
#1574=CARTESIAN_POINT('',(0.0075,-0.007,-0.00725));
#1575=CARTESIAN_POINT('',(0.0075,-0.00437653561681509,0.));
#1576=CARTESIAN_POINT('',(0.004,0.0098,-0.0113));
#1577=CARTESIAN_POINT('',(0.0081,0.0098,-0.0113));
#1578=CARTESIAN_POINT('',(0.004,0.0098,0.0113));
#1579=CARTESIAN_POINT('',(0.0081,0.0098,0.0113));
#1580=CARTESIAN_POINT('',(0.004,-0.0098,0.0113));
#1581=CARTESIAN_POINT('',(0.0081,-0.0098,0.0113));
#1582=CARTESIAN_POINT('',(0.004,-0.0098,-0.0113));
#1583=CARTESIAN_POINT('',(0.0081,-0.0098,-0.0113));
#1584=CARTESIAN_POINT('',(0.0085,0.0106,0.));
#1585=CARTESIAN_POINT('',(0.0085,0.0106,0.0113));
#1586=CARTESIAN_POINT('',(0.0081,0.011,-0.0113));
#1587=CARTESIAN_POINT('',(0.0085,0.0098,-0.0113));
#1588=CARTESIAN_POINT('',(0.0081,0.0098,-0.0125));
#1589=CARTESIAN_POINT('',(0.0085,0.0098,0.0113));
#1590=CARTESIAN_POINT('',(0.0085,0.0098,0.0121));
#1591=CARTESIAN_POINT('',(0.0081,0.,-0.0125));
#1592=CARTESIAN_POINT('',(0.0081,-0.0098,-0.0125));
#1593=CARTESIAN_POINT('',(0.0085,-1.90819582357449E-18,0.0121));
#1594=CARTESIAN_POINT('',(0.0085,-0.0098,0.0121));
#1595=CARTESIAN_POINT('',(0.0085,-0.0098,-0.0113));
#1596=CARTESIAN_POINT('',(0.0081,-0.011,-0.0113));
#1597=CARTESIAN_POINT('',(0.0085,-0.0098,0.0113));
#1598=CARTESIAN_POINT('',(0.0085,-0.0106,0.0113));
#1599=CARTESIAN_POINT('',(0.0081,-0.011,-1.7347234759768E-18));
#1600=MECHANICAL_DESIGN_GEOMETRIC_PRESENTATION_REPRESENTATION('',(#923),
#1602);
#1601=MECHANICAL_DESIGN_GEOMETRIC_PRESENTATION_REPRESENTATION('',(#924),
#1603);
#1602=(
GEOMETRIC_REPRESENTATION_CONTEXT(3)
GLOBAL_UNCERTAINTY_ASSIGNED_CONTEXT((#1604))
GLOBAL_UNIT_ASSIGNED_CONTEXT((#1610,#1608,#1606))
REPRESENTATION_CONTEXT('Part 2','TOP_LEVEL_ASSEMBLY_PART')
);
#1603=(
GEOMETRIC_REPRESENTATION_CONTEXT(3)
GLOBAL_UNCERTAINTY_ASSIGNED_CONTEXT((#1605))
GLOBAL_UNIT_ASSIGNED_CONTEXT((#1611,#1609,#1607))
REPRESENTATION_CONTEXT('Part 1','TOP_LEVEL_ASSEMBLY_PART')
);
#1604=UNCERTAINTY_MEASURE_WITH_UNIT(LENGTH_MEASURE(2.E-5),#1610,
'DISTANCE_ACCURACY_VALUE','Maximum Tolerance applied to model');
#1605=UNCERTAINTY_MEASURE_WITH_UNIT(LENGTH_MEASURE(1.E-8),#1611,
'DISTANCE_ACCURACY_VALUE','Maximum Tolerance applied to model');
#1606=(
NAMED_UNIT(*)
SI_UNIT($,.STERADIAN.)
SOLID_ANGLE_UNIT()
);
#1607=(
NAMED_UNIT(*)
SI_UNIT($,.STERADIAN.)
SOLID_ANGLE_UNIT()
);
#1608=(
NAMED_UNIT(*)
PLANE_ANGLE_UNIT()
SI_UNIT($,.RADIAN.)
);
#1609=(
NAMED_UNIT(*)
PLANE_ANGLE_UNIT()
SI_UNIT($,.RADIAN.)
);
#1610=(
LENGTH_UNIT()
NAMED_UNIT(*)
SI_UNIT($,.METRE.)
);
#1611=(
LENGTH_UNIT()
NAMED_UNIT(*)
SI_UNIT($,.METRE.)
);
#1612=PRODUCT_DEFINITION_SHAPE('','',#1614);
#1613=PRODUCT_DEFINITION_SHAPE('','',#1615);
#1614=PRODUCT_DEFINITION('','',#1618,#1616);
#1615=PRODUCT_DEFINITION('','',#1619,#1617);
#1616=PRODUCT_DEFINITION_CONTEXT('',#1630,'design');
#1617=PRODUCT_DEFINITION_CONTEXT('',#1631,'design');
#1618=PRODUCT_DEFINITION_FORMATION_WITH_SPECIFIED_SOURCE('','',#1622,
 .NOT_KNOWN.);
#1619=PRODUCT_DEFINITION_FORMATION_WITH_SPECIFIED_SOURCE('','',#1623,
 .NOT_KNOWN.);
#1620=PRODUCT_RELATED_PRODUCT_CATEGORY('','',(#1622));
#1621=PRODUCT_RELATED_PRODUCT_CATEGORY('','',(#1623));
#1622=PRODUCT('Part 2','Part 2','Part 2',(#1626));
#1623=PRODUCT('Part 1','Part 1','Part 1',(#1627));
#1624=PRODUCT_CATEGORY('','');
#1625=PRODUCT_CATEGORY('','');
#1626=PRODUCT_CONTEXT('',#1630,'mechanical');
#1627=PRODUCT_CONTEXT('',#1631,'mechanical');
#1628=APPLICATION_PROTOCOL_DEFINITION('international standard',
'ap242_managed_model_based_3d_engineering',2020,#1630);
#1629=APPLICATION_PROTOCOL_DEFINITION('international standard',
'ap242_managed_model_based_3d_engineering',2020,#1631);
#1630=APPLICATION_CONTEXT('managed model based 3d engineering');
#1631=APPLICATION_CONTEXT('managed model based 3d engineering');
ENDSEC;
END-ISO-10303-21;
